<ttFont>
    <TTGlyph name=".notdef" xMin="106" yMin="0" xMax="665" yMax="531">
      <contour>
        <pt x="651" y="506" on="1"/>
        <pt x="399" y="266" on="1"/>
        <pt x="651" y="25" on="1"/>
      </contour>
      <contour>
        <pt x="134" y="13" on="1"/>
        <pt x="641" y="13" on="1"/>
        <pt x="388" y="256" on="1"/>
      </contour>
      <contour>
        <pt x="121" y="22" on="1"/>
        <pt x="377" y="266" on="1"/>
        <pt x="121" y="507" on="1"/>
      </contour>
      <contour>
        <pt x="642" y="518" on="1"/>
        <pt x="131" y="518" on="1"/>
        <pt x="388" y="276" on="1"/>
      </contour>
      <contour>
        <pt x="107" y="0" on="1"/>
        <pt x="107" y="531" on="1"/>
        <pt x="665" y="531" on="1"/>
        <pt x="665" y="0" on="1"/>
      </contour>
    </TTGlyph>
    <TTGlyph name="A" xMin="50" yMin="0" xMax="641" yMax="732">
      <contour>
        <pt x="50" y="0" on="1"/>
        <pt x="321" y="732" on="1"/>
        <pt x="382" y="732" on="1"/>
        <pt x="640" y="0" on="1"/>
        <pt x="573" y="0" on="1"/>
        <pt x="501" y="221" on="1"/>
        <pt x="195" y="221" on="1"/>
        <pt x="119" y="0" on="1"/>
      </contour>
      <contour>
        <pt x="216" y="278" on="1"/>
        <pt x="481" y="278" on="1"/>
        <pt x="351" y="649" on="1"/>
      </contour>
    </TTGlyph>
    <TTGlyph name="AE" xMin="33" yMin="-5" xMax="879" yMax="733">
      <contour>
        <pt x="552" y="732" on="1"/>
        <pt x="566" y="732" on="0"/>
        <pt x="576" y="732" on="1"/>
        <pt x="878" y="718" on="1"/>
        <pt x="878" y="674" on="1"/>
        <pt x="576" y="674" on="1"/>
        <pt x="528" y="674" on="0"/>
        <pt x="517" y="655" on="1"/>
        <pt x="509" y="640" on="0"/>
        <pt x="508" y="603" on="0"/>
        <pt x="508" y="600" on="1"/>
        <pt x="508" y="390" on="1"/>
        <pt x="838" y="381" on="1"/>
        <pt x="838" y="338" on="1"/>
        <pt x="508" y="329" on="1"/>
        <pt x="508" y="122" on="1"/>
        <pt x="508" y="88" on="0"/>
        <pt x="527" y="68" on="0"/>
        <pt x="539" y="60" on="0"/>
        <pt x="550" y="58" on="1"/>
        <pt x="566" y="56" on="0"/>
        <pt x="587" y="56" on="1"/>
        <pt x="877" y="55" on="1"/>
        <pt x="877" y="10" on="1"/>
        <pt x="587" y="-4" on="1"/>
        <pt x="580" y="-5" on="0"/>
        <pt x="554" y="-5" on="0"/>
        <pt x="516" y="2" on="0"/>
        <pt x="495" y="14" on="1"/>
        <pt x="451" y="40" on="0"/>
        <pt x="451" y="121" on="1"/>
        <pt x="451" y="236" on="1"/>
        <pt x="225" y="236" on="1"/>
        <pt x="97" y="0" on="1"/>
        <pt x="33" y="0" on="1"/>
        <pt x="358" y="599" on="1"/>
        <pt x="395" y="669" on="0"/>
        <pt x="437" y="702" on="1"/>
        <pt x="476" y="732" on="0"/>
      </contour>
      <contour>
        <pt x="451" y="293" on="1"/>
        <pt x="451" y="654" on="1"/>
        <pt x="255" y="293" on="1"/>
      </contour>
    </TTGlyph>
    <TTGlyph name="Aacute" xMin="50" yMin="0" xMax="641" yMax="930">
      <contour>
        <pt x="326" y="797" on="1"/>
        <pt x="438" y="930" on="1"/>
        <pt x="509" y="930" on="1"/>
        <pt x="376" y="797" on="1"/>
      </contour>
      <contour>
        <pt x="50" y="0" on="1"/>
        <pt x="321" y="732" on="1"/>
        <pt x="382" y="732" on="1"/>
        <pt x="640" y="0" on="1"/>
        <pt x="573" y="0" on="1"/>
        <pt x="501" y="221" on="1"/>
        <pt x="195" y="221" on="1"/>
        <pt x="119" y="0" on="1"/>
      </contour>
      <contour>
        <pt x="216" y="278" on="1"/>
        <pt x="481" y="278" on="1"/>
        <pt x="351" y="649" on="1"/>
      </contour>
    </TTGlyph>
    <TTGlyph name="Abreve" xMin="50" yMin="0" xMax="641" yMax="911">
      <contour>
        <pt x="239" y="911" on="1"/>
        <pt x="275" y="911" on="1"/>
        <pt x="275" y="878" on="0"/>
        <pt x="322" y="833" on="0"/>
        <pt x="352" y="833" on="1"/>
        <pt x="387" y="833" on="0"/>
        <pt x="433" y="876" on="0"/>
        <pt x="433" y="911" on="1"/>
        <pt x="469" y="911" on="1"/>
        <pt x="469" y="856" on="0"/>
        <pt x="432" y="825" on="1"/>
        <pt x="397" y="797" on="0"/>
        <pt x="309" y="797" on="0"/>
        <pt x="239" y="860" on="0"/>
      </contour>
      <contour>
        <pt x="50" y="0" on="1"/>
        <pt x="321" y="732" on="1"/>
        <pt x="382" y="732" on="1"/>
        <pt x="640" y="0" on="1"/>
        <pt x="573" y="0" on="1"/>
        <pt x="501" y="221" on="1"/>
        <pt x="195" y="221" on="1"/>
        <pt x="119" y="0" on="1"/>
      </contour>
      <contour>
        <pt x="216" y="278" on="1"/>
        <pt x="481" y="278" on="1"/>
        <pt x="351" y="649" on="1"/>
      </contour>
    </TTGlyph>
    <TTGlyph name="Acircumflex" xMin="50" yMin="0" xMax="641" yMax="927">
      <contour>
        <pt x="209" y="797" on="1"/>
        <pt x="331" y="927" on="1"/>
        <pt x="384" y="927" on="1"/>
        <pt x="494" y="797" on="1"/>
        <pt x="441" y="797" on="1"/>
        <pt x="356" y="883" on="1"/>
        <pt x="262" y="797" on="1"/>
      </contour>
      <contour>
        <pt x="50" y="0" on="1"/>
        <pt x="321" y="732" on="1"/>
        <pt x="382" y="732" on="1"/>
        <pt x="640" y="0" on="1"/>
        <pt x="573" y="0" on="1"/>
        <pt x="501" y="221" on="1"/>
        <pt x="195" y="221" on="1"/>
        <pt x="119" y="0" on="1"/>
      </contour>
      <contour>
        <pt x="216" y="278" on="1"/>
        <pt x="481" y="278" on="1"/>
        <pt x="351" y="649" on="1"/>
      </contour>
    </TTGlyph>
    <TTGlyph name="Adieresis" xMin="50" yMin="0" xMax="641" yMax="876">
      <contour>
        <pt x="185" y="820" on="0"/>
        <pt x="185" y="853" on="0"/>
        <pt x="208" y="876" on="0"/>
        <pt x="241" y="876" on="0"/>
        <pt x="263" y="853" on="0"/>
        <pt x="263" y="826" on="0"/>
        <pt x="258" y="817" on="1"/>
        <pt x="247" y="797" on="0"/>
        <pt x="208" y="797" on="0"/>
      </contour>
      <contour>
        <pt x="463" y="797" on="0"/>
        <pt x="439" y="820" on="0"/>
        <pt x="439" y="848" on="0"/>
        <pt x="445" y="856" on="1"/>
        <pt x="456" y="876" on="0"/>
        <pt x="496" y="876" on="0"/>
        <pt x="518" y="853" on="0"/>
        <pt x="518" y="820" on="0"/>
        <pt x="495" y="797" on="0"/>
      </contour>
      <contour>
        <pt x="50" y="0" on="1"/>
        <pt x="321" y="732" on="1"/>
        <pt x="382" y="732" on="1"/>
        <pt x="640" y="0" on="1"/>
        <pt x="573" y="0" on="1"/>
        <pt x="501" y="221" on="1"/>
        <pt x="195" y="221" on="1"/>
        <pt x="119" y="0" on="1"/>
      </contour>
      <contour>
        <pt x="216" y="278" on="1"/>
        <pt x="481" y="278" on="1"/>
        <pt x="351" y="649" on="1"/>
      </contour>
    </TTGlyph>
    <TTGlyph name="Agrave" xMin="50" yMin="0" xMax="641" yMax="930">
      <contour>
        <pt x="193" y="930" on="1"/>
        <pt x="265" y="930" on="1"/>
        <pt x="376" y="797" on="1"/>
        <pt x="326" y="797" on="1"/>
      </contour>
      <contour>
        <pt x="50" y="0" on="1"/>
        <pt x="321" y="732" on="1"/>
        <pt x="382" y="732" on="1"/>
        <pt x="640" y="0" on="1"/>
        <pt x="573" y="0" on="1"/>
        <pt x="501" y="221" on="1"/>
        <pt x="195" y="221" on="1"/>
        <pt x="119" y="0" on="1"/>
      </contour>
      <contour>
        <pt x="216" y="278" on="1"/>
        <pt x="481" y="278" on="1"/>
        <pt x="351" y="649" on="1"/>
      </contour>
    </TTGlyph>
    <TTGlyph name="Amacron" xMin="50" yMin="0" xMax="641" yMax="844">
      <contour>
        <pt x="212" y="797" on="1"/>
        <pt x="212" y="844" on="1"/>
        <pt x="491" y="844" on="1"/>
        <pt x="491" y="797" on="1"/>
      </contour>
      <contour>
        <pt x="50" y="0" on="1"/>
        <pt x="321" y="732" on="1"/>
        <pt x="382" y="732" on="1"/>
        <pt x="640" y="0" on="1"/>
        <pt x="573" y="0" on="1"/>
        <pt x="501" y="221" on="1"/>
        <pt x="195" y="221" on="1"/>
        <pt x="119" y="0" on="1"/>
      </contour>
      <contour>
        <pt x="216" y="278" on="1"/>
        <pt x="481" y="278" on="1"/>
        <pt x="351" y="649" on="1"/>
      </contour>
    </TTGlyph>
    <TTGlyph name="Aogonek" xMin="50" yMin="-183" xMax="641" yMax="732">
      <contour>
        <pt x="624" y="0" on="1"/>
        <pt x="559" y="-43" on="0"/>
        <pt x="559" y="-87" on="1"/>
        <pt x="559" y="-103" on="0"/>
        <pt x="570" y="-115" on="1"/>
        <pt x="590" y="-136" on="0"/>
        <pt x="637" y="-137" on="1"/>
        <pt x="637" y="-181" on="1"/>
        <pt x="627" y="-182" on="0"/>
        <pt x="595" y="-182" on="0"/>
        <pt x="544" y="-164" on="0"/>
        <pt x="529" y="-143" on="1"/>
        <pt x="511" y="-117" on="0"/>
        <pt x="511" y="-69" on="0"/>
        <pt x="551" y="-18" on="0"/>
        <pt x="594" y="0" on="1"/>
      </contour>
      <contour>
        <pt x="50" y="0" on="1"/>
        <pt x="321" y="732" on="1"/>
        <pt x="382" y="732" on="1"/>
        <pt x="640" y="0" on="1"/>
        <pt x="573" y="0" on="1"/>
        <pt x="501" y="221" on="1"/>
        <pt x="195" y="221" on="1"/>
        <pt x="119" y="0" on="1"/>
      </contour>
      <contour>
        <pt x="216" y="278" on="1"/>
        <pt x="481" y="278" on="1"/>
        <pt x="351" y="649" on="1"/>
      </contour>
    </TTGlyph>
    <TTGlyph name="Aring" xMin="50" yMin="0" xMax="641" yMax="936">
      <contour>
        <pt x="250" y="804" on="0"/>
        <pt x="277" y="757" on="0"/>
        <pt x="324" y="730" on="0"/>
        <pt x="394" y="730" on="0"/>
        <pt x="453" y="789" on="0"/>
        <pt x="453" y="860" on="0"/>
        <pt x="426" y="908" on="0"/>
        <pt x="380" y="935" on="0"/>
        <pt x="310" y="935" on="0"/>
        <pt x="250" y="875" on="0"/>
      </contour>
      <contour>
        <pt x="286" y="805" on="0"/>
        <pt x="286" y="859" on="0"/>
        <pt x="325" y="898" on="0"/>
        <pt x="379" y="898" on="0"/>
        <pt x="417" y="859" on="0"/>
        <pt x="417" y="805" on="0"/>
        <pt x="379" y="767" on="0"/>
        <pt x="325" y="767" on="0"/>
      </contour>
      <contour>
        <pt x="50" y="0" on="1"/>
        <pt x="321" y="732" on="1"/>
        <pt x="382" y="732" on="1"/>
        <pt x="640" y="0" on="1"/>
        <pt x="573" y="0" on="1"/>
        <pt x="501" y="221" on="1"/>
        <pt x="195" y="221" on="1"/>
        <pt x="119" y="0" on="1"/>
      </contour>
      <contour>
        <pt x="216" y="278" on="1"/>
        <pt x="481" y="278" on="1"/>
        <pt x="351" y="649" on="1"/>
      </contour>
    </TTGlyph>
    <TTGlyph name="Atilde" xMin="50" yMin="0" xMax="641" yMax="897">
      <contour>
        <pt x="444" y="805" on="1"/>
        <pt x="402" y="785" on="0"/>
        <pt x="346" y="822" on="1"/>
        <pt x="311" y="845" on="0"/>
        <pt x="277" y="845" on="0"/>
        <pt x="247" y="834" on="0"/>
        <pt x="208" y="810" on="0"/>
        <pt x="198" y="805" on="1"/>
        <pt x="182" y="835" on="1"/>
        <pt x="229" y="874" on="0"/>
        <pt x="244" y="882" on="1"/>
        <pt x="275" y="897" on="0"/>
        <pt x="316" y="896" on="0"/>
        <pt x="360" y="872" on="0"/>
        <pt x="398" y="849" on="0"/>
        <pt x="416" y="849" on="0"/>
        <pt x="429" y="851" on="0"/>
        <pt x="444" y="857" on="0"/>
        <pt x="455" y="861" on="0"/>
        <pt x="473" y="872" on="0"/>
        <pt x="481" y="877" on="0"/>
        <pt x="501" y="889" on="0"/>
        <pt x="504" y="890" on="1"/>
        <pt x="520" y="860" on="1"/>
        <pt x="518" y="858" on="0"/>
        <pt x="495" y="839" on="0"/>
        <pt x="486" y="832" on="0"/>
        <pt x="476" y="824" on="1"/>
        <pt x="464" y="815" on="0"/>
      </contour>
      <contour>
        <pt x="50" y="0" on="1"/>
        <pt x="321" y="732" on="1"/>
        <pt x="382" y="732" on="1"/>
        <pt x="640" y="0" on="1"/>
        <pt x="573" y="0" on="1"/>
        <pt x="501" y="221" on="1"/>
        <pt x="195" y="221" on="1"/>
        <pt x="119" y="0" on="1"/>
      </contour>
      <contour>
        <pt x="216" y="278" on="1"/>
        <pt x="481" y="278" on="1"/>
        <pt x="351" y="649" on="1"/>
      </contour>
    </TTGlyph>
    <TTGlyph name="B" xMin="89" yMin="0" xMax="556" yMax="733">
      <contour>
        <pt x="90" y="0" on="1"/>
        <pt x="90" y="732" on="1"/>
        <pt x="362" y="732" on="1"/>
        <pt x="506" y="732" on="0"/>
        <pt x="542" y="612" on="1"/>
        <pt x="552" y="581" on="0"/>
        <pt x="552" y="544" on="1"/>
        <pt x="552" y="482" on="0"/>
        <pt x="497" y="394" on="0"/>
        <pt x="447" y="381" on="1"/>
        <pt x="487" y="372" on="0"/>
        <pt x="555" y="281" on="0"/>
        <pt x="555" y="204" on="1"/>
        <pt x="555" y="121" on="0"/>
        <pt x="517" y="64" on="1"/>
        <pt x="473" y="0" on="0"/>
        <pt x="362" y="0" on="1"/>
      </contour>
      <contour>
        <pt x="147" y="57" on="1"/>
        <pt x="362" y="57" on="1"/>
        <pt x="498" y="57" on="0"/>
        <pt x="498" y="206" on="1"/>
        <pt x="498" y="269" on="0"/>
        <pt x="425" y="355" on="0"/>
        <pt x="363" y="355" on="1"/>
        <pt x="362" y="355" on="0"/>
        <pt x="362" y="355" on="1"/>
        <pt x="147" y="355" on="1"/>
      </contour>
      <contour>
        <pt x="495" y="548" on="1"/>
        <pt x="495" y="675" on="0"/>
        <pt x="362" y="675" on="1"/>
        <pt x="147" y="675" on="1"/>
        <pt x="147" y="412" on="1"/>
        <pt x="362" y="412" on="1"/>
        <pt x="424" y="412" on="0"/>
        <pt x="495" y="481" on="0"/>
      </contour>
    </TTGlyph>
    <TTGlyph name="C" xMin="61" yMin="-6" xMax="539" yMax="740">
      <contour>
        <pt x="61" y="368" on="1"/>
        <pt x="61" y="598" on="0"/>
        <pt x="133" y="677" on="1"/>
        <pt x="191" y="740" on="0"/>
        <pt x="305" y="740" on="1"/>
        <pt x="344" y="740" on="0"/>
        <pt x="487" y="725" on="0"/>
        <pt x="539" y="715" on="1"/>
        <pt x="539" y="672" on="1"/>
        <pt x="539" y="672" on="0"/>
        <pt x="522" y="673" on="0"/>
        <pt x="494" y="675" on="0"/>
        <pt x="457" y="677" on="0"/>
        <pt x="413" y="680" on="0"/>
        <pt x="392" y="681" on="1"/>
        <pt x="343" y="683" on="0"/>
        <pt x="305" y="683" on="1"/>
        <pt x="236" y="683" on="0"/>
        <pt x="197" y="657" on="1"/>
        <pt x="118" y="605" on="0"/>
        <pt x="118" y="366" on="1"/>
        <pt x="118" y="51" on="0"/>
        <pt x="305" y="51" on="1"/>
        <pt x="404" y="51" on="0"/>
        <pt x="525" y="59" on="1"/>
        <pt x="539" y="60" on="1"/>
        <pt x="539" y="16" on="1"/>
        <pt x="489" y="7" on="0"/>
        <pt x="347" y="-6" on="0"/>
        <pt x="305" y="-6" on="1"/>
        <pt x="61" y="-6" on="0"/>
      </contour>
    </TTGlyph>
    <TTGlyph name="Cacute" xMin="61" yMin="-6" xMax="539" yMax="933">
      <contour>
        <pt x="302" y="800" on="1"/>
        <pt x="414" y="933" on="1"/>
        <pt x="485" y="933" on="1"/>
        <pt x="352" y="800" on="1"/>
      </contour>
      <contour>
        <pt x="61" y="368" on="1"/>
        <pt x="61" y="598" on="0"/>
        <pt x="133" y="677" on="1"/>
        <pt x="191" y="740" on="0"/>
        <pt x="305" y="740" on="1"/>
        <pt x="344" y="740" on="0"/>
        <pt x="487" y="725" on="0"/>
        <pt x="539" y="715" on="1"/>
        <pt x="539" y="672" on="1"/>
        <pt x="539" y="672" on="0"/>
        <pt x="522" y="673" on="0"/>
        <pt x="494" y="675" on="0"/>
        <pt x="457" y="677" on="0"/>
        <pt x="413" y="680" on="0"/>
        <pt x="392" y="681" on="1"/>
        <pt x="343" y="683" on="0"/>
        <pt x="305" y="683" on="1"/>
        <pt x="236" y="683" on="0"/>
        <pt x="197" y="657" on="1"/>
        <pt x="118" y="605" on="0"/>
        <pt x="118" y="366" on="1"/>
        <pt x="118" y="51" on="0"/>
        <pt x="305" y="51" on="1"/>
        <pt x="404" y="51" on="0"/>
        <pt x="525" y="59" on="1"/>
        <pt x="539" y="60" on="1"/>
        <pt x="539" y="16" on="1"/>
        <pt x="489" y="7" on="0"/>
        <pt x="347" y="-6" on="0"/>
        <pt x="305" y="-6" on="1"/>
        <pt x="61" y="-6" on="0"/>
      </contour>
    </TTGlyph>
    <TTGlyph name="Ccaron" xMin="61" yMin="-6" xMax="539" yMax="930">
      <contour>
        <pt x="193" y="930" on="1"/>
        <pt x="246" y="930" on="1"/>
        <pt x="337" y="844" on="1"/>
        <pt x="425" y="930" on="1"/>
        <pt x="478" y="930" on="1"/>
        <pt x="365" y="800" on="1"/>
        <pt x="310" y="800" on="1"/>
      </contour>
      <contour>
        <pt x="61" y="368" on="1"/>
        <pt x="61" y="598" on="0"/>
        <pt x="133" y="677" on="1"/>
        <pt x="191" y="740" on="0"/>
        <pt x="305" y="740" on="1"/>
        <pt x="344" y="740" on="0"/>
        <pt x="487" y="725" on="0"/>
        <pt x="539" y="715" on="1"/>
        <pt x="539" y="672" on="1"/>
        <pt x="539" y="672" on="0"/>
        <pt x="522" y="673" on="0"/>
        <pt x="494" y="675" on="0"/>
        <pt x="457" y="677" on="0"/>
        <pt x="413" y="680" on="0"/>
        <pt x="392" y="681" on="1"/>
        <pt x="343" y="683" on="0"/>
        <pt x="305" y="683" on="1"/>
        <pt x="236" y="683" on="0"/>
        <pt x="197" y="657" on="1"/>
        <pt x="118" y="605" on="0"/>
        <pt x="118" y="366" on="1"/>
        <pt x="118" y="51" on="0"/>
        <pt x="305" y="51" on="1"/>
        <pt x="404" y="51" on="0"/>
        <pt x="525" y="59" on="1"/>
        <pt x="539" y="60" on="1"/>
        <pt x="539" y="16" on="1"/>
        <pt x="489" y="7" on="0"/>
        <pt x="347" y="-6" on="0"/>
        <pt x="305" y="-6" on="1"/>
        <pt x="61" y="-6" on="0"/>
      </contour>
    </TTGlyph>
    <TTGlyph name="Ccedilla" xMin="61" yMin="-172" xMax="539" yMax="740">
      <contour>
        <pt x="361" y="-36" on="1"/>
        <pt x="361" y="-114" on="0"/>
        <pt x="320" y="-172" on="0"/>
        <pt x="260" y="-172" on="1"/>
        <pt x="216" y="-172" on="1"/>
        <pt x="216" y="-145" on="1"/>
        <pt x="262" y="-134" on="1"/>
        <pt x="290" y="-126" on="0"/>
        <pt x="312" y="-82" on="0"/>
        <pt x="311" y="-36" on="1"/>
      </contour>
      <contour>
        <pt x="61" y="368" on="1"/>
        <pt x="61" y="598" on="0"/>
        <pt x="133" y="677" on="1"/>
        <pt x="191" y="740" on="0"/>
        <pt x="305" y="740" on="1"/>
        <pt x="344" y="740" on="0"/>
        <pt x="487" y="725" on="0"/>
        <pt x="539" y="715" on="1"/>
        <pt x="539" y="672" on="1"/>
        <pt x="539" y="672" on="0"/>
        <pt x="522" y="673" on="0"/>
        <pt x="494" y="675" on="0"/>
        <pt x="457" y="677" on="0"/>
        <pt x="413" y="680" on="0"/>
        <pt x="392" y="681" on="1"/>
        <pt x="343" y="683" on="0"/>
        <pt x="305" y="683" on="1"/>
        <pt x="236" y="683" on="0"/>
        <pt x="197" y="657" on="1"/>
        <pt x="118" y="605" on="0"/>
        <pt x="118" y="366" on="1"/>
        <pt x="118" y="51" on="0"/>
        <pt x="305" y="51" on="1"/>
        <pt x="404" y="51" on="0"/>
        <pt x="525" y="59" on="1"/>
        <pt x="539" y="60" on="1"/>
        <pt x="539" y="16" on="1"/>
        <pt x="489" y="7" on="0"/>
        <pt x="347" y="-6" on="0"/>
        <pt x="305" y="-6" on="1"/>
        <pt x="61" y="-6" on="0"/>
      </contour>
    </TTGlyph>
    <TTGlyph name="Ccircumflex" xMin="61" yMin="-6" xMax="539" yMax="930">
      <contour>
        <pt x="188" y="800" on="1"/>
        <pt x="310" y="930" on="1"/>
        <pt x="364" y="930" on="1"/>
        <pt x="473" y="800" on="1"/>
        <pt x="420" y="800" on="1"/>
        <pt x="335" y="886" on="1"/>
        <pt x="242" y="800" on="1"/>
      </contour>
      <contour>
        <pt x="61" y="368" on="1"/>
        <pt x="61" y="598" on="0"/>
        <pt x="133" y="677" on="1"/>
        <pt x="191" y="740" on="0"/>
        <pt x="305" y="740" on="1"/>
        <pt x="344" y="740" on="0"/>
        <pt x="487" y="725" on="0"/>
        <pt x="539" y="715" on="1"/>
        <pt x="539" y="672" on="1"/>
        <pt x="539" y="672" on="0"/>
        <pt x="522" y="673" on="0"/>
        <pt x="494" y="675" on="0"/>
        <pt x="457" y="677" on="0"/>
        <pt x="413" y="680" on="0"/>
        <pt x="392" y="681" on="1"/>
        <pt x="343" y="683" on="0"/>
        <pt x="305" y="683" on="1"/>
        <pt x="236" y="683" on="0"/>
        <pt x="197" y="657" on="1"/>
        <pt x="118" y="605" on="0"/>
        <pt x="118" y="366" on="1"/>
        <pt x="118" y="51" on="0"/>
        <pt x="305" y="51" on="1"/>
        <pt x="404" y="51" on="0"/>
        <pt x="525" y="59" on="1"/>
        <pt x="539" y="60" on="1"/>
        <pt x="539" y="16" on="1"/>
        <pt x="489" y="7" on="0"/>
        <pt x="347" y="-6" on="0"/>
        <pt x="305" y="-6" on="1"/>
        <pt x="61" y="-6" on="0"/>
      </contour>
    </TTGlyph>
    <TTGlyph name="Cdotaccent" xMin="61" yMin="-6" xMax="539" yMax="898">
      <contour>
        <pt x="303" y="821" on="1"/>
        <pt x="303" y="877" on="1"/>
        <pt x="303" y="898" on="0"/>
        <pt x="323" y="898" on="1"/>
        <pt x="360" y="898" on="1"/>
        <pt x="379" y="898" on="0"/>
        <pt x="379" y="877" on="1"/>
        <pt x="379" y="821" on="1"/>
        <pt x="379" y="801" on="0"/>
        <pt x="360" y="801" on="1"/>
        <pt x="323" y="801" on="1"/>
        <pt x="315" y="801" on="0"/>
        <pt x="303" y="812" on="0"/>
      </contour>
      <contour>
        <pt x="61" y="368" on="1"/>
        <pt x="61" y="598" on="0"/>
        <pt x="133" y="677" on="1"/>
        <pt x="191" y="740" on="0"/>
        <pt x="305" y="740" on="1"/>
        <pt x="344" y="740" on="0"/>
        <pt x="487" y="725" on="0"/>
        <pt x="539" y="715" on="1"/>
        <pt x="539" y="672" on="1"/>
        <pt x="539" y="672" on="0"/>
        <pt x="522" y="673" on="0"/>
        <pt x="494" y="675" on="0"/>
        <pt x="457" y="677" on="0"/>
        <pt x="413" y="680" on="0"/>
        <pt x="392" y="681" on="1"/>
        <pt x="343" y="683" on="0"/>
        <pt x="305" y="683" on="1"/>
        <pt x="236" y="683" on="0"/>
        <pt x="197" y="657" on="1"/>
        <pt x="118" y="605" on="0"/>
        <pt x="118" y="366" on="1"/>
        <pt x="118" y="51" on="0"/>
        <pt x="305" y="51" on="1"/>
        <pt x="404" y="51" on="0"/>
        <pt x="525" y="59" on="1"/>
        <pt x="539" y="60" on="1"/>
        <pt x="539" y="16" on="1"/>
        <pt x="489" y="7" on="0"/>
        <pt x="347" y="-6" on="0"/>
        <pt x="305" y="-6" on="1"/>
        <pt x="61" y="-6" on="0"/>
      </contour>
    </TTGlyph>
    <TTGlyph name="D" xMin="89" yMin="0" xMax="615" yMax="732">
      <contour>
        <pt x="90" y="0" on="1"/>
        <pt x="90" y="732" on="1"/>
        <pt x="355" y="732" on="1"/>
        <pt x="438" y="732" on="0"/>
        <pt x="491" y="695" on="1"/>
        <pt x="545" y="657" on="0"/>
        <pt x="569" y="604" on="1"/>
        <pt x="597" y="543" on="0"/>
        <pt x="604" y="497" on="1"/>
        <pt x="615" y="423" on="0"/>
        <pt x="615" y="311" on="0"/>
        <pt x="598" y="212" on="0"/>
        <pt x="558" y="116" on="0"/>
        <pt x="500" y="44" on="0"/>
        <pt x="410" y="0" on="0"/>
        <pt x="355" y="0" on="1"/>
      </contour>
      <contour>
        <pt x="147" y="59" on="1"/>
        <pt x="355" y="59" on="1"/>
        <pt x="407" y="59" on="0"/>
        <pt x="487" y="111" on="0"/>
        <pt x="511" y="155" on="1"/>
        <pt x="558" y="243" on="0"/>
        <pt x="558" y="364" on="1"/>
        <pt x="558" y="675" on="0"/>
        <pt x="355" y="675" on="1"/>
        <pt x="147" y="675" on="1"/>
      </contour>
    </TTGlyph>
    <TTGlyph name="Dcaron" xMin="89" yMin="0" xMax="615" yMax="922">
      <contour>
        <pt x="189" y="922" on="1"/>
        <pt x="242" y="922" on="1"/>
        <pt x="333" y="836" on="1"/>
        <pt x="421" y="922" on="1"/>
        <pt x="474" y="922" on="1"/>
        <pt x="360" y="792" on="1"/>
        <pt x="306" y="792" on="1"/>
      </contour>
      <contour>
        <pt x="90" y="0" on="1"/>
        <pt x="90" y="732" on="1"/>
        <pt x="355" y="732" on="1"/>
        <pt x="438" y="732" on="0"/>
        <pt x="491" y="695" on="1"/>
        <pt x="545" y="657" on="0"/>
        <pt x="569" y="604" on="1"/>
        <pt x="597" y="543" on="0"/>
        <pt x="604" y="497" on="1"/>
        <pt x="615" y="423" on="0"/>
        <pt x="615" y="311" on="0"/>
        <pt x="598" y="212" on="0"/>
        <pt x="558" y="116" on="0"/>
        <pt x="500" y="44" on="0"/>
        <pt x="410" y="0" on="0"/>
        <pt x="355" y="0" on="1"/>
      </contour>
      <contour>
        <pt x="147" y="59" on="1"/>
        <pt x="355" y="59" on="1"/>
        <pt x="407" y="59" on="0"/>
        <pt x="487" y="111" on="0"/>
        <pt x="511" y="155" on="1"/>
        <pt x="558" y="243" on="0"/>
        <pt x="558" y="364" on="1"/>
        <pt x="558" y="675" on="0"/>
        <pt x="355" y="675" on="1"/>
        <pt x="147" y="675" on="1"/>
      </contour>
    </TTGlyph>
    <TTGlyph name="Dcroat" xMin="24" yMin="0" xMax="612" yMax="732">
      <contour>
        <pt x="25" y="353" on="1"/>
        <pt x="25" y="393" on="1"/>
        <pt x="90" y="393" on="1"/>
        <pt x="90" y="731" on="1"/>
        <pt x="90" y="732" on="0"/>
        <pt x="352" y="732" on="1"/>
        <pt x="484" y="732" on="0"/>
        <pt x="549" y="634" on="1"/>
        <pt x="611" y="538" on="0"/>
        <pt x="611" y="363" on="1"/>
        <pt x="611" y="253" on="0"/>
        <pt x="575" y="164" on="1"/>
        <pt x="533" y="62" on="0"/>
        <pt x="452" y="22" on="1"/>
        <pt x="407" y="0" on="0"/>
        <pt x="352" y="0" on="1"/>
        <pt x="90" y="0" on="1"/>
        <pt x="90" y="353" on="1"/>
      </contour>
      <contour>
        <pt x="147" y="59" on="1"/>
        <pt x="352" y="59" on="1"/>
        <pt x="404" y="59" on="0"/>
        <pt x="484" y="111" on="0"/>
        <pt x="507" y="155" on="1"/>
        <pt x="552" y="243" on="0"/>
        <pt x="552" y="364" on="1"/>
        <pt x="552" y="522" on="0"/>
        <pt x="448" y="672" on="0"/>
        <pt x="352" y="672" on="1"/>
        <pt x="147" y="671" on="1"/>
        <pt x="147" y="393" on="1"/>
        <pt x="292" y="393" on="1"/>
        <pt x="292" y="353" on="1"/>
        <pt x="147" y="353" on="1"/>
      </contour>
    </TTGlyph>
    <TTGlyph name="E" xMin="89" yMin="-4" xMax="526" yMax="733">
      <contour>
        <pt x="90" y="123" on="1"/>
        <pt x="90" y="602" on="1"/>
        <pt x="90" y="671" on="0"/>
        <pt x="159" y="732" on="0"/>
        <pt x="208" y="732" on="1"/>
        <pt x="212" y="732" on="0"/>
        <pt x="216" y="732" on="1"/>
        <pt x="525" y="718" on="1"/>
        <pt x="525" y="675" on="1"/>
        <pt x="216" y="675" on="1"/>
        <pt x="177" y="675" on="0"/>
        <pt x="147" y="638" on="0"/>
        <pt x="147" y="602" on="1"/>
        <pt x="147" y="393" on="1"/>
        <pt x="485" y="385" on="1"/>
        <pt x="485" y="341" on="1"/>
        <pt x="147" y="333" on="1"/>
        <pt x="147" y="123" on="1"/>
        <pt x="147" y="76" on="0"/>
        <pt x="173" y="63" on="1"/>
        <pt x="193" y="54" on="0"/>
        <pt x="226" y="54" on="1"/>
        <pt x="525" y="54" on="1"/>
        <pt x="525" y="12" on="1"/>
        <pt x="226" y="-3" on="1"/>
        <pt x="218" y="-3" on="0"/>
        <pt x="192" y="-3" on="0"/>
        <pt x="154" y="4" on="0"/>
        <pt x="133" y="16" on="1"/>
        <pt x="90" y="42" on="0"/>
      </contour>
    </TTGlyph>
    <TTGlyph name="Eacute" xMin="89" yMin="-4" xMax="526" yMax="925">
      <contour>
        <pt x="302" y="792" on="1"/>
        <pt x="414" y="925" on="1"/>
        <pt x="486" y="925" on="1"/>
        <pt x="353" y="792" on="1"/>
      </contour>
      <contour>
        <pt x="90" y="123" on="1"/>
        <pt x="90" y="602" on="1"/>
        <pt x="90" y="671" on="0"/>
        <pt x="159" y="732" on="0"/>
        <pt x="208" y="732" on="1"/>
        <pt x="212" y="732" on="0"/>
        <pt x="216" y="732" on="1"/>
        <pt x="525" y="718" on="1"/>
        <pt x="525" y="675" on="1"/>
        <pt x="216" y="675" on="1"/>
        <pt x="177" y="675" on="0"/>
        <pt x="147" y="638" on="0"/>
        <pt x="147" y="602" on="1"/>
        <pt x="147" y="393" on="1"/>
        <pt x="485" y="385" on="1"/>
        <pt x="485" y="341" on="1"/>
        <pt x="147" y="333" on="1"/>
        <pt x="147" y="123" on="1"/>
        <pt x="147" y="76" on="0"/>
        <pt x="173" y="63" on="1"/>
        <pt x="193" y="54" on="0"/>
        <pt x="226" y="54" on="1"/>
        <pt x="525" y="54" on="1"/>
        <pt x="525" y="12" on="1"/>
        <pt x="226" y="-3" on="1"/>
        <pt x="218" y="-3" on="0"/>
        <pt x="192" y="-3" on="0"/>
        <pt x="154" y="4" on="0"/>
        <pt x="133" y="16" on="1"/>
        <pt x="90" y="42" on="0"/>
      </contour>
    </TTGlyph>
    <TTGlyph name="Ecaron" xMin="89" yMin="-4" xMax="526" yMax="922">
      <contour>
        <pt x="181" y="922" on="1"/>
        <pt x="234" y="922" on="1"/>
        <pt x="325" y="836" on="1"/>
        <pt x="413" y="922" on="1"/>
        <pt x="466" y="922" on="1"/>
        <pt x="353" y="792" on="1"/>
        <pt x="299" y="792" on="1"/>
      </contour>
      <contour>
        <pt x="90" y="123" on="1"/>
        <pt x="90" y="602" on="1"/>
        <pt x="90" y="671" on="0"/>
        <pt x="159" y="732" on="0"/>
        <pt x="208" y="732" on="1"/>
        <pt x="212" y="732" on="0"/>
        <pt x="216" y="732" on="1"/>
        <pt x="525" y="718" on="1"/>
        <pt x="525" y="675" on="1"/>
        <pt x="216" y="675" on="1"/>
        <pt x="177" y="675" on="0"/>
        <pt x="147" y="638" on="0"/>
        <pt x="147" y="602" on="1"/>
        <pt x="147" y="393" on="1"/>
        <pt x="485" y="385" on="1"/>
        <pt x="485" y="341" on="1"/>
        <pt x="147" y="333" on="1"/>
        <pt x="147" y="123" on="1"/>
        <pt x="147" y="76" on="0"/>
        <pt x="173" y="63" on="1"/>
        <pt x="193" y="54" on="0"/>
        <pt x="226" y="54" on="1"/>
        <pt x="525" y="54" on="1"/>
        <pt x="525" y="12" on="1"/>
        <pt x="226" y="-3" on="1"/>
        <pt x="218" y="-3" on="0"/>
        <pt x="192" y="-3" on="0"/>
        <pt x="154" y="4" on="0"/>
        <pt x="133" y="16" on="1"/>
        <pt x="90" y="42" on="0"/>
      </contour>
    </TTGlyph>
    <TTGlyph name="Ecircumflex" xMin="89" yMin="-4" xMax="526" yMax="927">
      <contour>
        <pt x="180" y="797" on="1"/>
        <pt x="302" y="927" on="1"/>
        <pt x="356" y="927" on="1"/>
        <pt x="465" y="797" on="1"/>
        <pt x="412" y="797" on="1"/>
        <pt x="327" y="883" on="1"/>
        <pt x="234" y="797" on="1"/>
      </contour>
      <contour>
        <pt x="90" y="123" on="1"/>
        <pt x="90" y="602" on="1"/>
        <pt x="90" y="671" on="0"/>
        <pt x="159" y="732" on="0"/>
        <pt x="208" y="732" on="1"/>
        <pt x="212" y="732" on="0"/>
        <pt x="216" y="732" on="1"/>
        <pt x="525" y="718" on="1"/>
        <pt x="525" y="675" on="1"/>
        <pt x="216" y="675" on="1"/>
        <pt x="177" y="675" on="0"/>
        <pt x="147" y="638" on="0"/>
        <pt x="147" y="602" on="1"/>
        <pt x="147" y="393" on="1"/>
        <pt x="485" y="385" on="1"/>
        <pt x="485" y="341" on="1"/>
        <pt x="147" y="333" on="1"/>
        <pt x="147" y="123" on="1"/>
        <pt x="147" y="76" on="0"/>
        <pt x="173" y="63" on="1"/>
        <pt x="193" y="54" on="0"/>
        <pt x="226" y="54" on="1"/>
        <pt x="525" y="54" on="1"/>
        <pt x="525" y="12" on="1"/>
        <pt x="226" y="-3" on="1"/>
        <pt x="218" y="-3" on="0"/>
        <pt x="192" y="-3" on="0"/>
        <pt x="154" y="4" on="0"/>
        <pt x="133" y="16" on="1"/>
        <pt x="90" y="42" on="0"/>
      </contour>
    </TTGlyph>
    <TTGlyph name="Edieresis" xMin="89" yMin="-4" xMax="526" yMax="882">
      <contour>
        <pt x="176" y="803" on="0"/>
        <pt x="153" y="827" on="0"/>
        <pt x="153" y="854" on="0"/>
        <pt x="158" y="863" on="1"/>
        <pt x="169" y="882" on="0"/>
        <pt x="208" y="882" on="0"/>
        <pt x="231" y="859" on="0"/>
        <pt x="231" y="826" on="0"/>
        <pt x="208" y="803" on="0"/>
      </contour>
      <contour>
        <pt x="407" y="827" on="0"/>
        <pt x="407" y="859" on="0"/>
        <pt x="431" y="882" on="0"/>
        <pt x="463" y="882" on="0"/>
        <pt x="486" y="859" on="0"/>
        <pt x="486" y="826" on="0"/>
        <pt x="463" y="803" on="0"/>
        <pt x="431" y="803" on="0"/>
      </contour>
      <contour>
        <pt x="90" y="123" on="1"/>
        <pt x="90" y="602" on="1"/>
        <pt x="90" y="671" on="0"/>
        <pt x="159" y="732" on="0"/>
        <pt x="208" y="732" on="1"/>
        <pt x="212" y="732" on="0"/>
        <pt x="216" y="732" on="1"/>
        <pt x="525" y="718" on="1"/>
        <pt x="525" y="675" on="1"/>
        <pt x="216" y="675" on="1"/>
        <pt x="177" y="675" on="0"/>
        <pt x="147" y="638" on="0"/>
        <pt x="147" y="602" on="1"/>
        <pt x="147" y="393" on="1"/>
        <pt x="485" y="385" on="1"/>
        <pt x="485" y="341" on="1"/>
        <pt x="147" y="333" on="1"/>
        <pt x="147" y="123" on="1"/>
        <pt x="147" y="76" on="0"/>
        <pt x="173" y="63" on="1"/>
        <pt x="193" y="54" on="0"/>
        <pt x="226" y="54" on="1"/>
        <pt x="525" y="54" on="1"/>
        <pt x="525" y="12" on="1"/>
        <pt x="226" y="-3" on="1"/>
        <pt x="218" y="-3" on="0"/>
        <pt x="192" y="-3" on="0"/>
        <pt x="154" y="4" on="0"/>
        <pt x="133" y="16" on="1"/>
        <pt x="90" y="42" on="0"/>
      </contour>
    </TTGlyph>
    <TTGlyph name="Edotaccent" xMin="89" yMin="-4" xMax="526" yMax="892">
      <contour>
        <pt x="287" y="814" on="1"/>
        <pt x="287" y="871" on="1"/>
        <pt x="287" y="892" on="0"/>
        <pt x="307" y="892" on="1"/>
        <pt x="344" y="892" on="1"/>
        <pt x="363" y="892" on="0"/>
        <pt x="363" y="871" on="1"/>
        <pt x="363" y="814" on="1"/>
        <pt x="363" y="795" on="0"/>
        <pt x="344" y="795" on="1"/>
        <pt x="307" y="795" on="1"/>
        <pt x="298" y="795" on="0"/>
        <pt x="287" y="806" on="0"/>
      </contour>
      <contour>
        <pt x="90" y="123" on="1"/>
        <pt x="90" y="602" on="1"/>
        <pt x="90" y="671" on="0"/>
        <pt x="159" y="732" on="0"/>
        <pt x="208" y="732" on="1"/>
        <pt x="212" y="732" on="0"/>
        <pt x="216" y="732" on="1"/>
        <pt x="525" y="718" on="1"/>
        <pt x="525" y="675" on="1"/>
        <pt x="216" y="675" on="1"/>
        <pt x="177" y="675" on="0"/>
        <pt x="147" y="638" on="0"/>
        <pt x="147" y="602" on="1"/>
        <pt x="147" y="393" on="1"/>
        <pt x="485" y="385" on="1"/>
        <pt x="485" y="341" on="1"/>
        <pt x="147" y="333" on="1"/>
        <pt x="147" y="123" on="1"/>
        <pt x="147" y="76" on="0"/>
        <pt x="173" y="63" on="1"/>
        <pt x="193" y="54" on="0"/>
        <pt x="226" y="54" on="1"/>
        <pt x="525" y="54" on="1"/>
        <pt x="525" y="12" on="1"/>
        <pt x="226" y="-3" on="1"/>
        <pt x="218" y="-3" on="0"/>
        <pt x="192" y="-3" on="0"/>
        <pt x="154" y="4" on="0"/>
        <pt x="133" y="16" on="1"/>
        <pt x="90" y="42" on="0"/>
      </contour>
    </TTGlyph>
    <TTGlyph name="Egrave" xMin="89" yMin="-4" xMax="526" yMax="925">
      <contour>
        <pt x="184" y="925" on="1"/>
        <pt x="256" y="925" on="1"/>
        <pt x="367" y="792" on="1"/>
        <pt x="317" y="792" on="1"/>
      </contour>
      <contour>
        <pt x="90" y="123" on="1"/>
        <pt x="90" y="602" on="1"/>
        <pt x="90" y="671" on="0"/>
        <pt x="159" y="732" on="0"/>
        <pt x="208" y="732" on="1"/>
        <pt x="212" y="732" on="0"/>
        <pt x="216" y="732" on="1"/>
        <pt x="525" y="718" on="1"/>
        <pt x="525" y="675" on="1"/>
        <pt x="216" y="675" on="1"/>
        <pt x="177" y="675" on="0"/>
        <pt x="147" y="638" on="0"/>
        <pt x="147" y="602" on="1"/>
        <pt x="147" y="393" on="1"/>
        <pt x="485" y="385" on="1"/>
        <pt x="485" y="341" on="1"/>
        <pt x="147" y="333" on="1"/>
        <pt x="147" y="123" on="1"/>
        <pt x="147" y="76" on="0"/>
        <pt x="173" y="63" on="1"/>
        <pt x="193" y="54" on="0"/>
        <pt x="226" y="54" on="1"/>
        <pt x="525" y="54" on="1"/>
        <pt x="525" y="12" on="1"/>
        <pt x="226" y="-3" on="1"/>
        <pt x="218" y="-3" on="0"/>
        <pt x="192" y="-3" on="0"/>
        <pt x="154" y="4" on="0"/>
        <pt x="133" y="16" on="1"/>
        <pt x="90" y="42" on="0"/>
      </contour>
    </TTGlyph>
    <TTGlyph name="Emacron" xMin="89" yMin="-4" xMax="526" yMax="842">
      <contour>
        <pt x="185" y="795" on="1"/>
        <pt x="185" y="842" on="1"/>
        <pt x="463" y="842" on="1"/>
        <pt x="463" y="795" on="1"/>
      </contour>
      <contour>
        <pt x="90" y="123" on="1"/>
        <pt x="90" y="602" on="1"/>
        <pt x="90" y="671" on="0"/>
        <pt x="159" y="732" on="0"/>
        <pt x="208" y="732" on="1"/>
        <pt x="212" y="732" on="0"/>
        <pt x="216" y="732" on="1"/>
        <pt x="525" y="718" on="1"/>
        <pt x="525" y="675" on="1"/>
        <pt x="216" y="675" on="1"/>
        <pt x="177" y="675" on="0"/>
        <pt x="147" y="638" on="0"/>
        <pt x="147" y="602" on="1"/>
        <pt x="147" y="393" on="1"/>
        <pt x="485" y="385" on="1"/>
        <pt x="485" y="341" on="1"/>
        <pt x="147" y="333" on="1"/>
        <pt x="147" y="123" on="1"/>
        <pt x="147" y="76" on="0"/>
        <pt x="173" y="63" on="1"/>
        <pt x="193" y="54" on="0"/>
        <pt x="226" y="54" on="1"/>
        <pt x="525" y="54" on="1"/>
        <pt x="525" y="12" on="1"/>
        <pt x="226" y="-3" on="1"/>
        <pt x="218" y="-3" on="0"/>
        <pt x="192" y="-3" on="0"/>
        <pt x="154" y="4" on="0"/>
        <pt x="133" y="16" on="1"/>
        <pt x="90" y="42" on="0"/>
      </contour>
    </TTGlyph>
    <TTGlyph name="Eng" xMin="89" yMin="-257" xMax="611" yMax="732">
      <contour>
        <pt x="90" y="0" on="1"/>
        <pt x="90" y="732" on="1"/>
        <pt x="148" y="732" on="1"/>
        <pt x="554" y="114" on="1"/>
        <pt x="554" y="732" on="1"/>
        <pt x="611" y="732" on="1"/>
        <pt x="611" y="-84" on="1"/>
        <pt x="611" y="-209" on="0"/>
        <pt x="534" y="-240" on="1"/>
        <pt x="491" y="-257" on="0"/>
        <pt x="414" y="-257" on="1"/>
        <pt x="414" y="-213" on="1"/>
        <pt x="422" y="-212" on="0"/>
        <pt x="456" y="-206" on="0"/>
        <pt x="473" y="-202" on="0"/>
        <pt x="502" y="-193" on="0"/>
        <pt x="517" y="-182" on="0"/>
        <pt x="537" y="-163" on="0"/>
        <pt x="542" y="-150" on="1"/>
        <pt x="554" y="-119" on="0"/>
        <pt x="554" y="-75" on="1"/>
        <pt x="554" y="0" on="1"/>
        <pt x="148" y="625" on="1"/>
        <pt x="147" y="0" on="1"/>
      </contour>
    </TTGlyph>
    <TTGlyph name="Eogonek" xMin="89" yMin="-171" xMax="538" yMax="733">
      <contour>
        <pt x="525" y="12" on="1"/>
        <pt x="460" y="-31" on="0"/>
        <pt x="460" y="-77" on="1"/>
        <pt x="460" y="-97" on="0"/>
        <pt x="503" y="-125" on="0"/>
        <pt x="538" y="-125" on="1"/>
        <pt x="538" y="-169" on="1"/>
        <pt x="528" y="-171" on="0"/>
        <pt x="496" y="-171" on="0"/>
        <pt x="445" y="-152" on="0"/>
        <pt x="430" y="-131" on="1"/>
        <pt x="412" y="-106" on="0"/>
        <pt x="412" y="-57" on="0"/>
        <pt x="452" y="-7" on="0"/>
        <pt x="495" y="12" on="1"/>
      </contour>
      <contour>
        <pt x="90" y="123" on="1"/>
        <pt x="90" y="602" on="1"/>
        <pt x="90" y="671" on="0"/>
        <pt x="159" y="732" on="0"/>
        <pt x="208" y="732" on="1"/>
        <pt x="212" y="732" on="0"/>
        <pt x="216" y="732" on="1"/>
        <pt x="525" y="718" on="1"/>
        <pt x="525" y="675" on="1"/>
        <pt x="216" y="675" on="1"/>
        <pt x="177" y="675" on="0"/>
        <pt x="147" y="638" on="0"/>
        <pt x="147" y="602" on="1"/>
        <pt x="147" y="393" on="1"/>
        <pt x="485" y="385" on="1"/>
        <pt x="485" y="341" on="1"/>
        <pt x="147" y="333" on="1"/>
        <pt x="147" y="123" on="1"/>
        <pt x="147" y="76" on="0"/>
        <pt x="173" y="63" on="1"/>
        <pt x="193" y="54" on="0"/>
        <pt x="226" y="54" on="1"/>
        <pt x="525" y="54" on="1"/>
        <pt x="525" y="12" on="1"/>
        <pt x="226" y="-3" on="1"/>
        <pt x="218" y="-3" on="0"/>
        <pt x="192" y="-3" on="0"/>
        <pt x="154" y="4" on="0"/>
        <pt x="133" y="16" on="1"/>
        <pt x="90" y="42" on="0"/>
      </contour>
    </TTGlyph>
    <TTGlyph name="Eth" xMin="24" yMin="0" xMax="612" yMax="732">
      <contour>
        <pt x="25" y="353" on="1"/>
        <pt x="25" y="393" on="1"/>
        <pt x="90" y="393" on="1"/>
        <pt x="90" y="731" on="1"/>
        <pt x="90" y="732" on="0"/>
        <pt x="352" y="732" on="1"/>
        <pt x="484" y="732" on="0"/>
        <pt x="549" y="634" on="1"/>
        <pt x="611" y="538" on="0"/>
        <pt x="611" y="363" on="1"/>
        <pt x="611" y="277" on="0"/>
        <pt x="562" y="113" on="0"/>
        <pt x="504" y="57" on="1"/>
        <pt x="445" y="0" on="0"/>
        <pt x="352" y="0" on="1"/>
        <pt x="90" y="0" on="1"/>
        <pt x="90" y="353" on="1"/>
      </contour>
      <contour>
        <pt x="552" y="364" on="1"/>
        <pt x="552" y="522" on="0"/>
        <pt x="448" y="672" on="0"/>
        <pt x="352" y="672" on="1"/>
        <pt x="147" y="671" on="1"/>
        <pt x="147" y="393" on="1"/>
        <pt x="292" y="393" on="1"/>
        <pt x="292" y="353" on="1"/>
        <pt x="147" y="353" on="1"/>
        <pt x="147" y="59" on="1"/>
        <pt x="352" y="59" on="1"/>
        <pt x="404" y="59" on="0"/>
        <pt x="484" y="111" on="0"/>
        <pt x="507" y="155" on="1"/>
        <pt x="552" y="243" on="0"/>
      </contour>
    </TTGlyph>
    <TTGlyph name="Euro" xMin="22" yMin="-6" xMax="584" yMax="740">
      <contour>
        <pt x="110" y="463" on="1"/>
        <pt x="110" y="479" on="1"/>
        <pt x="110" y="510" on="0"/>
        <pt x="113" y="554" on="0"/>
        <pt x="137" y="642" on="0"/>
        <pt x="182" y="696" on="0"/>
        <pt x="278" y="740" on="0"/>
        <pt x="330" y="740" on="1"/>
        <pt x="436" y="740" on="0"/>
        <pt x="579" y="713" on="1"/>
        <pt x="579" y="670" on="1"/>
        <pt x="430" y="683" on="0"/>
        <pt x="346" y="683" on="0"/>
        <pt x="344" y="683" on="1"/>
        <pt x="255" y="683" on="0"/>
        <pt x="212" y="642" on="1"/>
        <pt x="177" y="608" on="0"/>
        <pt x="170" y="534" on="1"/>
        <pt x="167" y="506" on="0"/>
        <pt x="167" y="463" on="1"/>
        <pt x="418" y="458" on="1"/>
        <pt x="418" y="422" on="1"/>
        <pt x="167" y="417" on="1"/>
        <pt x="167" y="302" on="1"/>
        <pt x="418" y="296" on="1"/>
        <pt x="418" y="260" on="1"/>
        <pt x="270" y="258" on="0"/>
        <pt x="203" y="256" on="1"/>
        <pt x="167" y="255" on="1"/>
        <pt x="167" y="156" on="0"/>
        <pt x="214" y="104" on="1"/>
        <pt x="262" y="51" on="0"/>
        <pt x="354" y="51" on="1"/>
        <pt x="442" y="51" on="0"/>
        <pt x="546" y="62" on="1"/>
        <pt x="583" y="66" on="1"/>
        <pt x="583" y="24" on="1"/>
        <pt x="470" y="-6" on="0"/>
        <pt x="344" y="-6" on="1"/>
        <pt x="283" y="-6" on="0"/>
        <pt x="195" y="38" on="0"/>
        <pt x="145" y="92" on="0"/>
        <pt x="110" y="190" on="0"/>
        <pt x="110" y="255" on="1"/>
        <pt x="22" y="261" on="1"/>
        <pt x="22" y="297" on="1"/>
        <pt x="110" y="302" on="1"/>
        <pt x="110" y="417" on="1"/>
        <pt x="22" y="423" on="1"/>
        <pt x="22" y="456" on="1"/>
      </contour>
    </TTGlyph>
    <TTGlyph name="Euro.smcp" xMin="18" yMin="-5" xMax="477" yMax="578">
      <contour>
        <pt x="144" y="199" on="1"/>
        <pt x="144" y="54" on="0"/>
        <pt x="286" y="54" on="1"/>
        <pt x="356" y="54" on="0"/>
        <pt x="476" y="68" on="1"/>
        <pt x="476" y="23" on="1"/>
        <pt x="378" y="-5" on="0"/>
        <pt x="279" y="-5" on="1"/>
        <pt x="228" y="-5" on="0"/>
        <pt x="155" y="33" on="0"/>
        <pt x="114" y="76" on="0"/>
        <pt x="86" y="151" on="0"/>
        <pt x="86" y="199" on="1"/>
        <pt x="18" y="205" on="1"/>
        <pt x="18" y="239" on="1"/>
        <pt x="86" y="245" on="1"/>
        <pt x="86" y="316" on="1"/>
        <pt x="18" y="322" on="1"/>
        <pt x="18" y="354" on="1"/>
        <pt x="86" y="361" on="1"/>
        <pt x="86" y="577" on="0"/>
        <pt x="279" y="577" on="1"/>
        <pt x="347" y="577" on="0"/>
        <pt x="473" y="554" on="1"/>
        <pt x="473" y="509" on="1"/>
        <pt x="343" y="520" on="0"/>
        <pt x="243" y="520" on="0"/>
        <pt x="191" y="500" on="0"/>
        <pt x="163" y="471" on="0"/>
        <pt x="155" y="448" on="1"/>
        <pt x="144" y="414" on="0"/>
        <pt x="144" y="361" on="1"/>
        <pt x="329" y="355" on="1"/>
        <pt x="329" y="321" on="1"/>
        <pt x="144" y="316" on="1"/>
        <pt x="144" y="245" on="1"/>
        <pt x="329" y="240" on="1"/>
        <pt x="329" y="205" on="1"/>
        <pt x="142" y="201" on="0"/>
      </contour>
    </TTGlyph>
    <TTGlyph name="F" xMin="89" yMin="0" xMax="526" yMax="733">
      <contour>
        <pt x="90" y="0" on="1"/>
        <pt x="90" y="602" on="1"/>
        <pt x="90" y="671" on="0"/>
        <pt x="159" y="732" on="0"/>
        <pt x="208" y="732" on="1"/>
        <pt x="212" y="732" on="0"/>
        <pt x="216" y="732" on="1"/>
        <pt x="525" y="718" on="1"/>
        <pt x="525" y="675" on="1"/>
        <pt x="216" y="675" on="1"/>
        <pt x="177" y="675" on="0"/>
        <pt x="147" y="638" on="0"/>
        <pt x="147" y="602" on="1"/>
        <pt x="147" y="393" on="1"/>
        <pt x="485" y="385" on="1"/>
        <pt x="485" y="341" on="1"/>
        <pt x="147" y="333" on="1"/>
        <pt x="147" y="0" on="1"/>
      </contour>
    </TTGlyph>
    <TTGlyph name="G" xMin="61" yMin="-6" xMax="559" yMax="741">
      <contour>
        <pt x="65" y="245" on="0"/>
        <pt x="61" y="321" on="0"/>
        <pt x="61" y="436" on="0"/>
        <pt x="70" y="536" on="0"/>
        <pt x="99" y="636" on="0"/>
        <pt x="148" y="700" on="0"/>
        <pt x="232" y="740" on="0"/>
        <pt x="329" y="740" on="0"/>
        <pt x="490" y="723" on="0"/>
        <pt x="542" y="713" on="1"/>
        <pt x="542" y="668" on="1"/>
        <pt x="541" y="668" on="0"/>
        <pt x="506" y="671" on="0"/>
        <pt x="451" y="675" on="0"/>
        <pt x="420" y="678" on="1"/>
        <pt x="344" y="683" on="0"/>
        <pt x="247" y="683" on="0"/>
        <pt x="187" y="656" on="0"/>
        <pt x="148" y="608" on="0"/>
        <pt x="138" y="568" on="1"/>
        <pt x="118" y="498" on="0"/>
        <pt x="118" y="193" on="0"/>
        <pt x="156" y="122" on="1"/>
        <pt x="195" y="51" on="0"/>
        <pt x="296" y="51" on="1"/>
        <pt x="330" y="51" on="0"/>
        <pt x="432" y="75" on="0"/>
        <pt x="467" y="87" on="1"/>
        <pt x="502" y="99" on="1"/>
        <pt x="502" y="331" on="1"/>
        <pt x="318" y="331" on="1"/>
        <pt x="318" y="369" on="1"/>
        <pt x="392" y="389" on="0"/>
        <pt x="491" y="389" on="1"/>
        <pt x="523" y="389" on="0"/>
        <pt x="559" y="386" on="1"/>
        <pt x="559" y="0" on="1"/>
        <pt x="517" y="0" on="1"/>
        <pt x="504" y="51" on="1"/>
        <pt x="451" y="22" on="0"/>
        <pt x="336" y="-5" on="0"/>
        <pt x="294" y="-5" on="1"/>
        <pt x="293" y="-5" on="0"/>
        <pt x="249" y="-5" on="0"/>
        <pt x="182" y="14" on="0"/>
        <pt x="133" y="48" on="0"/>
        <pt x="98" y="103" on="0"/>
        <pt x="78" y="163" on="0"/>
      </contour>
    </TTGlyph>
    <TTGlyph name="Gbreve" xMin="61" yMin="-6" xMax="559" yMax="914">
      <contour>
        <pt x="223" y="914" on="1"/>
        <pt x="259" y="914" on="1"/>
        <pt x="259" y="881" on="0"/>
        <pt x="306" y="836" on="0"/>
        <pt x="336" y="836" on="1"/>
        <pt x="371" y="836" on="0"/>
        <pt x="417" y="879" on="0"/>
        <pt x="417" y="914" on="1"/>
        <pt x="453" y="914" on="1"/>
        <pt x="453" y="859" on="0"/>
        <pt x="416" y="828" on="1"/>
        <pt x="381" y="800" on="0"/>
        <pt x="293" y="800" on="0"/>
        <pt x="223" y="863" on="0"/>
      </contour>
      <contour>
        <pt x="65" y="245" on="0"/>
        <pt x="61" y="321" on="0"/>
        <pt x="61" y="436" on="0"/>
        <pt x="70" y="536" on="0"/>
        <pt x="99" y="636" on="0"/>
        <pt x="148" y="700" on="0"/>
        <pt x="232" y="740" on="0"/>
        <pt x="329" y="740" on="0"/>
        <pt x="490" y="723" on="0"/>
        <pt x="542" y="713" on="1"/>
        <pt x="542" y="668" on="1"/>
        <pt x="541" y="668" on="0"/>
        <pt x="506" y="671" on="0"/>
        <pt x="451" y="675" on="0"/>
        <pt x="420" y="678" on="1"/>
        <pt x="344" y="683" on="0"/>
        <pt x="247" y="683" on="0"/>
        <pt x="187" y="656" on="0"/>
        <pt x="148" y="608" on="0"/>
        <pt x="138" y="568" on="1"/>
        <pt x="118" y="498" on="0"/>
        <pt x="118" y="193" on="0"/>
        <pt x="156" y="122" on="1"/>
        <pt x="195" y="51" on="0"/>
        <pt x="296" y="51" on="1"/>
        <pt x="330" y="51" on="0"/>
        <pt x="432" y="75" on="0"/>
        <pt x="467" y="87" on="1"/>
        <pt x="502" y="99" on="1"/>
        <pt x="502" y="331" on="1"/>
        <pt x="318" y="331" on="1"/>
        <pt x="318" y="369" on="1"/>
        <pt x="392" y="389" on="0"/>
        <pt x="491" y="389" on="1"/>
        <pt x="523" y="389" on="0"/>
        <pt x="559" y="386" on="1"/>
        <pt x="559" y="0" on="1"/>
        <pt x="517" y="0" on="1"/>
        <pt x="504" y="51" on="1"/>
        <pt x="451" y="22" on="0"/>
        <pt x="336" y="-5" on="0"/>
        <pt x="294" y="-5" on="1"/>
        <pt x="293" y="-5" on="0"/>
        <pt x="249" y="-5" on="0"/>
        <pt x="182" y="14" on="0"/>
        <pt x="133" y="48" on="0"/>
        <pt x="98" y="103" on="0"/>
        <pt x="78" y="163" on="0"/>
      </contour>
    </TTGlyph>
    <TTGlyph name="Gcircumflex" xMin="61" yMin="-6" xMax="559" yMax="930">
      <contour>
        <pt x="190" y="800" on="1"/>
        <pt x="312" y="930" on="1"/>
        <pt x="366" y="930" on="1"/>
        <pt x="476" y="800" on="1"/>
        <pt x="423" y="800" on="1"/>
        <pt x="338" y="886" on="1"/>
        <pt x="244" y="800" on="1"/>
      </contour>
      <contour>
        <pt x="65" y="245" on="0"/>
        <pt x="61" y="321" on="0"/>
        <pt x="61" y="436" on="0"/>
        <pt x="70" y="536" on="0"/>
        <pt x="99" y="636" on="0"/>
        <pt x="148" y="700" on="0"/>
        <pt x="232" y="740" on="0"/>
        <pt x="329" y="740" on="0"/>
        <pt x="490" y="723" on="0"/>
        <pt x="542" y="713" on="1"/>
        <pt x="542" y="668" on="1"/>
        <pt x="541" y="668" on="0"/>
        <pt x="506" y="671" on="0"/>
        <pt x="451" y="675" on="0"/>
        <pt x="420" y="678" on="1"/>
        <pt x="344" y="683" on="0"/>
        <pt x="247" y="683" on="0"/>
        <pt x="187" y="656" on="0"/>
        <pt x="148" y="608" on="0"/>
        <pt x="138" y="568" on="1"/>
        <pt x="118" y="498" on="0"/>
        <pt x="118" y="193" on="0"/>
        <pt x="156" y="122" on="1"/>
        <pt x="195" y="51" on="0"/>
        <pt x="296" y="51" on="1"/>
        <pt x="330" y="51" on="0"/>
        <pt x="432" y="75" on="0"/>
        <pt x="467" y="87" on="1"/>
        <pt x="502" y="99" on="1"/>
        <pt x="502" y="331" on="1"/>
        <pt x="318" y="331" on="1"/>
        <pt x="318" y="369" on="1"/>
        <pt x="392" y="389" on="0"/>
        <pt x="491" y="389" on="1"/>
        <pt x="523" y="389" on="0"/>
        <pt x="559" y="386" on="1"/>
        <pt x="559" y="0" on="1"/>
        <pt x="517" y="0" on="1"/>
        <pt x="504" y="51" on="1"/>
        <pt x="451" y="22" on="0"/>
        <pt x="336" y="-5" on="0"/>
        <pt x="294" y="-5" on="1"/>
        <pt x="293" y="-5" on="0"/>
        <pt x="249" y="-5" on="0"/>
        <pt x="182" y="14" on="0"/>
        <pt x="133" y="48" on="0"/>
        <pt x="98" y="103" on="0"/>
        <pt x="78" y="163" on="0"/>
      </contour>
    </TTGlyph>
    <TTGlyph name="Gcommaaccent" xMin="61" yMin="-235" xMax="559" yMax="740">
      <contour>
        <pt x="318" y="-233" on="1"/>
        <pt x="310" y="-234" on="0"/>
        <pt x="302" y="-234" on="0"/>
        <pt x="293" y="-233" on="1"/>
        <pt x="293" y="-212" on="1"/>
        <pt x="294" y="-212" on="0"/>
        <pt x="294" y="-212" on="1"/>
        <pt x="317" y="-212" on="0"/>
        <pt x="317" y="-189" on="1"/>
        <pt x="317" y="-160" on="1"/>
        <pt x="308" y="-160" on="1"/>
        <pt x="290" y="-160" on="0"/>
        <pt x="290" y="-141" on="1"/>
        <pt x="290" y="-90" on="1"/>
        <pt x="290" y="-70" on="0"/>
        <pt x="308" y="-70" on="1"/>
        <pt x="342" y="-70" on="1"/>
        <pt x="359" y="-70" on="0"/>
        <pt x="359" y="-90" on="1"/>
        <pt x="359" y="-178" on="1"/>
        <pt x="359" y="-225" on="0"/>
      </contour>
      <contour>
        <pt x="65" y="245" on="0"/>
        <pt x="61" y="321" on="0"/>
        <pt x="61" y="436" on="0"/>
        <pt x="70" y="536" on="0"/>
        <pt x="99" y="636" on="0"/>
        <pt x="148" y="700" on="0"/>
        <pt x="232" y="740" on="0"/>
        <pt x="329" y="740" on="0"/>
        <pt x="490" y="723" on="0"/>
        <pt x="542" y="713" on="1"/>
        <pt x="542" y="668" on="1"/>
        <pt x="541" y="668" on="0"/>
        <pt x="506" y="671" on="0"/>
        <pt x="451" y="675" on="0"/>
        <pt x="420" y="678" on="1"/>
        <pt x="344" y="683" on="0"/>
        <pt x="247" y="683" on="0"/>
        <pt x="187" y="656" on="0"/>
        <pt x="148" y="608" on="0"/>
        <pt x="138" y="568" on="1"/>
        <pt x="118" y="498" on="0"/>
        <pt x="118" y="193" on="0"/>
        <pt x="156" y="122" on="1"/>
        <pt x="195" y="51" on="0"/>
        <pt x="296" y="51" on="1"/>
        <pt x="330" y="51" on="0"/>
        <pt x="432" y="75" on="0"/>
        <pt x="467" y="87" on="1"/>
        <pt x="502" y="99" on="1"/>
        <pt x="502" y="331" on="1"/>
        <pt x="318" y="331" on="1"/>
        <pt x="318" y="369" on="1"/>
        <pt x="392" y="389" on="0"/>
        <pt x="491" y="389" on="1"/>
        <pt x="523" y="389" on="0"/>
        <pt x="559" y="386" on="1"/>
        <pt x="559" y="0" on="1"/>
        <pt x="517" y="0" on="1"/>
        <pt x="504" y="51" on="1"/>
        <pt x="451" y="22" on="0"/>
        <pt x="336" y="-5" on="0"/>
        <pt x="294" y="-5" on="1"/>
        <pt x="293" y="-5" on="0"/>
        <pt x="249" y="-5" on="0"/>
        <pt x="182" y="14" on="0"/>
        <pt x="133" y="48" on="0"/>
        <pt x="98" y="103" on="0"/>
        <pt x="78" y="163" on="0"/>
      </contour>
    </TTGlyph>
    <TTGlyph name="Gdotaccent" xMin="61" yMin="-6" xMax="559" yMax="897">
      <contour>
        <pt x="294" y="819" on="1"/>
        <pt x="294" y="876" on="1"/>
        <pt x="294" y="897" on="0"/>
        <pt x="314" y="897" on="1"/>
        <pt x="351" y="897" on="1"/>
        <pt x="370" y="897" on="0"/>
        <pt x="370" y="876" on="1"/>
        <pt x="370" y="819" on="1"/>
        <pt x="370" y="800" on="0"/>
        <pt x="351" y="800" on="1"/>
        <pt x="314" y="800" on="1"/>
        <pt x="302" y="800" on="0"/>
        <pt x="294" y="814" on="0"/>
      </contour>
      <contour>
        <pt x="65" y="245" on="0"/>
        <pt x="61" y="321" on="0"/>
        <pt x="61" y="436" on="0"/>
        <pt x="70" y="536" on="0"/>
        <pt x="99" y="636" on="0"/>
        <pt x="148" y="700" on="0"/>
        <pt x="232" y="740" on="0"/>
        <pt x="329" y="740" on="0"/>
        <pt x="490" y="723" on="0"/>
        <pt x="542" y="713" on="1"/>
        <pt x="542" y="668" on="1"/>
        <pt x="541" y="668" on="0"/>
        <pt x="506" y="671" on="0"/>
        <pt x="451" y="675" on="0"/>
        <pt x="420" y="678" on="1"/>
        <pt x="344" y="683" on="0"/>
        <pt x="247" y="683" on="0"/>
        <pt x="187" y="656" on="0"/>
        <pt x="148" y="608" on="0"/>
        <pt x="138" y="568" on="1"/>
        <pt x="118" y="498" on="0"/>
        <pt x="118" y="193" on="0"/>
        <pt x="156" y="122" on="1"/>
        <pt x="195" y="51" on="0"/>
        <pt x="296" y="51" on="1"/>
        <pt x="330" y="51" on="0"/>
        <pt x="432" y="75" on="0"/>
        <pt x="467" y="87" on="1"/>
        <pt x="502" y="99" on="1"/>
        <pt x="502" y="331" on="1"/>
        <pt x="318" y="331" on="1"/>
        <pt x="318" y="369" on="1"/>
        <pt x="392" y="389" on="0"/>
        <pt x="491" y="389" on="1"/>
        <pt x="523" y="389" on="0"/>
        <pt x="559" y="386" on="1"/>
        <pt x="559" y="0" on="1"/>
        <pt x="517" y="0" on="1"/>
        <pt x="504" y="51" on="1"/>
        <pt x="451" y="22" on="0"/>
        <pt x="336" y="-5" on="0"/>
        <pt x="294" y="-5" on="1"/>
        <pt x="293" y="-5" on="0"/>
        <pt x="249" y="-5" on="0"/>
        <pt x="182" y="14" on="0"/>
        <pt x="133" y="48" on="0"/>
        <pt x="98" y="103" on="0"/>
        <pt x="78" y="163" on="0"/>
      </contour>
    </TTGlyph>
    <TTGlyph name="H" xMin="89" yMin="0" xMax="585" yMax="732">
      <contour>
        <pt x="90" y="0" on="1"/>
        <pt x="90" y="732" on="1"/>
        <pt x="147" y="732" on="1"/>
        <pt x="147" y="382" on="1"/>
        <pt x="527" y="382" on="1"/>
        <pt x="527" y="732" on="1"/>
        <pt x="584" y="732" on="1"/>
        <pt x="584" y="0" on="1"/>
        <pt x="527" y="0" on="1"/>
        <pt x="527" y="326" on="1"/>
        <pt x="147" y="326" on="1"/>
        <pt x="147" y="0" on="1"/>
      </contour>
    </TTGlyph>
    <TTGlyph name="Hbar" xMin="27" yMin="0" xMax="646" yMax="732">
      <contour>
        <pt x="27" y="523" on="1"/>
        <pt x="27" y="564" on="1"/>
        <pt x="90" y="564" on="1"/>
        <pt x="90" y="732" on="1"/>
        <pt x="147" y="732" on="1"/>
        <pt x="147" y="564" on="1"/>
        <pt x="527" y="564" on="1"/>
        <pt x="527" y="732" on="1"/>
        <pt x="584" y="732" on="1"/>
        <pt x="584" y="564" on="1"/>
        <pt x="645" y="564" on="1"/>
        <pt x="645" y="523" on="1"/>
        <pt x="584" y="523" on="1"/>
        <pt x="584" y="0" on="1"/>
        <pt x="527" y="0" on="1"/>
        <pt x="527" y="326" on="1"/>
        <pt x="147" y="326" on="1"/>
        <pt x="147" y="0" on="1"/>
        <pt x="90" y="0" on="1"/>
        <pt x="90" y="523" on="1"/>
      </contour>
      <contour>
        <pt x="147" y="382" on="1"/>
        <pt x="527" y="382" on="1"/>
        <pt x="527" y="523" on="1"/>
        <pt x="147" y="523" on="1"/>
      </contour>
    </TTGlyph>
    <TTGlyph name="Hcircumflex" xMin="89" yMin="0" xMax="585" yMax="927">
      <contour>
        <pt x="194" y="797" on="1"/>
        <pt x="316" y="927" on="1"/>
        <pt x="370" y="927" on="1"/>
        <pt x="479" y="797" on="1"/>
        <pt x="426" y="797" on="1"/>
        <pt x="342" y="883" on="1"/>
        <pt x="248" y="797" on="1"/>
      </contour>
      <contour>
        <pt x="90" y="0" on="1"/>
        <pt x="90" y="732" on="1"/>
        <pt x="147" y="732" on="1"/>
        <pt x="147" y="382" on="1"/>
        <pt x="527" y="382" on="1"/>
        <pt x="527" y="732" on="1"/>
        <pt x="584" y="732" on="1"/>
        <pt x="584" y="0" on="1"/>
        <pt x="527" y="0" on="1"/>
        <pt x="527" y="326" on="1"/>
        <pt x="147" y="326" on="1"/>
        <pt x="147" y="0" on="1"/>
      </contour>
    </TTGlyph>
    <TTGlyph name="I" xMin="89" yMin="0" xMax="147" yMax="732">
      <contour>
        <pt x="90" y="0" on="1"/>
        <pt x="90" y="732" on="1"/>
        <pt x="147" y="732" on="1"/>
        <pt x="147" y="0" on="1"/>
      </contour>
    </TTGlyph>
    <TTGlyph name="Iacute" xMin="89" yMin="0" xMax="277" yMax="930">
      <contour>
        <pt x="93" y="797" on="1"/>
        <pt x="205" y="930" on="1"/>
        <pt x="276" y="930" on="1"/>
        <pt x="143" y="797" on="1"/>
      </contour>
      <contour>
        <pt x="90" y="0" on="1"/>
        <pt x="90" y="732" on="1"/>
        <pt x="147" y="732" on="1"/>
        <pt x="147" y="0" on="1"/>
      </contour>
    </TTGlyph>
    <TTGlyph name="Icircumflex" xMin="-25" yMin="0" xMax="261" yMax="927">
      <contour>
        <pt x="-25" y="797" on="1"/>
        <pt x="98" y="927" on="1"/>
        <pt x="151" y="927" on="1"/>
        <pt x="261" y="797" on="1"/>
        <pt x="208" y="797" on="1"/>
        <pt x="123" y="883" on="1"/>
        <pt x="29" y="797" on="1"/>
      </contour>
      <contour>
        <pt x="90" y="0" on="1"/>
        <pt x="90" y="732" on="1"/>
        <pt x="147" y="732" on="1"/>
        <pt x="147" y="0" on="1"/>
      </contour>
    </TTGlyph>
    <TTGlyph name="Idieresis" xMin="-49" yMin="0" xMax="285" yMax="876">
      <contour>
        <pt x="-49" y="820" on="0"/>
        <pt x="-49" y="853" on="0"/>
        <pt x="-26" y="876" on="0"/>
        <pt x="7" y="876" on="0"/>
        <pt x="30" y="853" on="0"/>
        <pt x="30" y="820" on="0"/>
        <pt x="7" y="797" on="0"/>
        <pt x="-26" y="797" on="0"/>
      </contour>
      <contour>
        <pt x="206" y="820" on="0"/>
        <pt x="206" y="853" on="0"/>
        <pt x="229" y="876" on="0"/>
        <pt x="262" y="876" on="0"/>
        <pt x="285" y="853" on="0"/>
        <pt x="285" y="820" on="0"/>
        <pt x="262" y="797" on="0"/>
        <pt x="229" y="797" on="0"/>
      </contour>
      <contour>
        <pt x="90" y="0" on="1"/>
        <pt x="90" y="732" on="1"/>
        <pt x="147" y="732" on="1"/>
        <pt x="147" y="0" on="1"/>
      </contour>
    </TTGlyph>
    <TTGlyph name="Idotaccent" xMin="80" yMin="0" xMax="156" yMax="894">
      <contour>
        <pt x="80" y="816" on="1"/>
        <pt x="80" y="873" on="1"/>
        <pt x="80" y="894" on="0"/>
        <pt x="100" y="894" on="1"/>
        <pt x="137" y="894" on="1"/>
        <pt x="156" y="894" on="0"/>
        <pt x="156" y="873" on="1"/>
        <pt x="156" y="816" on="1"/>
        <pt x="156" y="797" on="0"/>
        <pt x="137" y="797" on="1"/>
        <pt x="100" y="797" on="1"/>
        <pt x="91" y="797" on="0"/>
        <pt x="80" y="808" on="0"/>
      </contour>
      <contour>
        <pt x="90" y="0" on="1"/>
        <pt x="90" y="732" on="1"/>
        <pt x="147" y="732" on="1"/>
        <pt x="147" y="0" on="1"/>
      </contour>
    </TTGlyph>
    <TTGlyph name="Idotaccent.smcp" xMin="70" yMin="0" xMax="146" yMax="747">
      <contour>
        <pt x="78" y="0" on="1"/>
        <pt x="78" y="570" on="1"/>
        <pt x="135" y="570" on="1"/>
        <pt x="135" y="0" on="1"/>
      </contour>
      <contour>
        <pt x="70" y="669" on="1"/>
        <pt x="70" y="726" on="1"/>
        <pt x="70" y="747" on="0"/>
        <pt x="90" y="747" on="1"/>
        <pt x="127" y="747" on="1"/>
        <pt x="146" y="747" on="0"/>
        <pt x="146" y="726" on="1"/>
        <pt x="146" y="669" on="1"/>
        <pt x="146" y="650" on="0"/>
        <pt x="127" y="650" on="1"/>
        <pt x="90" y="650" on="1"/>
        <pt x="81" y="650" on="0"/>
        <pt x="70" y="661" on="0"/>
      </contour>
    </TTGlyph>
    <TTGlyph name="Igrave" xMin="-41" yMin="0" xMax="147" yMax="930">
      <contour>
        <pt x="-40" y="930" on="1"/>
        <pt x="31" y="930" on="1"/>
        <pt x="143" y="797" on="1"/>
        <pt x="93" y="797" on="1"/>
      </contour>
      <contour>
        <pt x="90" y="0" on="1"/>
        <pt x="90" y="732" on="1"/>
        <pt x="147" y="732" on="1"/>
        <pt x="147" y="0" on="1"/>
      </contour>
    </TTGlyph>
    <TTGlyph name="Imacron" xMin="-22" yMin="0" xMax="258" yMax="844">
      <contour>
        <pt x="-21" y="797" on="1"/>
        <pt x="-21" y="844" on="1"/>
        <pt x="257" y="844" on="1"/>
        <pt x="257" y="797" on="1"/>
      </contour>
      <contour>
        <pt x="90" y="0" on="1"/>
        <pt x="90" y="732" on="1"/>
        <pt x="147" y="732" on="1"/>
        <pt x="147" y="0" on="1"/>
      </contour>
    </TTGlyph>
    <TTGlyph name="Iogonek" xMin="22" yMin="-183" xMax="148" yMax="732">
      <contour>
        <pt x="135" y="0" on="1"/>
        <pt x="70" y="-43" on="0"/>
        <pt x="70" y="-87" on="1"/>
        <pt x="70" y="-103" on="0"/>
        <pt x="81" y="-115" on="1"/>
        <pt x="101" y="-136" on="0"/>
        <pt x="148" y="-137" on="1"/>
        <pt x="148" y="-181" on="1"/>
        <pt x="138" y="-182" on="0"/>
        <pt x="106" y="-182" on="0"/>
        <pt x="55" y="-164" on="0"/>
        <pt x="40" y="-143" on="1"/>
        <pt x="22" y="-117" on="0"/>
        <pt x="22" y="-69" on="0"/>
        <pt x="62" y="-18" on="0"/>
        <pt x="105" y="0" on="1"/>
      </contour>
      <contour>
        <pt x="90" y="0" on="1"/>
        <pt x="90" y="732" on="1"/>
        <pt x="147" y="732" on="1"/>
        <pt x="147" y="0" on="1"/>
      </contour>
    </TTGlyph>
    <TTGlyph name="Itilde" xMin="-51" yMin="0" xMax="288" yMax="897">
      <contour>
        <pt x="210" y="805" on="1"/>
        <pt x="169" y="785" on="0"/>
        <pt x="113" y="822" on="1"/>
        <pt x="78" y="845" on="0"/>
        <pt x="43" y="845" on="0"/>
        <pt x="14" y="834" on="0"/>
        <pt x="-26" y="810" on="0"/>
        <pt x="-36" y="805" on="1"/>
        <pt x="-51" y="835" on="1"/>
        <pt x="-26" y="856" on="0"/>
        <pt x="-12" y="866" on="1"/>
        <pt x="28" y="897" on="0"/>
        <pt x="88" y="895" on="0"/>
        <pt x="164" y="849" on="0"/>
        <pt x="181" y="849" on="0"/>
        <pt x="191" y="850" on="0"/>
        <pt x="202" y="853" on="0"/>
        <pt x="212" y="857" on="0"/>
        <pt x="224" y="863" on="0"/>
        <pt x="233" y="868" on="0"/>
        <pt x="246" y="875" on="0"/>
        <pt x="254" y="880" on="0"/>
        <pt x="267" y="888" on="0"/>
        <pt x="270" y="890" on="1"/>
        <pt x="287" y="860" on="1"/>
        <pt x="284" y="858" on="0"/>
        <pt x="262" y="839" on="0"/>
        <pt x="253" y="832" on="0"/>
        <pt x="243" y="824" on="1"/>
        <pt x="231" y="815" on="0"/>
      </contour>
      <contour>
        <pt x="90" y="0" on="1"/>
        <pt x="90" y="732" on="1"/>
        <pt x="147" y="732" on="1"/>
        <pt x="147" y="0" on="1"/>
      </contour>
    </TTGlyph>
    <TTGlyph name="J" xMin="39" yMin="-6" xMax="293" yMax="732">
      <contour>
        <pt x="43" y="61" on="1"/>
        <pt x="105" y="45" on="0"/>
        <pt x="136" y="45" on="0"/>
        <pt x="152" y="46" on="0"/>
        <pt x="185" y="51" on="0"/>
        <pt x="207" y="69" on="0"/>
        <pt x="216" y="82" on="1"/>
        <pt x="236" y="108" on="0"/>
        <pt x="236" y="165" on="1"/>
        <pt x="236" y="732" on="1"/>
        <pt x="293" y="732" on="1"/>
        <pt x="293" y="165" on="1"/>
        <pt x="293" y="53" on="0"/>
        <pt x="241" y="18" on="1"/>
        <pt x="205" y="-6" on="0"/>
        <pt x="80" y="-6" on="0"/>
        <pt x="39" y="21" on="1"/>
      </contour>
    </TTGlyph>
    <TTGlyph name="Jcircumflex" xMin="39" yMin="-6" xMax="407" yMax="927">
      <contour>
        <pt x="122" y="797" on="1"/>
        <pt x="244" y="927" on="1"/>
        <pt x="298" y="927" on="1"/>
        <pt x="407" y="797" on="1"/>
        <pt x="354" y="797" on="1"/>
        <pt x="269" y="883" on="1"/>
        <pt x="175" y="797" on="1"/>
      </contour>
      <contour>
        <pt x="43" y="61" on="1"/>
        <pt x="105" y="45" on="0"/>
        <pt x="146" y="45" on="0"/>
        <pt x="167" y="47" on="0"/>
        <pt x="201" y="61" on="0"/>
        <pt x="212" y="75" on="1"/>
        <pt x="236" y="106" on="0"/>
        <pt x="236" y="165" on="1"/>
        <pt x="236" y="732" on="1"/>
        <pt x="293" y="732" on="1"/>
        <pt x="293" y="165" on="1"/>
        <pt x="293" y="53" on="0"/>
        <pt x="241" y="18" on="1"/>
        <pt x="205" y="-6" on="0"/>
        <pt x="80" y="-6" on="0"/>
        <pt x="39" y="21" on="1"/>
      </contour>
    </TTGlyph>
    <TTGlyph name="K" xMin="89" yMin="0" xMax="556" yMax="732">
      <contour>
        <pt x="90" y="0" on="1"/>
        <pt x="90" y="732" on="1"/>
        <pt x="147" y="732" on="1"/>
        <pt x="147" y="396" on="1"/>
        <pt x="252" y="396" on="1"/>
        <pt x="486" y="732" on="1"/>
        <pt x="555" y="732" on="1"/>
        <pt x="305" y="367" on="1"/>
        <pt x="555" y="0" on="1"/>
        <pt x="486" y="0" on="1"/>
        <pt x="252" y="338" on="1"/>
        <pt x="148" y="338" on="1"/>
        <pt x="148" y="0" on="1"/>
      </contour>
    </TTGlyph>
    <TTGlyph name="Kcommaaccent" xMin="89" yMin="-230" xMax="556" yMax="732">
      <contour>
        <pt x="305" y="-228" on="1"/>
        <pt x="297" y="-230" on="0"/>
        <pt x="289" y="-230" on="0"/>
        <pt x="280" y="-228" on="1"/>
        <pt x="280" y="-207" on="1"/>
        <pt x="281" y="-207" on="0"/>
        <pt x="281" y="-207" on="1"/>
        <pt x="303" y="-207" on="0"/>
        <pt x="303" y="-184" on="1"/>
        <pt x="303" y="-155" on="1"/>
        <pt x="295" y="-155" on="1"/>
        <pt x="276" y="-155" on="0"/>
        <pt x="276" y="-136" on="1"/>
        <pt x="276" y="-85" on="1"/>
        <pt x="276" y="-65" on="0"/>
        <pt x="295" y="-65" on="1"/>
        <pt x="328" y="-65" on="1"/>
        <pt x="346" y="-65" on="0"/>
        <pt x="346" y="-85" on="1"/>
        <pt x="346" y="-173" on="1"/>
        <pt x="346" y="-221" on="0"/>
      </contour>
      <contour>
        <pt x="90" y="0" on="1"/>
        <pt x="90" y="732" on="1"/>
        <pt x="147" y="732" on="1"/>
        <pt x="147" y="396" on="1"/>
        <pt x="252" y="396" on="1"/>
        <pt x="486" y="732" on="1"/>
        <pt x="555" y="732" on="1"/>
        <pt x="305" y="367" on="1"/>
        <pt x="555" y="0" on="1"/>
        <pt x="486" y="0" on="1"/>
        <pt x="252" y="338" on="1"/>
        <pt x="148" y="338" on="1"/>
        <pt x="148" y="0" on="1"/>
      </contour>
    </TTGlyph>
    <TTGlyph name="L" xMin="89" yMin="0" xMax="522" yMax="732">
      <contour>
        <pt x="90" y="126" on="1"/>
        <pt x="90" y="732" on="1"/>
        <pt x="147" y="732" on="1"/>
        <pt x="147" y="126" on="1"/>
        <pt x="147" y="79" on="0"/>
        <pt x="173" y="66" on="1"/>
        <pt x="193" y="57" on="0"/>
        <pt x="226" y="57" on="1"/>
        <pt x="521" y="57" on="1"/>
        <pt x="521" y="0" on="1"/>
        <pt x="226" y="0" on="1"/>
        <pt x="126" y="0" on="0"/>
        <pt x="101" y="59" on="1"/>
        <pt x="90" y="86" on="0"/>
      </contour>
    </TTGlyph>
    <TTGlyph name="Lacute" xMin="89" yMin="0" xMax="522" yMax="929">
      <contour>
        <pt x="94" y="795" on="1"/>
        <pt x="206" y="928" on="1"/>
        <pt x="278" y="928" on="1"/>
        <pt x="145" y="795" on="1"/>
      </contour>
      <contour>
        <pt x="90" y="126" on="1"/>
        <pt x="90" y="732" on="1"/>
        <pt x="147" y="732" on="1"/>
        <pt x="147" y="126" on="1"/>
        <pt x="147" y="79" on="0"/>
        <pt x="173" y="66" on="1"/>
        <pt x="193" y="57" on="0"/>
        <pt x="226" y="57" on="1"/>
        <pt x="521" y="57" on="1"/>
        <pt x="521" y="0" on="1"/>
        <pt x="226" y="0" on="1"/>
        <pt x="126" y="0" on="0"/>
        <pt x="101" y="59" on="1"/>
        <pt x="90" y="86" on="0"/>
      </contour>
    </TTGlyph>
    <TTGlyph name="Lcaron" xMin="89" yMin="0" xMax="522" yMax="772">
      <contour>
        <pt x="90" y="126" on="1"/>
        <pt x="90" y="732" on="1"/>
        <pt x="147" y="732" on="1"/>
        <pt x="147" y="126" on="1"/>
        <pt x="147" y="79" on="0"/>
        <pt x="173" y="66" on="1"/>
        <pt x="193" y="57" on="0"/>
        <pt x="226" y="57" on="1"/>
        <pt x="521" y="57" on="1"/>
        <pt x="521" y="0" on="1"/>
        <pt x="226" y="0" on="1"/>
        <pt x="126" y="0" on="0"/>
        <pt x="101" y="59" on="1"/>
        <pt x="90" y="86" on="0"/>
      </contour>
      <contour>
        <pt x="284" y="772" on="1"/>
        <pt x="284" y="705" on="1"/>
        <pt x="275" y="571" on="1"/>
        <pt x="236" y="571" on="1"/>
        <pt x="226" y="705" on="1"/>
        <pt x="226" y="772" on="1"/>
      </contour>
    </TTGlyph>
    <TTGlyph name="Lcommaaccent" xMin="89" yMin="-229" xMax="522" yMax="732">
      <contour>
        <pt x="315" y="-227" on="0"/>
        <pt x="301" y="-229" on="0"/>
        <pt x="294" y="-229" on="0"/>
        <pt x="288" y="-229" on="0"/>
        <pt x="282" y="-228" on="1"/>
        <pt x="282" y="-207" on="1"/>
        <pt x="282" y="-207" on="0"/>
        <pt x="283" y="-207" on="1"/>
        <pt x="305" y="-207" on="0"/>
        <pt x="305" y="-184" on="1"/>
        <pt x="305" y="-155" on="1"/>
        <pt x="297" y="-155" on="1"/>
        <pt x="278" y="-155" on="0"/>
        <pt x="278" y="-136" on="1"/>
        <pt x="278" y="-85" on="1"/>
        <pt x="278" y="-65" on="0"/>
        <pt x="297" y="-65" on="1"/>
        <pt x="330" y="-65" on="1"/>
        <pt x="348" y="-65" on="0"/>
        <pt x="348" y="-85" on="1"/>
        <pt x="348" y="-173" on="1"/>
        <pt x="348" y="-201" on="0"/>
        <pt x="329" y="-219" on="0"/>
      </contour>
      <contour>
        <pt x="90" y="126" on="1"/>
        <pt x="90" y="732" on="1"/>
        <pt x="147" y="732" on="1"/>
        <pt x="147" y="126" on="1"/>
        <pt x="147" y="79" on="0"/>
        <pt x="173" y="66" on="1"/>
        <pt x="193" y="57" on="0"/>
        <pt x="226" y="57" on="1"/>
        <pt x="521" y="57" on="1"/>
        <pt x="521" y="0" on="1"/>
        <pt x="226" y="0" on="1"/>
        <pt x="126" y="0" on="0"/>
        <pt x="101" y="59" on="1"/>
        <pt x="90" y="86" on="0"/>
      </contour>
    </TTGlyph>
    <TTGlyph name="Lslash" xMin="6" yMin="0" xMax="522" yMax="733">
      <contour>
        <pt x="90" y="732" on="1"/>
        <pt x="147" y="732" on="1"/>
        <pt x="147" y="442" on="1"/>
        <pt x="280" y="499" on="1"/>
        <pt x="279" y="452" on="1"/>
        <pt x="147" y="394" on="1"/>
        <pt x="147" y="126" on="1"/>
        <pt x="147" y="79" on="0"/>
        <pt x="173" y="66" on="1"/>
        <pt x="193" y="57" on="0"/>
        <pt x="226" y="57" on="1"/>
        <pt x="521" y="57" on="1"/>
        <pt x="521" y="0" on="1"/>
        <pt x="226" y="0" on="1"/>
        <pt x="126" y="0" on="0"/>
        <pt x="101" y="59" on="1"/>
        <pt x="90" y="86" on="0"/>
        <pt x="90" y="126" on="1"/>
        <pt x="90" y="370" on="1"/>
        <pt x="7" y="334" on="1"/>
        <pt x="7" y="381" on="1"/>
        <pt x="90" y="417" on="1"/>
      </contour>
    </TTGlyph>
    <TTGlyph name="M" xMin="61" yMin="0" xMax="743" yMax="732">
      <contour>
        <pt x="61" y="0" on="1"/>
        <pt x="121" y="732" on="1"/>
        <pt x="200" y="732" on="1"/>
        <pt x="401" y="95" on="1"/>
        <pt x="597" y="732" on="1"/>
        <pt x="677" y="732" on="1"/>
        <pt x="742" y="0" on="1"/>
        <pt x="685" y="0" on="1"/>
        <pt x="628" y="634" on="1"/>
        <pt x="432" y="0" on="1"/>
        <pt x="373" y="0" on="1"/>
        <pt x="171" y="634" on="1"/>
        <pt x="118" y="0" on="1"/>
      </contour>
    </TTGlyph>
    <TTGlyph name="M.salt" xMin="61" yMin="0" xMax="747" yMax="740">
      <contour>
        <pt x="101" y="652" on="1"/>
        <pt x="101" y="688" on="0"/>
        <pt x="149" y="739" on="0"/>
        <pt x="191" y="739" on="1"/>
        <pt x="205" y="739" on="0"/>
        <pt x="253" y="712" on="0"/>
        <pt x="263" y="680" on="1"/>
        <pt x="386" y="270" on="1"/>
        <pt x="392" y="250" on="0"/>
        <pt x="419" y="252" on="0"/>
        <pt x="424" y="270" on="1"/>
        <pt x="535" y="681" on="1"/>
        <pt x="544" y="713" on="0"/>
        <pt x="592" y="740" on="0"/>
        <pt x="606" y="740" on="1"/>
        <pt x="648" y="740" on="0"/>
        <pt x="696" y="689" on="0"/>
        <pt x="697" y="653" on="1"/>
        <pt x="746" y="0" on="1"/>
        <pt x="689" y="0" on="1"/>
        <pt x="639" y="651" on="1"/>
        <pt x="638" y="663" on="0"/>
        <pt x="624" y="679" on="0"/>
        <pt x="608" y="681" on="0"/>
        <pt x="591" y="671" on="0"/>
        <pt x="588" y="660" on="1"/>
        <pt x="478" y="250" on="1"/>
        <pt x="471" y="224" on="0"/>
        <pt x="450" y="210" on="1"/>
        <pt x="429" y="195" on="0"/>
        <pt x="383" y="195" on="0"/>
        <pt x="341" y="223" on="0"/>
        <pt x="333" y="250" on="1"/>
        <pt x="209" y="659" on="1"/>
        <pt x="203" y="680" on="0"/>
        <pt x="187" y="680" on="1"/>
        <pt x="184" y="680" on="0"/>
        <pt x="181" y="679" on="1"/>
        <pt x="161" y="675" on="0"/>
        <pt x="159" y="651" on="1"/>
        <pt x="117" y="0" on="1"/>
        <pt x="61" y="0" on="1"/>
      </contour>
    </TTGlyph>
    <TTGlyph name="N" xMin="89" yMin="0" xMax="613" yMax="732">
      <contour>
        <pt x="90" y="0" on="1"/>
        <pt x="90" y="732" on="1"/>
        <pt x="148" y="732" on="1"/>
        <pt x="555" y="107" on="1"/>
        <pt x="555" y="732" on="1"/>
        <pt x="612" y="732" on="1"/>
        <pt x="612" y="0" on="1"/>
        <pt x="555" y="0" on="1"/>
        <pt x="147" y="625" on="1"/>
        <pt x="147" y="0" on="1"/>
      </contour>
    </TTGlyph>
    <TTGlyph name="N.salt" xMin="89" yMin="-8" xMax="622" yMax="739">
      <contour>
        <pt x="90" y="0" on="1"/>
        <pt x="90" y="652" on="1"/>
        <pt x="90" y="688" on="0"/>
        <pt x="110" y="711" on="1"/>
        <pt x="135" y="738" on="0"/>
        <pt x="163" y="738" on="1"/>
        <pt x="231" y="738" on="0"/>
        <pt x="255" y="680" on="1"/>
        <pt x="509" y="75" on="1"/>
        <pt x="515" y="58" on="0"/>
        <pt x="542" y="50" on="0"/>
        <pt x="564" y="67" on="0"/>
        <pt x="564" y="83" on="1"/>
        <pt x="564" y="732" on="1"/>
        <pt x="621" y="732" on="1"/>
        <pt x="621" y="79" on="1"/>
        <pt x="621" y="47" on="0"/>
        <pt x="601" y="24" on="1"/>
        <pt x="573" y="-7" on="0"/>
        <pt x="537" y="-7" on="1"/>
        <pt x="518" y="-7" on="0"/>
        <pt x="471" y="16" on="0"/>
        <pt x="458" y="50" on="1"/>
        <pt x="202" y="659" on="1"/>
        <pt x="196" y="674" on="0"/>
        <pt x="169" y="682" on="0"/>
        <pt x="147" y="664" on="0"/>
        <pt x="147" y="647" on="1"/>
        <pt x="147" y="0" on="1"/>
      </contour>
    </TTGlyph>
    <TTGlyph name="Nacute" xMin="89" yMin="0" xMax="613" yMax="930">
      <contour>
        <pt x="335" y="797" on="1"/>
        <pt x="446" y="930" on="1"/>
        <pt x="518" y="930" on="1"/>
        <pt x="385" y="797" on="1"/>
      </contour>
      <contour>
        <pt x="90" y="0" on="1"/>
        <pt x="90" y="732" on="1"/>
        <pt x="148" y="732" on="1"/>
        <pt x="555" y="107" on="1"/>
        <pt x="555" y="732" on="1"/>
        <pt x="612" y="732" on="1"/>
        <pt x="612" y="0" on="1"/>
        <pt x="555" y="0" on="1"/>
        <pt x="147" y="625" on="1"/>
        <pt x="147" y="0" on="1"/>
      </contour>
    </TTGlyph>
    <TTGlyph name="Nacute.salt" xMin="89" yMin="-8" xMax="622" yMax="930">
      <contour>
        <pt x="349" y="797" on="1"/>
        <pt x="461" y="930" on="1"/>
        <pt x="532" y="930" on="1"/>
        <pt x="399" y="797" on="1"/>
      </contour>
      <contour>
        <pt x="90" y="0" on="1"/>
        <pt x="90" y="652" on="1"/>
        <pt x="90" y="688" on="0"/>
        <pt x="110" y="711" on="1"/>
        <pt x="135" y="738" on="0"/>
        <pt x="163" y="738" on="1"/>
        <pt x="231" y="738" on="0"/>
        <pt x="255" y="680" on="1"/>
        <pt x="509" y="75" on="1"/>
        <pt x="515" y="58" on="0"/>
        <pt x="542" y="50" on="0"/>
        <pt x="564" y="67" on="0"/>
        <pt x="564" y="83" on="1"/>
        <pt x="564" y="732" on="1"/>
        <pt x="621" y="732" on="1"/>
        <pt x="621" y="79" on="1"/>
        <pt x="621" y="47" on="0"/>
        <pt x="601" y="24" on="1"/>
        <pt x="573" y="-7" on="0"/>
        <pt x="537" y="-7" on="1"/>
        <pt x="518" y="-7" on="0"/>
        <pt x="471" y="16" on="0"/>
        <pt x="458" y="50" on="1"/>
        <pt x="202" y="659" on="1"/>
        <pt x="196" y="674" on="0"/>
        <pt x="169" y="682" on="0"/>
        <pt x="147" y="664" on="0"/>
        <pt x="147" y="647" on="1"/>
        <pt x="147" y="0" on="1"/>
      </contour>
    </TTGlyph>
    <TTGlyph name="Ncaron" xMin="89" yMin="0" xMax="613" yMax="927">
      <contour>
        <pt x="215" y="927" on="1"/>
        <pt x="268" y="927" on="1"/>
        <pt x="359" y="841" on="1"/>
        <pt x="447" y="927" on="1"/>
        <pt x="500" y="927" on="1"/>
        <pt x="387" y="797" on="1"/>
        <pt x="332" y="797" on="1"/>
      </contour>
      <contour>
        <pt x="90" y="0" on="1"/>
        <pt x="90" y="732" on="1"/>
        <pt x="148" y="732" on="1"/>
        <pt x="555" y="107" on="1"/>
        <pt x="555" y="732" on="1"/>
        <pt x="612" y="732" on="1"/>
        <pt x="612" y="0" on="1"/>
        <pt x="555" y="0" on="1"/>
        <pt x="147" y="625" on="1"/>
        <pt x="147" y="0" on="1"/>
      </contour>
    </TTGlyph>
    <TTGlyph name="Ncaron.salt" xMin="89" yMin="-8" xMax="622" yMax="927">
      <contour>
        <pt x="229" y="927" on="1"/>
        <pt x="282" y="927" on="1"/>
        <pt x="373" y="841" on="1"/>
        <pt x="461" y="927" on="1"/>
        <pt x="514" y="927" on="1"/>
        <pt x="401" y="797" on="1"/>
        <pt x="346" y="797" on="1"/>
      </contour>
      <contour>
        <pt x="90" y="0" on="1"/>
        <pt x="90" y="652" on="1"/>
        <pt x="90" y="688" on="0"/>
        <pt x="110" y="711" on="1"/>
        <pt x="135" y="738" on="0"/>
        <pt x="163" y="738" on="1"/>
        <pt x="231" y="738" on="0"/>
        <pt x="255" y="680" on="1"/>
        <pt x="509" y="75" on="1"/>
        <pt x="515" y="58" on="0"/>
        <pt x="542" y="50" on="0"/>
        <pt x="564" y="67" on="0"/>
        <pt x="564" y="83" on="1"/>
        <pt x="564" y="732" on="1"/>
        <pt x="621" y="732" on="1"/>
        <pt x="621" y="79" on="1"/>
        <pt x="621" y="47" on="0"/>
        <pt x="601" y="24" on="1"/>
        <pt x="573" y="-7" on="0"/>
        <pt x="537" y="-7" on="1"/>
        <pt x="518" y="-7" on="0"/>
        <pt x="471" y="16" on="0"/>
        <pt x="458" y="50" on="1"/>
        <pt x="202" y="659" on="1"/>
        <pt x="196" y="674" on="0"/>
        <pt x="169" y="682" on="0"/>
        <pt x="147" y="664" on="0"/>
        <pt x="147" y="647" on="1"/>
        <pt x="147" y="0" on="1"/>
      </contour>
    </TTGlyph>
    <TTGlyph name="Ncommaaccent" xMin="89" yMin="-231" xMax="613" yMax="732">
      <contour>
        <pt x="345" y="-229" on="1"/>
        <pt x="337" y="-231" on="0"/>
        <pt x="329" y="-231" on="0"/>
        <pt x="320" y="-230" on="1"/>
        <pt x="320" y="-209" on="1"/>
        <pt x="320" y="-209" on="0"/>
        <pt x="321" y="-209" on="1"/>
        <pt x="343" y="-209" on="0"/>
        <pt x="343" y="-186" on="1"/>
        <pt x="343" y="-156" on="1"/>
        <pt x="334" y="-156" on="1"/>
        <pt x="316" y="-156" on="0"/>
        <pt x="316" y="-138" on="1"/>
        <pt x="316" y="-87" on="1"/>
        <pt x="316" y="-67" on="0"/>
        <pt x="334" y="-67" on="1"/>
        <pt x="368" y="-67" on="1"/>
        <pt x="386" y="-67" on="0"/>
        <pt x="386" y="-87" on="1"/>
        <pt x="386" y="-174" on="1"/>
        <pt x="386" y="-222" on="0"/>
      </contour>
      <contour>
        <pt x="90" y="0" on="1"/>
        <pt x="90" y="732" on="1"/>
        <pt x="148" y="732" on="1"/>
        <pt x="555" y="107" on="1"/>
        <pt x="555" y="732" on="1"/>
        <pt x="612" y="732" on="1"/>
        <pt x="612" y="0" on="1"/>
        <pt x="555" y="0" on="1"/>
        <pt x="147" y="625" on="1"/>
        <pt x="147" y="0" on="1"/>
      </contour>
    </TTGlyph>
    <TTGlyph name="Ncommaaccent.salt" xMin="89" yMin="-236" xMax="622" yMax="739">
      <contour>
        <pt x="334" y="-234" on="1"/>
        <pt x="326" y="-236" on="0"/>
        <pt x="318" y="-236" on="0"/>
        <pt x="309" y="-235" on="1"/>
        <pt x="309" y="-214" on="1"/>
        <pt x="310" y="-214" on="0"/>
        <pt x="310" y="-214" on="1"/>
        <pt x="332" y="-214" on="0"/>
        <pt x="332" y="-191" on="1"/>
        <pt x="332" y="-161" on="1"/>
        <pt x="324" y="-161" on="1"/>
        <pt x="305" y="-161" on="0"/>
        <pt x="305" y="-143" on="1"/>
        <pt x="305" y="-92" on="1"/>
        <pt x="305" y="-72" on="0"/>
        <pt x="324" y="-72" on="1"/>
        <pt x="357" y="-72" on="1"/>
        <pt x="375" y="-72" on="0"/>
        <pt x="375" y="-92" on="1"/>
        <pt x="375" y="-179" on="1"/>
        <pt x="375" y="-227" on="0"/>
      </contour>
      <contour>
        <pt x="90" y="0" on="1"/>
        <pt x="90" y="652" on="1"/>
        <pt x="90" y="688" on="0"/>
        <pt x="110" y="711" on="1"/>
        <pt x="135" y="738" on="0"/>
        <pt x="163" y="738" on="1"/>
        <pt x="231" y="738" on="0"/>
        <pt x="255" y="680" on="1"/>
        <pt x="509" y="75" on="1"/>
        <pt x="515" y="58" on="0"/>
        <pt x="542" y="50" on="0"/>
        <pt x="564" y="67" on="0"/>
        <pt x="564" y="83" on="1"/>
        <pt x="564" y="732" on="1"/>
        <pt x="621" y="732" on="1"/>
        <pt x="621" y="79" on="1"/>
        <pt x="621" y="47" on="0"/>
        <pt x="601" y="24" on="1"/>
        <pt x="573" y="-7" on="0"/>
        <pt x="537" y="-7" on="1"/>
        <pt x="518" y="-7" on="0"/>
        <pt x="471" y="16" on="0"/>
        <pt x="458" y="50" on="1"/>
        <pt x="202" y="659" on="1"/>
        <pt x="196" y="674" on="0"/>
        <pt x="169" y="682" on="0"/>
        <pt x="147" y="664" on="0"/>
        <pt x="147" y="647" on="1"/>
        <pt x="147" y="0" on="1"/>
      </contour>
    </TTGlyph>
    <TTGlyph name="Ntilde" xMin="89" yMin="0" xMax="613" yMax="897">
      <contour>
        <pt x="365" y="810" on="1"/>
        <pt x="344" y="822" on="0"/>
        <pt x="309" y="845" on="0"/>
        <pt x="295" y="845" on="0"/>
        <pt x="280" y="845" on="0"/>
        <pt x="253" y="837" on="0"/>
        <pt x="236" y="827" on="0"/>
        <pt x="207" y="810" on="0"/>
        <pt x="197" y="805" on="1"/>
        <pt x="182" y="835" on="1"/>
        <pt x="207" y="856" on="0"/>
        <pt x="221" y="866" on="1"/>
        <pt x="261" y="897" on="0"/>
        <pt x="321" y="895" on="0"/>
        <pt x="396" y="849" on="0"/>
        <pt x="415" y="849" on="0"/>
        <pt x="428" y="851" on="0"/>
        <pt x="443" y="857" on="0"/>
        <pt x="455" y="861" on="0"/>
        <pt x="473" y="872" on="0"/>
        <pt x="481" y="877" on="0"/>
        <pt x="501" y="889" on="0"/>
        <pt x="503" y="890" on="1"/>
        <pt x="520" y="860" on="1"/>
        <pt x="517" y="858" on="0"/>
        <pt x="495" y="839" on="0"/>
        <pt x="486" y="832" on="0"/>
        <pt x="465" y="816" on="0"/>
        <pt x="452" y="809" on="0"/>
        <pt x="443" y="805" on="1"/>
        <pt x="406" y="787" on="0"/>
      </contour>
      <contour>
        <pt x="90" y="0" on="1"/>
        <pt x="90" y="732" on="1"/>
        <pt x="148" y="732" on="1"/>
        <pt x="555" y="107" on="1"/>
        <pt x="555" y="732" on="1"/>
        <pt x="612" y="732" on="1"/>
        <pt x="612" y="0" on="1"/>
        <pt x="555" y="0" on="1"/>
        <pt x="147" y="625" on="1"/>
        <pt x="147" y="0" on="1"/>
      </contour>
    </TTGlyph>
    <TTGlyph name="Ntilde.salt" xMin="89" yMin="-8" xMax="622" yMax="900">
      <contour>
        <pt x="197" y="838" on="1"/>
        <pt x="222" y="859" on="0"/>
        <pt x="236" y="869" on="1"/>
        <pt x="276" y="900" on="0"/>
        <pt x="311" y="900" on="1"/>
        <pt x="340" y="899" on="0"/>
        <pt x="408" y="852" on="0"/>
        <pt x="431" y="852" on="0"/>
        <pt x="444" y="854" on="0"/>
        <pt x="459" y="860" on="0"/>
        <pt x="470" y="865" on="0"/>
        <pt x="488" y="875" on="0"/>
        <pt x="496" y="880" on="0"/>
        <pt x="516" y="892" on="0"/>
        <pt x="519" y="894" on="1"/>
        <pt x="535" y="864" on="1"/>
        <pt x="532" y="861" on="0"/>
        <pt x="510" y="842" on="0"/>
        <pt x="501" y="835" on="0"/>
        <pt x="481" y="819" on="0"/>
        <pt x="468" y="813" on="0"/>
        <pt x="458" y="808" on="1"/>
        <pt x="412" y="786" on="0"/>
        <pt x="360" y="826" on="1"/>
        <pt x="330" y="849" on="0"/>
        <pt x="291" y="848" on="0"/>
        <pt x="262" y="838" on="0"/>
        <pt x="222" y="813" on="0"/>
        <pt x="212" y="808" on="1"/>
      </contour>
      <contour>
        <pt x="90" y="0" on="1"/>
        <pt x="90" y="652" on="1"/>
        <pt x="90" y="688" on="0"/>
        <pt x="110" y="711" on="1"/>
        <pt x="135" y="738" on="0"/>
        <pt x="163" y="738" on="1"/>
        <pt x="231" y="738" on="0"/>
        <pt x="255" y="680" on="1"/>
        <pt x="509" y="75" on="1"/>
        <pt x="515" y="58" on="0"/>
        <pt x="542" y="50" on="0"/>
        <pt x="564" y="67" on="0"/>
        <pt x="564" y="83" on="1"/>
        <pt x="564" y="732" on="1"/>
        <pt x="621" y="732" on="1"/>
        <pt x="621" y="79" on="1"/>
        <pt x="621" y="47" on="0"/>
        <pt x="601" y="24" on="1"/>
        <pt x="573" y="-7" on="0"/>
        <pt x="537" y="-7" on="1"/>
        <pt x="518" y="-7" on="0"/>
        <pt x="471" y="16" on="0"/>
        <pt x="458" y="50" on="1"/>
        <pt x="202" y="659" on="1"/>
        <pt x="196" y="674" on="0"/>
        <pt x="169" y="682" on="0"/>
        <pt x="147" y="664" on="0"/>
        <pt x="147" y="647" on="1"/>
        <pt x="147" y="0" on="1"/>
      </contour>
    </TTGlyph>
    <TTGlyph name="O" xMin="72" yMin="-4" xMax="629" yMax="737">
      <contour>
        <pt x="73" y="362" on="1"/>
        <pt x="73" y="433" on="0"/>
        <pt x="87" y="546" on="0"/>
        <pt x="110" y="625" on="0"/>
        <pt x="149" y="681" on="0"/>
        <pt x="191" y="713" on="0"/>
        <pt x="222" y="722" on="1"/>
        <pt x="273" y="737" on="0"/>
        <pt x="393" y="737" on="0"/>
        <pt x="451" y="731" on="0"/>
        <pt x="513" y="713" on="0"/>
        <pt x="554" y="681" on="0"/>
        <pt x="593" y="625" on="0"/>
        <pt x="604" y="586" on="1"/>
        <pt x="629" y="499" on="0"/>
        <pt x="629" y="281" on="0"/>
        <pt x="613" y="163" on="0"/>
        <pt x="579" y="83" on="0"/>
        <pt x="537" y="32" on="0"/>
        <pt x="503" y="19" on="1"/>
        <pt x="446" y="-4" on="0"/>
        <pt x="351" y="-4" on="1"/>
        <pt x="216" y="-4" on="0"/>
        <pt x="166" y="35" on="1"/>
        <pt x="115" y="74" on="0"/>
        <pt x="96" y="143" on="1"/>
        <pt x="73" y="227" on="0"/>
      </contour>
      <contour>
        <pt x="142" y="548" on="0"/>
        <pt x="130" y="438" on="0"/>
        <pt x="130" y="302" on="0"/>
        <pt x="137" y="215" on="0"/>
        <pt x="152" y="148" on="0"/>
        <pt x="179" y="104" on="0"/>
        <pt x="211" y="74" on="0"/>
        <pt x="235" y="67" on="1"/>
        <pt x="279" y="53" on="0"/>
        <pt x="403" y="53" on="0"/>
        <pt x="470" y="66" on="0"/>
        <pt x="526" y="103" on="0"/>
        <pt x="541" y="138" on="1"/>
        <pt x="572" y="210" on="0"/>
        <pt x="572" y="361" on="1"/>
        <pt x="572" y="518" on="0"/>
        <pt x="546" y="580" on="1"/>
        <pt x="537" y="604" on="0"/>
        <pt x="518" y="637" on="0"/>
        <pt x="486" y="659" on="0"/>
        <pt x="459" y="672" on="0"/>
        <pt x="437" y="675" on="1"/>
        <pt x="403" y="680" on="0"/>
        <pt x="309" y="680" on="0"/>
        <pt x="263" y="676" on="0"/>
        <pt x="203" y="658" on="0"/>
        <pt x="173" y="617" on="0"/>
      </contour>
    </TTGlyph>
    <TTGlyph name="OE" xMin="72" yMin="-5" xMax="998" yMax="737">
      <contour>
        <pt x="142" y="548" on="0"/>
        <pt x="130" y="438" on="0"/>
        <pt x="130" y="302" on="0"/>
        <pt x="137" y="215" on="0"/>
        <pt x="152" y="148" on="0"/>
        <pt x="178" y="104" on="0"/>
        <pt x="210" y="74" on="0"/>
        <pt x="235" y="67" on="1"/>
        <pt x="279" y="53" on="0"/>
        <pt x="395" y="53" on="0"/>
        <pt x="456" y="62" on="0"/>
        <pt x="508" y="88" on="0"/>
        <pt x="540" y="131" on="0"/>
        <pt x="551" y="167" on="1"/>
        <pt x="571" y="230" on="0"/>
        <pt x="571" y="364" on="1"/>
        <pt x="571" y="459" on="0"/>
        <pt x="557" y="542" on="0"/>
        <pt x="546" y="588" on="0"/>
        <pt x="526" y="622" on="0"/>
        <pt x="507" y="647" on="0"/>
        <pt x="476" y="664" on="0"/>
        <pt x="450" y="674" on="0"/>
        <pt x="430" y="676" on="1"/>
        <pt x="398" y="680" on="0"/>
        <pt x="308" y="680" on="0"/>
        <pt x="263" y="676" on="0"/>
        <pt x="203" y="658" on="0"/>
        <pt x="173" y="617" on="0"/>
      </contour>
      <contour>
        <pt x="85" y="182" on="0"/>
        <pt x="73" y="290" on="0"/>
        <pt x="73" y="433" on="0"/>
        <pt x="87" y="546" on="0"/>
        <pt x="109" y="625" on="0"/>
        <pt x="149" y="681" on="0"/>
        <pt x="191" y="713" on="0"/>
        <pt x="222" y="722" on="1"/>
        <pt x="272" y="737" on="0"/>
        <pt x="394" y="737" on="0"/>
        <pt x="454" y="730" on="0"/>
        <pt x="485" y="720" on="1"/>
        <pt x="545" y="701" on="0"/>
        <pt x="578" y="639" on="1"/>
        <pt x="587" y="689" on="0"/>
        <pt x="649" y="732" on="0"/>
        <pt x="689" y="732" on="1"/>
        <pt x="693" y="732" on="0"/>
        <pt x="697" y="732" on="1"/>
        <pt x="997" y="718" on="1"/>
        <pt x="997" y="675" on="1"/>
        <pt x="697" y="675" on="1"/>
        <pt x="646" y="675" on="0"/>
        <pt x="634" y="641" on="1"/>
        <pt x="628" y="625" on="0"/>
        <pt x="628" y="602" on="1"/>
        <pt x="628" y="418" on="0"/>
        <pt x="629" y="393" on="1"/>
        <pt x="957" y="385" on="1"/>
        <pt x="957" y="341" on="1"/>
        <pt x="629" y="333" on="1"/>
        <pt x="628" y="123" on="1"/>
        <pt x="629" y="76" on="0"/>
        <pt x="654" y="63" on="1"/>
        <pt x="675" y="54" on="0"/>
        <pt x="707" y="54" on="1"/>
        <pt x="997" y="54" on="1"/>
        <pt x="997" y="12" on="1"/>
        <pt x="707" y="-3" on="1"/>
        <pt x="701" y="-3" on="0"/>
        <pt x="695" y="-3" on="1"/>
        <pt x="650" y="-3" on="0"/>
        <pt x="586" y="33" on="0"/>
        <pt x="577" y="90" on="1"/>
        <pt x="545" y="34" on="0"/>
        <pt x="438" y="-4" on="0"/>
        <pt x="308" y="-4" on="0"/>
        <pt x="249" y="1" on="0"/>
        <pt x="186" y="19" on="0"/>
        <pt x="145" y="51" on="0"/>
        <pt x="107" y="104" on="0"/>
      </contour>
    </TTGlyph>
    <TTGlyph name="Oacute" xMin="72" yMin="-4" xMax="629" yMax="930">
      <contour>
        <pt x="326" y="797" on="1"/>
        <pt x="438" y="930" on="1"/>
        <pt x="510" y="930" on="1"/>
        <pt x="377" y="797" on="1"/>
      </contour>
      <contour>
        <pt x="73" y="362" on="1"/>
        <pt x="73" y="433" on="0"/>
        <pt x="87" y="546" on="0"/>
        <pt x="110" y="625" on="0"/>
        <pt x="149" y="681" on="0"/>
        <pt x="191" y="713" on="0"/>
        <pt x="222" y="722" on="1"/>
        <pt x="273" y="737" on="0"/>
        <pt x="393" y="737" on="0"/>
        <pt x="451" y="731" on="0"/>
        <pt x="513" y="713" on="0"/>
        <pt x="554" y="681" on="0"/>
        <pt x="593" y="625" on="0"/>
        <pt x="604" y="586" on="1"/>
        <pt x="629" y="499" on="0"/>
        <pt x="629" y="281" on="0"/>
        <pt x="613" y="163" on="0"/>
        <pt x="579" y="83" on="0"/>
        <pt x="537" y="32" on="0"/>
        <pt x="503" y="19" on="1"/>
        <pt x="446" y="-4" on="0"/>
        <pt x="351" y="-4" on="1"/>
        <pt x="216" y="-4" on="0"/>
        <pt x="166" y="35" on="1"/>
        <pt x="115" y="74" on="0"/>
        <pt x="96" y="143" on="1"/>
        <pt x="73" y="227" on="0"/>
      </contour>
      <contour>
        <pt x="142" y="548" on="0"/>
        <pt x="130" y="438" on="0"/>
        <pt x="130" y="302" on="0"/>
        <pt x="137" y="215" on="0"/>
        <pt x="152" y="148" on="0"/>
        <pt x="179" y="104" on="0"/>
        <pt x="211" y="74" on="0"/>
        <pt x="235" y="67" on="1"/>
        <pt x="279" y="53" on="0"/>
        <pt x="403" y="53" on="0"/>
        <pt x="470" y="66" on="0"/>
        <pt x="526" y="103" on="0"/>
        <pt x="541" y="138" on="1"/>
        <pt x="572" y="210" on="0"/>
        <pt x="572" y="361" on="1"/>
        <pt x="572" y="518" on="0"/>
        <pt x="546" y="580" on="1"/>
        <pt x="537" y="604" on="0"/>
        <pt x="518" y="637" on="0"/>
        <pt x="486" y="659" on="0"/>
        <pt x="459" y="672" on="0"/>
        <pt x="437" y="675" on="1"/>
        <pt x="403" y="680" on="0"/>
        <pt x="309" y="680" on="0"/>
        <pt x="263" y="676" on="0"/>
        <pt x="203" y="658" on="0"/>
        <pt x="173" y="617" on="0"/>
      </contour>
    </TTGlyph>
    <TTGlyph name="Ocircumflex" xMin="72" yMin="-4" xMax="629" yMax="927">
      <contour>
        <pt x="209" y="797" on="1"/>
        <pt x="331" y="927" on="1"/>
        <pt x="385" y="927" on="1"/>
        <pt x="494" y="797" on="1"/>
        <pt x="441" y="797" on="1"/>
        <pt x="356" y="883" on="1"/>
        <pt x="262" y="797" on="1"/>
      </contour>
      <contour>
        <pt x="73" y="362" on="1"/>
        <pt x="73" y="433" on="0"/>
        <pt x="87" y="546" on="0"/>
        <pt x="110" y="625" on="0"/>
        <pt x="149" y="681" on="0"/>
        <pt x="191" y="713" on="0"/>
        <pt x="222" y="722" on="1"/>
        <pt x="273" y="737" on="0"/>
        <pt x="393" y="737" on="0"/>
        <pt x="451" y="731" on="0"/>
        <pt x="513" y="713" on="0"/>
        <pt x="554" y="681" on="0"/>
        <pt x="593" y="625" on="0"/>
        <pt x="604" y="586" on="1"/>
        <pt x="629" y="499" on="0"/>
        <pt x="629" y="281" on="0"/>
        <pt x="613" y="163" on="0"/>
        <pt x="579" y="83" on="0"/>
        <pt x="537" y="32" on="0"/>
        <pt x="503" y="19" on="1"/>
        <pt x="446" y="-4" on="0"/>
        <pt x="351" y="-4" on="1"/>
        <pt x="216" y="-4" on="0"/>
        <pt x="166" y="35" on="1"/>
        <pt x="115" y="74" on="0"/>
        <pt x="96" y="143" on="1"/>
        <pt x="73" y="227" on="0"/>
      </contour>
      <contour>
        <pt x="142" y="548" on="0"/>
        <pt x="130" y="438" on="0"/>
        <pt x="130" y="302" on="0"/>
        <pt x="137" y="215" on="0"/>
        <pt x="152" y="148" on="0"/>
        <pt x="179" y="104" on="0"/>
        <pt x="211" y="74" on="0"/>
        <pt x="235" y="67" on="1"/>
        <pt x="279" y="53" on="0"/>
        <pt x="403" y="53" on="0"/>
        <pt x="470" y="66" on="0"/>
        <pt x="526" y="103" on="0"/>
        <pt x="541" y="138" on="1"/>
        <pt x="572" y="210" on="0"/>
        <pt x="572" y="361" on="1"/>
        <pt x="572" y="518" on="0"/>
        <pt x="546" y="580" on="1"/>
        <pt x="537" y="604" on="0"/>
        <pt x="518" y="637" on="0"/>
        <pt x="486" y="659" on="0"/>
        <pt x="459" y="672" on="0"/>
        <pt x="437" y="675" on="1"/>
        <pt x="403" y="680" on="0"/>
        <pt x="309" y="680" on="0"/>
        <pt x="263" y="676" on="0"/>
        <pt x="203" y="658" on="0"/>
        <pt x="173" y="617" on="0"/>
      </contour>
    </TTGlyph>
    <TTGlyph name="Odieresis" xMin="72" yMin="-4" xMax="629" yMax="876">
      <contour>
        <pt x="185" y="820" on="0"/>
        <pt x="185" y="853" on="0"/>
        <pt x="208" y="876" on="0"/>
        <pt x="241" y="876" on="0"/>
        <pt x="263" y="853" on="0"/>
        <pt x="263" y="826" on="0"/>
        <pt x="258" y="817" on="1"/>
        <pt x="247" y="797" on="0"/>
        <pt x="208" y="797" on="0"/>
      </contour>
      <contour>
        <pt x="463" y="797" on="0"/>
        <pt x="439" y="820" on="0"/>
        <pt x="439" y="848" on="0"/>
        <pt x="445" y="856" on="1"/>
        <pt x="456" y="876" on="0"/>
        <pt x="496" y="876" on="0"/>
        <pt x="518" y="853" on="0"/>
        <pt x="518" y="820" on="0"/>
        <pt x="496" y="797" on="0"/>
      </contour>
      <contour>
        <pt x="73" y="362" on="1"/>
        <pt x="73" y="433" on="0"/>
        <pt x="87" y="546" on="0"/>
        <pt x="110" y="625" on="0"/>
        <pt x="149" y="681" on="0"/>
        <pt x="191" y="713" on="0"/>
        <pt x="222" y="722" on="1"/>
        <pt x="273" y="737" on="0"/>
        <pt x="393" y="737" on="0"/>
        <pt x="451" y="731" on="0"/>
        <pt x="513" y="713" on="0"/>
        <pt x="554" y="681" on="0"/>
        <pt x="593" y="625" on="0"/>
        <pt x="604" y="586" on="1"/>
        <pt x="629" y="499" on="0"/>
        <pt x="629" y="281" on="0"/>
        <pt x="613" y="163" on="0"/>
        <pt x="579" y="83" on="0"/>
        <pt x="537" y="32" on="0"/>
        <pt x="503" y="19" on="1"/>
        <pt x="446" y="-4" on="0"/>
        <pt x="351" y="-4" on="1"/>
        <pt x="216" y="-4" on="0"/>
        <pt x="166" y="35" on="1"/>
        <pt x="115" y="74" on="0"/>
        <pt x="96" y="143" on="1"/>
        <pt x="73" y="227" on="0"/>
      </contour>
      <contour>
        <pt x="142" y="548" on="0"/>
        <pt x="130" y="438" on="0"/>
        <pt x="130" y="302" on="0"/>
        <pt x="137" y="215" on="0"/>
        <pt x="152" y="148" on="0"/>
        <pt x="179" y="104" on="0"/>
        <pt x="211" y="74" on="0"/>
        <pt x="235" y="67" on="1"/>
        <pt x="279" y="53" on="0"/>
        <pt x="403" y="53" on="0"/>
        <pt x="470" y="66" on="0"/>
        <pt x="526" y="103" on="0"/>
        <pt x="541" y="138" on="1"/>
        <pt x="572" y="210" on="0"/>
        <pt x="572" y="361" on="1"/>
        <pt x="572" y="518" on="0"/>
        <pt x="546" y="580" on="1"/>
        <pt x="537" y="604" on="0"/>
        <pt x="518" y="637" on="0"/>
        <pt x="486" y="659" on="0"/>
        <pt x="459" y="672" on="0"/>
        <pt x="437" y="675" on="1"/>
        <pt x="403" y="680" on="0"/>
        <pt x="309" y="680" on="0"/>
        <pt x="263" y="676" on="0"/>
        <pt x="203" y="658" on="0"/>
        <pt x="173" y="617" on="0"/>
      </contour>
    </TTGlyph>
    <TTGlyph name="Ograve" xMin="72" yMin="-4" xMax="629" yMax="930">
      <contour>
        <pt x="193" y="930" on="1"/>
        <pt x="265" y="930" on="1"/>
        <pt x="377" y="797" on="1"/>
        <pt x="326" y="797" on="1"/>
      </contour>
      <contour>
        <pt x="73" y="362" on="1"/>
        <pt x="73" y="433" on="0"/>
        <pt x="87" y="546" on="0"/>
        <pt x="110" y="625" on="0"/>
        <pt x="149" y="681" on="0"/>
        <pt x="191" y="713" on="0"/>
        <pt x="222" y="722" on="1"/>
        <pt x="273" y="737" on="0"/>
        <pt x="393" y="737" on="0"/>
        <pt x="451" y="731" on="0"/>
        <pt x="513" y="713" on="0"/>
        <pt x="554" y="681" on="0"/>
        <pt x="593" y="625" on="0"/>
        <pt x="604" y="586" on="1"/>
        <pt x="629" y="499" on="0"/>
        <pt x="629" y="281" on="0"/>
        <pt x="613" y="163" on="0"/>
        <pt x="579" y="83" on="0"/>
        <pt x="537" y="32" on="0"/>
        <pt x="503" y="19" on="1"/>
        <pt x="446" y="-4" on="0"/>
        <pt x="351" y="-4" on="1"/>
        <pt x="216" y="-4" on="0"/>
        <pt x="166" y="35" on="1"/>
        <pt x="115" y="74" on="0"/>
        <pt x="96" y="143" on="1"/>
        <pt x="73" y="227" on="0"/>
      </contour>
      <contour>
        <pt x="142" y="548" on="0"/>
        <pt x="130" y="438" on="0"/>
        <pt x="130" y="302" on="0"/>
        <pt x="137" y="215" on="0"/>
        <pt x="152" y="148" on="0"/>
        <pt x="179" y="104" on="0"/>
        <pt x="211" y="74" on="0"/>
        <pt x="235" y="67" on="1"/>
        <pt x="279" y="53" on="0"/>
        <pt x="403" y="53" on="0"/>
        <pt x="470" y="66" on="0"/>
        <pt x="526" y="103" on="0"/>
        <pt x="541" y="138" on="1"/>
        <pt x="572" y="210" on="0"/>
        <pt x="572" y="361" on="1"/>
        <pt x="572" y="518" on="0"/>
        <pt x="546" y="580" on="1"/>
        <pt x="537" y="604" on="0"/>
        <pt x="518" y="637" on="0"/>
        <pt x="486" y="659" on="0"/>
        <pt x="459" y="672" on="0"/>
        <pt x="437" y="675" on="1"/>
        <pt x="403" y="680" on="0"/>
        <pt x="309" y="680" on="0"/>
        <pt x="263" y="676" on="0"/>
        <pt x="203" y="658" on="0"/>
        <pt x="173" y="617" on="0"/>
      </contour>
    </TTGlyph>
    <TTGlyph name="Ohungarumlaut" xMin="72" yMin="-4" xMax="629" yMax="930">
      <contour>
        <pt x="258" y="797" on="1"/>
        <pt x="370" y="930" on="1"/>
        <pt x="441" y="930" on="1"/>
        <pt x="308" y="797" on="1"/>
      </contour>
      <contour>
        <pt x="394" y="797" on="1"/>
        <pt x="506" y="930" on="1"/>
        <pt x="578" y="930" on="1"/>
        <pt x="445" y="797" on="1"/>
      </contour>
      <contour>
        <pt x="73" y="362" on="1"/>
        <pt x="73" y="433" on="0"/>
        <pt x="87" y="546" on="0"/>
        <pt x="110" y="625" on="0"/>
        <pt x="149" y="681" on="0"/>
        <pt x="191" y="713" on="0"/>
        <pt x="222" y="722" on="1"/>
        <pt x="273" y="737" on="0"/>
        <pt x="393" y="737" on="0"/>
        <pt x="451" y="731" on="0"/>
        <pt x="513" y="713" on="0"/>
        <pt x="554" y="681" on="0"/>
        <pt x="593" y="625" on="0"/>
        <pt x="604" y="586" on="1"/>
        <pt x="629" y="499" on="0"/>
        <pt x="629" y="281" on="0"/>
        <pt x="613" y="163" on="0"/>
        <pt x="579" y="83" on="0"/>
        <pt x="537" y="32" on="0"/>
        <pt x="503" y="19" on="1"/>
        <pt x="446" y="-4" on="0"/>
        <pt x="351" y="-4" on="1"/>
        <pt x="216" y="-4" on="0"/>
        <pt x="166" y="35" on="1"/>
        <pt x="115" y="74" on="0"/>
        <pt x="96" y="143" on="1"/>
        <pt x="73" y="227" on="0"/>
      </contour>
      <contour>
        <pt x="142" y="548" on="0"/>
        <pt x="130" y="438" on="0"/>
        <pt x="130" y="302" on="0"/>
        <pt x="137" y="215" on="0"/>
        <pt x="152" y="148" on="0"/>
        <pt x="179" y="104" on="0"/>
        <pt x="211" y="74" on="0"/>
        <pt x="235" y="67" on="1"/>
        <pt x="279" y="53" on="0"/>
        <pt x="403" y="53" on="0"/>
        <pt x="470" y="66" on="0"/>
        <pt x="526" y="103" on="0"/>
        <pt x="541" y="138" on="1"/>
        <pt x="572" y="210" on="0"/>
        <pt x="572" y="361" on="1"/>
        <pt x="572" y="518" on="0"/>
        <pt x="546" y="580" on="1"/>
        <pt x="537" y="604" on="0"/>
        <pt x="518" y="637" on="0"/>
        <pt x="486" y="659" on="0"/>
        <pt x="459" y="672" on="0"/>
        <pt x="437" y="675" on="1"/>
        <pt x="403" y="680" on="0"/>
        <pt x="309" y="680" on="0"/>
        <pt x="263" y="676" on="0"/>
        <pt x="203" y="658" on="0"/>
        <pt x="173" y="617" on="0"/>
      </contour>
    </TTGlyph>
    <TTGlyph name="Omacron" xMin="72" yMin="-4" xMax="629" yMax="844">
      <contour>
        <pt x="212" y="797" on="1"/>
        <pt x="212" y="844" on="1"/>
        <pt x="491" y="844" on="1"/>
        <pt x="491" y="797" on="1"/>
      </contour>
      <contour>
        <pt x="73" y="362" on="1"/>
        <pt x="73" y="433" on="0"/>
        <pt x="87" y="546" on="0"/>
        <pt x="110" y="625" on="0"/>
        <pt x="149" y="681" on="0"/>
        <pt x="191" y="713" on="0"/>
        <pt x="222" y="722" on="1"/>
        <pt x="273" y="737" on="0"/>
        <pt x="393" y="737" on="0"/>
        <pt x="451" y="731" on="0"/>
        <pt x="513" y="713" on="0"/>
        <pt x="554" y="681" on="0"/>
        <pt x="593" y="625" on="0"/>
        <pt x="604" y="586" on="1"/>
        <pt x="629" y="499" on="0"/>
        <pt x="629" y="281" on="0"/>
        <pt x="613" y="163" on="0"/>
        <pt x="579" y="83" on="0"/>
        <pt x="537" y="32" on="0"/>
        <pt x="503" y="19" on="1"/>
        <pt x="446" y="-4" on="0"/>
        <pt x="351" y="-4" on="1"/>
        <pt x="216" y="-4" on="0"/>
        <pt x="166" y="35" on="1"/>
        <pt x="115" y="74" on="0"/>
        <pt x="96" y="143" on="1"/>
        <pt x="73" y="227" on="0"/>
      </contour>
      <contour>
        <pt x="142" y="548" on="0"/>
        <pt x="130" y="438" on="0"/>
        <pt x="130" y="302" on="0"/>
        <pt x="137" y="215" on="0"/>
        <pt x="152" y="148" on="0"/>
        <pt x="179" y="104" on="0"/>
        <pt x="211" y="74" on="0"/>
        <pt x="235" y="67" on="1"/>
        <pt x="279" y="53" on="0"/>
        <pt x="403" y="53" on="0"/>
        <pt x="470" y="66" on="0"/>
        <pt x="526" y="103" on="0"/>
        <pt x="541" y="138" on="1"/>
        <pt x="572" y="210" on="0"/>
        <pt x="572" y="361" on="1"/>
        <pt x="572" y="518" on="0"/>
        <pt x="546" y="580" on="1"/>
        <pt x="537" y="604" on="0"/>
        <pt x="518" y="637" on="0"/>
        <pt x="486" y="659" on="0"/>
        <pt x="459" y="672" on="0"/>
        <pt x="437" y="675" on="1"/>
        <pt x="403" y="680" on="0"/>
        <pt x="309" y="680" on="0"/>
        <pt x="263" y="676" on="0"/>
        <pt x="203" y="658" on="0"/>
        <pt x="173" y="617" on="0"/>
      </contour>
    </TTGlyph>
    <TTGlyph name="Omega" xMin="72" yMin="0" xMax="711" yMax="739">
      <contour>
        <pt x="74" y="310" on="0"/>
        <pt x="72" y="352" on="0"/>
        <pt x="72" y="438" on="0"/>
        <pt x="88" y="530" on="0"/>
        <pt x="131" y="626" on="0"/>
        <pt x="200" y="695" on="0"/>
        <pt x="317" y="739" on="0"/>
        <pt x="438" y="739" on="0"/>
        <pt x="516" y="724" on="0"/>
        <pt x="576" y="694" on="0"/>
        <pt x="625" y="655" on="0"/>
        <pt x="659" y="604" on="0"/>
        <pt x="684" y="548" on="0"/>
        <pt x="692" y="515" on="1"/>
        <pt x="706" y="453" on="0"/>
        <pt x="706" y="334" on="0"/>
        <pt x="695" y="254" on="0"/>
        <pt x="680" y="210" on="1"/>
        <pt x="651" y="121" on="0"/>
        <pt x="563" y="59" on="1"/>
        <pt x="711" y="48" on="1"/>
        <pt x="711" y="0" on="1"/>
        <pt x="483" y="0" on="1"/>
        <pt x="483" y="60" on="1"/>
        <pt x="586" y="128" on="0"/>
        <pt x="619" y="209" on="1"/>
        <pt x="649" y="280" on="0"/>
        <pt x="649" y="385" on="1"/>
        <pt x="649" y="550" on="0"/>
        <pt x="573" y="622" on="1"/>
        <pt x="511" y="682" on="0"/>
        <pt x="392" y="682" on="1"/>
        <pt x="129" y="682" on="0"/>
        <pt x="129" y="380" on="1"/>
        <pt x="129" y="324" on="0"/>
        <pt x="140" y="251" on="0"/>
        <pt x="176" y="174" on="0"/>
        <pt x="242" y="103" on="0"/>
        <pt x="298" y="60" on="1"/>
        <pt x="298" y="0" on="1"/>
        <pt x="78" y="0" on="1"/>
        <pt x="78" y="49" on="1"/>
        <pt x="228" y="60" on="1"/>
        <pt x="151" y="113" on="0"/>
        <pt x="120" y="167" on="1"/>
        <pt x="103" y="196" on="0"/>
        <pt x="83" y="244" on="0"/>
      </contour>
    </TTGlyph>
    <TTGlyph name="Oslash" xMin="72" yMin="-4" xMax="629" yMax="737">
      <contour>
        <pt x="73" y="361" on="1"/>
        <pt x="73" y="492" on="0"/>
        <pt x="92" y="565" on="1"/>
        <pt x="114" y="646" on="0"/>
        <pt x="148" y="678" on="1"/>
        <pt x="188" y="716" on="0"/>
        <pt x="235" y="727" on="1"/>
        <pt x="283" y="737" on="0"/>
        <pt x="416" y="737" on="0"/>
        <pt x="504" y="720" on="0"/>
        <pt x="536" y="694" on="1"/>
        <pt x="561" y="732" on="1"/>
        <pt x="607" y="732" on="1"/>
        <pt x="564" y="666" on="1"/>
        <pt x="629" y="583" on="0"/>
        <pt x="629" y="361" on="1"/>
        <pt x="629" y="199" on="0"/>
        <pt x="596" y="123" on="1"/>
        <pt x="579" y="83" on="0"/>
        <pt x="536" y="32" on="0"/>
        <pt x="502" y="19" on="1"/>
        <pt x="445" y="-4" on="0"/>
        <pt x="283" y="-4" on="0"/>
        <pt x="194" y="13" on="0"/>
        <pt x="162" y="38" on="1"/>
        <pt x="137" y="0" on="1"/>
        <pt x="90" y="0" on="1"/>
        <pt x="133" y="67" on="1"/>
        <pt x="73" y="146" on="0"/>
      </contour>
      <contour>
        <pt x="168" y="122" on="1"/>
        <pt x="505" y="645" on="1"/>
        <pt x="480" y="667" on="0"/>
        <pt x="410" y="680" on="0"/>
        <pt x="308" y="680" on="0"/>
        <pt x="263" y="676" on="0"/>
        <pt x="203" y="658" on="0"/>
        <pt x="173" y="617" on="0"/>
        <pt x="157" y="582" on="1"/>
        <pt x="130" y="521" on="0"/>
        <pt x="130" y="186" on="0"/>
      </contour>
      <contour>
        <pt x="194" y="90" on="1"/>
        <pt x="238" y="53" on="0"/>
        <pt x="351" y="53" on="1"/>
        <pt x="402" y="53" on="0"/>
        <pt x="470" y="66" on="0"/>
        <pt x="526" y="103" on="0"/>
        <pt x="541" y="138" on="1"/>
        <pt x="572" y="210" on="0"/>
        <pt x="572" y="545" on="0"/>
        <pt x="531" y="613" on="1"/>
      </contour>
    </TTGlyph>
    <TTGlyph name="Otilde" xMin="72" yMin="-4" xMax="629" yMax="897">
      <contour>
        <pt x="182" y="835" on="1"/>
        <pt x="207" y="856" on="0"/>
        <pt x="221" y="866" on="1"/>
        <pt x="261" y="897" on="0"/>
        <pt x="316" y="896" on="0"/>
        <pt x="360" y="872" on="0"/>
        <pt x="398" y="849" on="0"/>
        <pt x="416" y="849" on="0"/>
        <pt x="429" y="851" on="0"/>
        <pt x="444" y="857" on="0"/>
        <pt x="455" y="861" on="0"/>
        <pt x="473" y="872" on="0"/>
        <pt x="481" y="877" on="0"/>
        <pt x="501" y="889" on="0"/>
        <pt x="504" y="890" on="1"/>
        <pt x="520" y="860" on="1"/>
        <pt x="518" y="858" on="0"/>
        <pt x="495" y="839" on="0"/>
        <pt x="486" y="832" on="0"/>
        <pt x="466" y="816" on="0"/>
        <pt x="453" y="809" on="0"/>
        <pt x="444" y="805" on="1"/>
        <pt x="397" y="783" on="0"/>
        <pt x="346" y="822" on="1"/>
        <pt x="315" y="845" on="0"/>
        <pt x="276" y="845" on="0"/>
        <pt x="247" y="834" on="0"/>
        <pt x="208" y="810" on="0"/>
        <pt x="198" y="805" on="1"/>
      </contour>
      <contour>
        <pt x="73" y="362" on="1"/>
        <pt x="73" y="433" on="0"/>
        <pt x="87" y="546" on="0"/>
        <pt x="110" y="625" on="0"/>
        <pt x="149" y="681" on="0"/>
        <pt x="191" y="713" on="0"/>
        <pt x="222" y="722" on="1"/>
        <pt x="273" y="737" on="0"/>
        <pt x="393" y="737" on="0"/>
        <pt x="451" y="731" on="0"/>
        <pt x="513" y="713" on="0"/>
        <pt x="554" y="681" on="0"/>
        <pt x="593" y="625" on="0"/>
        <pt x="604" y="586" on="1"/>
        <pt x="629" y="499" on="0"/>
        <pt x="629" y="281" on="0"/>
        <pt x="613" y="163" on="0"/>
        <pt x="579" y="83" on="0"/>
        <pt x="537" y="32" on="0"/>
        <pt x="503" y="19" on="1"/>
        <pt x="446" y="-4" on="0"/>
        <pt x="351" y="-4" on="1"/>
        <pt x="216" y="-4" on="0"/>
        <pt x="166" y="35" on="1"/>
        <pt x="115" y="74" on="0"/>
        <pt x="96" y="143" on="1"/>
        <pt x="73" y="227" on="0"/>
      </contour>
      <contour>
        <pt x="142" y="548" on="0"/>
        <pt x="130" y="438" on="0"/>
        <pt x="130" y="302" on="0"/>
        <pt x="137" y="215" on="0"/>
        <pt x="152" y="148" on="0"/>
        <pt x="179" y="104" on="0"/>
        <pt x="211" y="74" on="0"/>
        <pt x="235" y="67" on="1"/>
        <pt x="279" y="53" on="0"/>
        <pt x="403" y="53" on="0"/>
        <pt x="470" y="66" on="0"/>
        <pt x="526" y="103" on="0"/>
        <pt x="541" y="138" on="1"/>
        <pt x="572" y="210" on="0"/>
        <pt x="572" y="361" on="1"/>
        <pt x="572" y="518" on="0"/>
        <pt x="546" y="580" on="1"/>
        <pt x="537" y="604" on="0"/>
        <pt x="518" y="637" on="0"/>
        <pt x="486" y="659" on="0"/>
        <pt x="459" y="672" on="0"/>
        <pt x="437" y="675" on="1"/>
        <pt x="403" y="680" on="0"/>
        <pt x="309" y="680" on="0"/>
        <pt x="263" y="676" on="0"/>
        <pt x="203" y="658" on="0"/>
        <pt x="173" y="617" on="0"/>
      </contour>
    </TTGlyph>
    <TTGlyph name="P" xMin="67" yMin="0" xMax="535" yMax="732">
      <contour>
        <pt x="67" y="0" on="1"/>
        <pt x="67" y="732" on="1"/>
        <pt x="360" y="732" on="1"/>
        <pt x="453" y="732" on="0"/>
        <pt x="496" y="675" on="1"/>
        <pt x="535" y="624" on="0"/>
        <pt x="535" y="524" on="1"/>
        <pt x="535" y="340" on="0"/>
        <pt x="426" y="313" on="1"/>
        <pt x="398" y="306" on="0"/>
        <pt x="330" y="306" on="0"/>
        <pt x="128" y="321" on="0"/>
        <pt x="124" y="323" on="1"/>
        <pt x="124" y="0" on="1"/>
      </contour>
      <contour>
        <pt x="124" y="364" on="1"/>
        <pt x="360" y="364" on="1"/>
        <pt x="410" y="364" on="0"/>
        <pt x="441" y="390" on="1"/>
        <pt x="477" y="422" on="0"/>
        <pt x="477" y="521" on="1"/>
        <pt x="477" y="632" on="0"/>
        <pt x="421" y="661" on="1"/>
        <pt x="396" y="674" on="0"/>
        <pt x="360" y="674" on="1"/>
        <pt x="124" y="674" on="1"/>
      </contour>
    </TTGlyph>
    <TTGlyph name="Q" xMin="72" yMin="-140" xMax="629" yMax="737">
      <contour>
        <pt x="73" y="299" on="0"/>
        <pt x="73" y="434" on="0"/>
        <pt x="86" y="546" on="0"/>
        <pt x="109" y="625" on="0"/>
        <pt x="148" y="681" on="0"/>
        <pt x="189" y="713" on="0"/>
        <pt x="220" y="722" on="1"/>
        <pt x="271" y="737" on="0"/>
        <pt x="391" y="737" on="0"/>
        <pt x="449" y="731" on="0"/>
        <pt x="512" y="713" on="0"/>
        <pt x="553" y="681" on="0"/>
        <pt x="593" y="625" on="0"/>
        <pt x="604" y="586" on="1"/>
        <pt x="629" y="499" on="0"/>
        <pt x="629" y="281" on="0"/>
        <pt x="613" y="163" on="0"/>
        <pt x="579" y="83" on="0"/>
        <pt x="536" y="32" on="0"/>
        <pt x="502" y="19" on="1"/>
        <pt x="444" y="-4" on="0"/>
        <pt x="350" y="-4" on="1"/>
        <pt x="230" y="-4" on="0"/>
        <pt x="183" y="24" on="1"/>
        <pt x="133" y="53" on="0"/>
        <pt x="113" y="99" on="1"/>
        <pt x="85" y="163" on="0"/>
      </contour>
      <contour>
        <pt x="142" y="548" on="0"/>
        <pt x="130" y="438" on="0"/>
        <pt x="130" y="292" on="0"/>
        <pt x="139" y="196" on="0"/>
        <pt x="162" y="126" on="0"/>
        <pt x="193" y="85" on="0"/>
        <pt x="220" y="73" on="1"/>
        <pt x="264" y="53" on="0"/>
        <pt x="402" y="53" on="0"/>
        <pt x="469" y="66" on="0"/>
        <pt x="525" y="103" on="0"/>
        <pt x="540" y="138" on="1"/>
        <pt x="572" y="210" on="0"/>
        <pt x="572" y="361" on="1"/>
        <pt x="572" y="518" on="0"/>
        <pt x="546" y="580" on="1"/>
        <pt x="536" y="604" on="0"/>
        <pt x="518" y="637" on="0"/>
        <pt x="485" y="659" on="0"/>
        <pt x="458" y="672" on="0"/>
        <pt x="436" y="675" on="1"/>
        <pt x="402" y="680" on="0"/>
        <pt x="308" y="680" on="0"/>
        <pt x="262" y="676" on="0"/>
        <pt x="202" y="658" on="0"/>
        <pt x="172" y="617" on="0"/>
      </contour>
      <contour>
        <pt x="470" y="-80" on="1"/>
        <pt x="501" y="-80" on="0"/>
        <pt x="537" y="-68" on="1"/>
        <pt x="537" y="-129" on="1"/>
        <pt x="514" y="-139" on="0"/>
        <pt x="481" y="-139" on="0"/>
        <pt x="443" y="-137" on="0"/>
        <pt x="381" y="-118" on="0"/>
        <pt x="334" y="-68" on="0"/>
        <pt x="328" y="-33" on="1"/>
        <pt x="367" y="-33" on="1"/>
        <pt x="409" y="-80" on="0"/>
      </contour>
    </TTGlyph>
    <TTGlyph name="R" xMin="67" yMin="0" xMax="557" yMax="732">
      <contour>
        <pt x="67" y="0" on="1"/>
        <pt x="67" y="732" on="1"/>
        <pt x="367" y="732" on="1"/>
        <pt x="538" y="732" on="0"/>
        <pt x="538" y="519" on="1"/>
        <pt x="538" y="465" on="0"/>
        <pt x="517" y="385" on="0"/>
        <pt x="488" y="343" on="0"/>
        <pt x="467" y="330" on="1"/>
        <pt x="437" y="312" on="0"/>
        <pt x="400" y="309" on="1"/>
        <pt x="557" y="0" on="1"/>
        <pt x="495" y="0" on="1"/>
        <pt x="339" y="307" on="1"/>
        <pt x="325" y="307" on="0"/>
        <pt x="125" y="319" on="0"/>
        <pt x="124" y="320" on="1"/>
        <pt x="124" y="0" on="1"/>
      </contour>
      <contour>
        <pt x="480" y="523" on="1"/>
        <pt x="480" y="568" on="0"/>
        <pt x="461" y="634" on="0"/>
        <pt x="444" y="649" on="1"/>
        <pt x="413" y="674" on="0"/>
        <pt x="367" y="674" on="1"/>
        <pt x="124" y="674" on="1"/>
        <pt x="124" y="368" on="1"/>
        <pt x="367" y="368" on="1"/>
        <pt x="435" y="368" on="0"/>
        <pt x="457" y="404" on="1"/>
        <pt x="480" y="441" on="0"/>
      </contour>
    </TTGlyph>
    <TTGlyph name="Racute" xMin="67" yMin="0" xMax="557" yMax="925">
      <contour>
        <pt x="264" y="792" on="1"/>
        <pt x="376" y="925" on="1"/>
        <pt x="448" y="925" on="1"/>
        <pt x="315" y="792" on="1"/>
      </contour>
      <contour>
        <pt x="67" y="0" on="1"/>
        <pt x="67" y="732" on="1"/>
        <pt x="367" y="732" on="1"/>
        <pt x="538" y="732" on="0"/>
        <pt x="538" y="519" on="1"/>
        <pt x="538" y="465" on="0"/>
        <pt x="517" y="385" on="0"/>
        <pt x="488" y="343" on="0"/>
        <pt x="467" y="330" on="1"/>
        <pt x="437" y="312" on="0"/>
        <pt x="400" y="309" on="1"/>
        <pt x="557" y="0" on="1"/>
        <pt x="495" y="0" on="1"/>
        <pt x="339" y="307" on="1"/>
        <pt x="325" y="307" on="0"/>
        <pt x="125" y="319" on="0"/>
        <pt x="124" y="320" on="1"/>
        <pt x="124" y="0" on="1"/>
      </contour>
      <contour>
        <pt x="124" y="368" on="1"/>
        <pt x="367" y="368" on="1"/>
        <pt x="435" y="368" on="0"/>
        <pt x="457" y="404" on="1"/>
        <pt x="480" y="441" on="0"/>
        <pt x="480" y="568" on="0"/>
        <pt x="461" y="634" on="0"/>
        <pt x="444" y="649" on="1"/>
        <pt x="413" y="674" on="0"/>
        <pt x="367" y="674" on="1"/>
        <pt x="124" y="674" on="1"/>
      </contour>
    </TTGlyph>
    <TTGlyph name="Rcaron" xMin="67" yMin="0" xMax="557" yMax="926">
      <contour>
        <pt x="148" y="925" on="1"/>
        <pt x="201" y="925" on="1"/>
        <pt x="292" y="839" on="1"/>
        <pt x="380" y="925" on="1"/>
        <pt x="433" y="925" on="1"/>
        <pt x="320" y="795" on="1"/>
        <pt x="265" y="795" on="1"/>
      </contour>
      <contour>
        <pt x="67" y="0" on="1"/>
        <pt x="67" y="732" on="1"/>
        <pt x="367" y="732" on="1"/>
        <pt x="538" y="732" on="0"/>
        <pt x="538" y="519" on="1"/>
        <pt x="538" y="465" on="0"/>
        <pt x="517" y="385" on="0"/>
        <pt x="488" y="343" on="0"/>
        <pt x="467" y="330" on="1"/>
        <pt x="437" y="312" on="0"/>
        <pt x="400" y="309" on="1"/>
        <pt x="557" y="0" on="1"/>
        <pt x="495" y="0" on="1"/>
        <pt x="339" y="307" on="1"/>
        <pt x="325" y="307" on="0"/>
        <pt x="125" y="319" on="0"/>
        <pt x="124" y="320" on="1"/>
        <pt x="124" y="0" on="1"/>
      </contour>
      <contour>
        <pt x="124" y="368" on="1"/>
        <pt x="367" y="368" on="1"/>
        <pt x="435" y="368" on="0"/>
        <pt x="457" y="404" on="1"/>
        <pt x="480" y="441" on="0"/>
        <pt x="480" y="568" on="0"/>
        <pt x="461" y="634" on="0"/>
        <pt x="444" y="649" on="1"/>
        <pt x="413" y="674" on="0"/>
        <pt x="367" y="674" on="1"/>
        <pt x="124" y="674" on="1"/>
      </contour>
    </TTGlyph>
    <TTGlyph name="Rcommaaccent" xMin="67" yMin="-230" xMax="557" yMax="732">
      <contour>
        <pt x="290" y="-228" on="1"/>
        <pt x="282" y="-229" on="0"/>
        <pt x="274" y="-229" on="0"/>
        <pt x="265" y="-228" on="1"/>
        <pt x="265" y="-207" on="1"/>
        <pt x="266" y="-207" on="0"/>
        <pt x="266" y="-207" on="1"/>
        <pt x="288" y="-207" on="0"/>
        <pt x="288" y="-184" on="1"/>
        <pt x="288" y="-155" on="1"/>
        <pt x="280" y="-155" on="1"/>
        <pt x="262" y="-155" on="0"/>
        <pt x="262" y="-136" on="1"/>
        <pt x="262" y="-85" on="1"/>
        <pt x="262" y="-65" on="0"/>
        <pt x="280" y="-65" on="1"/>
        <pt x="313" y="-65" on="1"/>
        <pt x="331" y="-65" on="0"/>
        <pt x="331" y="-85" on="1"/>
        <pt x="331" y="-173" on="1"/>
        <pt x="331" y="-220" on="0"/>
      </contour>
      <contour>
        <pt x="67" y="0" on="1"/>
        <pt x="67" y="732" on="1"/>
        <pt x="367" y="732" on="1"/>
        <pt x="538" y="732" on="0"/>
        <pt x="538" y="519" on="1"/>
        <pt x="538" y="465" on="0"/>
        <pt x="517" y="385" on="0"/>
        <pt x="488" y="343" on="0"/>
        <pt x="467" y="330" on="1"/>
        <pt x="437" y="312" on="0"/>
        <pt x="400" y="309" on="1"/>
        <pt x="557" y="0" on="1"/>
        <pt x="495" y="0" on="1"/>
        <pt x="339" y="307" on="1"/>
        <pt x="325" y="307" on="0"/>
        <pt x="125" y="319" on="0"/>
        <pt x="124" y="320" on="1"/>
        <pt x="124" y="0" on="1"/>
      </contour>
      <contour>
        <pt x="124" y="368" on="1"/>
        <pt x="367" y="368" on="1"/>
        <pt x="435" y="368" on="0"/>
        <pt x="457" y="404" on="1"/>
        <pt x="480" y="441" on="0"/>
        <pt x="480" y="568" on="0"/>
        <pt x="461" y="634" on="0"/>
        <pt x="444" y="649" on="1"/>
        <pt x="413" y="674" on="0"/>
        <pt x="367" y="674" on="1"/>
        <pt x="124" y="674" on="1"/>
      </contour>
    </TTGlyph>
    <TTGlyph name="S" xMin="72" yMin="-8" xMax="538" yMax="738">
      <contour>
        <pt x="264" y="738" on="1"/>
        <pt x="305" y="738" on="0"/>
        <pt x="469" y="722" on="0"/>
        <pt x="510" y="716" on="1"/>
        <pt x="510" y="672" on="1"/>
        <pt x="269" y="681" on="1"/>
        <pt x="262" y="681" on="0"/>
        <pt x="255" y="681" on="1"/>
        <pt x="196" y="681" on="0"/>
        <pt x="130" y="635" on="0"/>
        <pt x="130" y="560" on="1"/>
        <pt x="130" y="494" on="1"/>
        <pt x="130" y="446" on="0"/>
        <pt x="152" y="412" on="0"/>
        <pt x="171" y="398" on="0"/>
        <pt x="185" y="394" on="1"/>
        <pt x="210" y="388" on="0"/>
        <pt x="247" y="388" on="1"/>
        <pt x="380" y="388" on="1"/>
        <pt x="475" y="388" on="0"/>
        <pt x="509" y="336" on="1"/>
        <pt x="538" y="292" on="0"/>
        <pt x="538" y="224" on="1"/>
        <pt x="538" y="156" on="1"/>
        <pt x="538" y="42" on="0"/>
        <pt x="451" y="9" on="1"/>
        <pt x="406" y="-8" on="0"/>
        <pt x="302" y="-8" on="0"/>
        <pt x="129" y="7" on="0"/>
        <pt x="93" y="14" on="1"/>
        <pt x="93" y="58" on="1"/>
        <pt x="190" y="49" on="0"/>
        <pt x="359" y="49" on="0"/>
        <pt x="392" y="52" on="0"/>
        <pt x="434" y="65" on="0"/>
        <pt x="448" y="76" on="1"/>
        <pt x="481" y="102" on="0"/>
        <pt x="481" y="156" on="1"/>
        <pt x="481" y="224" on="1"/>
        <pt x="481" y="277" on="0"/>
        <pt x="435" y="330" on="0"/>
        <pt x="380" y="330" on="1"/>
        <pt x="249" y="330" on="1"/>
        <pt x="122" y="330" on="0"/>
        <pt x="89" y="401" on="1"/>
        <pt x="73" y="437" on="0"/>
        <pt x="73" y="494" on="1"/>
        <pt x="73" y="560" on="1"/>
        <pt x="73" y="665" on="0"/>
        <pt x="129" y="704" on="1"/>
        <pt x="180" y="738" on="0"/>
      </contour>
    </TTGlyph>
    <TTGlyph name="Sacute" xMin="72" yMin="-9" xMax="538" yMax="931">
      <contour>
        <pt x="283" y="798" on="1"/>
        <pt x="394" y="931" on="1"/>
        <pt x="466" y="931" on="1"/>
        <pt x="333" y="798" on="1"/>
      </contour>
      <contour>
        <pt x="73" y="494" on="1"/>
        <pt x="73" y="560" on="1"/>
        <pt x="73" y="665" on="0"/>
        <pt x="129" y="704" on="1"/>
        <pt x="180" y="738" on="0"/>
        <pt x="269" y="738" on="1"/>
        <pt x="305" y="738" on="0"/>
        <pt x="469" y="722" on="0"/>
        <pt x="510" y="716" on="1"/>
        <pt x="510" y="672" on="1"/>
        <pt x="269" y="681" on="1"/>
        <pt x="262" y="681" on="0"/>
        <pt x="255" y="681" on="1"/>
        <pt x="196" y="681" on="0"/>
        <pt x="130" y="635" on="0"/>
        <pt x="130" y="560" on="1"/>
        <pt x="130" y="494" on="1"/>
        <pt x="130" y="446" on="0"/>
        <pt x="152" y="412" on="0"/>
        <pt x="171" y="398" on="0"/>
        <pt x="185" y="394" on="1"/>
        <pt x="210" y="388" on="0"/>
        <pt x="247" y="388" on="1"/>
        <pt x="380" y="388" on="1"/>
        <pt x="475" y="388" on="0"/>
        <pt x="509" y="336" on="1"/>
        <pt x="538" y="292" on="0"/>
        <pt x="538" y="224" on="1"/>
        <pt x="538" y="156" on="1"/>
        <pt x="538" y="42" on="0"/>
        <pt x="451" y="9" on="1"/>
        <pt x="406" y="-8" on="0"/>
        <pt x="302" y="-8" on="0"/>
        <pt x="129" y="7" on="0"/>
        <pt x="93" y="14" on="1"/>
        <pt x="93" y="58" on="1"/>
        <pt x="190" y="49" on="0"/>
        <pt x="359" y="49" on="0"/>
        <pt x="392" y="52" on="0"/>
        <pt x="434" y="65" on="0"/>
        <pt x="448" y="76" on="1"/>
        <pt x="481" y="102" on="0"/>
        <pt x="481" y="156" on="1"/>
        <pt x="481" y="224" on="1"/>
        <pt x="481" y="277" on="0"/>
        <pt x="435" y="330" on="0"/>
        <pt x="380" y="330" on="1"/>
        <pt x="249" y="330" on="1"/>
        <pt x="122" y="330" on="0"/>
        <pt x="89" y="401" on="1"/>
        <pt x="73" y="437" on="0"/>
      </contour>
    </TTGlyph>
    <TTGlyph name="Scaron" xMin="72" yMin="-9" xMax="538" yMax="928">
      <contour>
        <pt x="168" y="928" on="1"/>
        <pt x="221" y="928" on="1"/>
        <pt x="312" y="842" on="1"/>
        <pt x="400" y="928" on="1"/>
        <pt x="453" y="928" on="1"/>
        <pt x="340" y="798" on="1"/>
        <pt x="286" y="798" on="1"/>
      </contour>
      <contour>
        <pt x="73" y="494" on="1"/>
        <pt x="73" y="560" on="1"/>
        <pt x="73" y="665" on="0"/>
        <pt x="129" y="704" on="1"/>
        <pt x="180" y="738" on="0"/>
        <pt x="269" y="738" on="1"/>
        <pt x="305" y="738" on="0"/>
        <pt x="469" y="722" on="0"/>
        <pt x="510" y="716" on="1"/>
        <pt x="510" y="672" on="1"/>
        <pt x="269" y="681" on="1"/>
        <pt x="262" y="681" on="0"/>
        <pt x="255" y="681" on="1"/>
        <pt x="196" y="681" on="0"/>
        <pt x="130" y="635" on="0"/>
        <pt x="130" y="560" on="1"/>
        <pt x="130" y="494" on="1"/>
        <pt x="130" y="446" on="0"/>
        <pt x="152" y="412" on="0"/>
        <pt x="171" y="398" on="0"/>
        <pt x="185" y="394" on="1"/>
        <pt x="210" y="388" on="0"/>
        <pt x="247" y="388" on="1"/>
        <pt x="380" y="388" on="1"/>
        <pt x="475" y="388" on="0"/>
        <pt x="509" y="336" on="1"/>
        <pt x="538" y="292" on="0"/>
        <pt x="538" y="224" on="1"/>
        <pt x="538" y="156" on="1"/>
        <pt x="538" y="42" on="0"/>
        <pt x="451" y="9" on="1"/>
        <pt x="406" y="-8" on="0"/>
        <pt x="302" y="-8" on="0"/>
        <pt x="129" y="7" on="0"/>
        <pt x="93" y="14" on="1"/>
        <pt x="93" y="58" on="1"/>
        <pt x="190" y="49" on="0"/>
        <pt x="359" y="49" on="0"/>
        <pt x="392" y="52" on="0"/>
        <pt x="434" y="65" on="0"/>
        <pt x="448" y="76" on="1"/>
        <pt x="481" y="102" on="0"/>
        <pt x="481" y="156" on="1"/>
        <pt x="481" y="224" on="1"/>
        <pt x="481" y="277" on="0"/>
        <pt x="435" y="330" on="0"/>
        <pt x="380" y="330" on="1"/>
        <pt x="249" y="330" on="1"/>
        <pt x="122" y="330" on="0"/>
        <pt x="89" y="401" on="1"/>
        <pt x="73" y="437" on="0"/>
      </contour>
    </TTGlyph>
    <TTGlyph name="Scedilla" xMin="72" yMin="-181" xMax="538" yMax="738">
      <contour>
        <pt x="345" y="-45" on="1"/>
        <pt x="345" y="-123" on="0"/>
        <pt x="304" y="-181" on="0"/>
        <pt x="244" y="-181" on="1"/>
        <pt x="200" y="-181" on="1"/>
        <pt x="200" y="-154" on="1"/>
        <pt x="246" y="-143" on="1"/>
        <pt x="273" y="-135" on="0"/>
        <pt x="295" y="-91" on="0"/>
        <pt x="295" y="-45" on="1"/>
      </contour>
      <contour>
        <pt x="73" y="494" on="1"/>
        <pt x="73" y="560" on="1"/>
        <pt x="73" y="665" on="0"/>
        <pt x="129" y="704" on="1"/>
        <pt x="180" y="738" on="0"/>
        <pt x="269" y="738" on="1"/>
        <pt x="305" y="738" on="0"/>
        <pt x="469" y="722" on="0"/>
        <pt x="510" y="716" on="1"/>
        <pt x="510" y="672" on="1"/>
        <pt x="269" y="681" on="1"/>
        <pt x="262" y="681" on="0"/>
        <pt x="255" y="681" on="1"/>
        <pt x="196" y="681" on="0"/>
        <pt x="130" y="635" on="0"/>
        <pt x="130" y="560" on="1"/>
        <pt x="130" y="494" on="1"/>
        <pt x="130" y="446" on="0"/>
        <pt x="152" y="412" on="0"/>
        <pt x="171" y="398" on="0"/>
        <pt x="185" y="394" on="1"/>
        <pt x="210" y="388" on="0"/>
        <pt x="247" y="388" on="1"/>
        <pt x="380" y="388" on="1"/>
        <pt x="475" y="388" on="0"/>
        <pt x="509" y="336" on="1"/>
        <pt x="538" y="292" on="0"/>
        <pt x="538" y="224" on="1"/>
        <pt x="538" y="156" on="1"/>
        <pt x="538" y="42" on="0"/>
        <pt x="451" y="9" on="1"/>
        <pt x="406" y="-8" on="0"/>
        <pt x="302" y="-8" on="0"/>
        <pt x="129" y="7" on="0"/>
        <pt x="93" y="14" on="1"/>
        <pt x="93" y="58" on="1"/>
        <pt x="190" y="49" on="0"/>
        <pt x="359" y="49" on="0"/>
        <pt x="392" y="52" on="0"/>
        <pt x="434" y="65" on="0"/>
        <pt x="448" y="76" on="1"/>
        <pt x="481" y="102" on="0"/>
        <pt x="481" y="156" on="1"/>
        <pt x="481" y="224" on="1"/>
        <pt x="481" y="277" on="0"/>
        <pt x="435" y="330" on="0"/>
        <pt x="380" y="330" on="1"/>
        <pt x="249" y="330" on="1"/>
        <pt x="122" y="330" on="0"/>
        <pt x="89" y="401" on="1"/>
        <pt x="73" y="437" on="0"/>
      </contour>
    </TTGlyph>
    <TTGlyph name="Scircumflex" xMin="72" yMin="-9" xMax="538" yMax="928">
      <contour>
        <pt x="168" y="798" on="1"/>
        <pt x="290" y="928" on="1"/>
        <pt x="344" y="928" on="1"/>
        <pt x="453" y="798" on="1"/>
        <pt x="400" y="798" on="1"/>
        <pt x="315" y="884" on="1"/>
        <pt x="222" y="798" on="1"/>
      </contour>
      <contour>
        <pt x="73" y="494" on="1"/>
        <pt x="73" y="560" on="1"/>
        <pt x="73" y="665" on="0"/>
        <pt x="129" y="704" on="1"/>
        <pt x="180" y="738" on="0"/>
        <pt x="269" y="738" on="1"/>
        <pt x="305" y="738" on="0"/>
        <pt x="469" y="722" on="0"/>
        <pt x="510" y="716" on="1"/>
        <pt x="510" y="672" on="1"/>
        <pt x="269" y="681" on="1"/>
        <pt x="262" y="681" on="0"/>
        <pt x="255" y="681" on="1"/>
        <pt x="196" y="681" on="0"/>
        <pt x="130" y="635" on="0"/>
        <pt x="130" y="560" on="1"/>
        <pt x="130" y="494" on="1"/>
        <pt x="130" y="446" on="0"/>
        <pt x="152" y="412" on="0"/>
        <pt x="171" y="398" on="0"/>
        <pt x="185" y="394" on="1"/>
        <pt x="210" y="388" on="0"/>
        <pt x="247" y="388" on="1"/>
        <pt x="380" y="388" on="1"/>
        <pt x="475" y="388" on="0"/>
        <pt x="509" y="336" on="1"/>
        <pt x="538" y="292" on="0"/>
        <pt x="538" y="224" on="1"/>
        <pt x="538" y="156" on="1"/>
        <pt x="538" y="42" on="0"/>
        <pt x="451" y="9" on="1"/>
        <pt x="406" y="-8" on="0"/>
        <pt x="302" y="-8" on="0"/>
        <pt x="129" y="7" on="0"/>
        <pt x="93" y="14" on="1"/>
        <pt x="93" y="58" on="1"/>
        <pt x="190" y="49" on="0"/>
        <pt x="359" y="49" on="0"/>
        <pt x="392" y="52" on="0"/>
        <pt x="434" y="65" on="0"/>
        <pt x="448" y="76" on="1"/>
        <pt x="481" y="102" on="0"/>
        <pt x="481" y="156" on="1"/>
        <pt x="481" y="224" on="1"/>
        <pt x="481" y="277" on="0"/>
        <pt x="435" y="330" on="0"/>
        <pt x="380" y="330" on="1"/>
        <pt x="249" y="330" on="1"/>
        <pt x="122" y="330" on="0"/>
        <pt x="89" y="401" on="1"/>
        <pt x="73" y="437" on="0"/>
      </contour>
    </TTGlyph>
    <TTGlyph name="T" xMin="45" yMin="0" xMax="558" yMax="732">
      <contour>
        <pt x="46" y="675" on="1"/>
        <pt x="46" y="732" on="1"/>
        <pt x="557" y="732" on="1"/>
        <pt x="557" y="675" on="1"/>
        <pt x="327" y="675" on="1"/>
        <pt x="327" y="0" on="1"/>
        <pt x="270" y="0" on="1"/>
        <pt x="270" y="675" on="1"/>
      </contour>
    </TTGlyph>
    <TTGlyph name="Tbar" xMin="39" yMin="0" xMax="551" yMax="732">
      <contour>
        <pt x="39" y="675" on="1"/>
        <pt x="39" y="732" on="1"/>
        <pt x="550" y="732" on="1"/>
        <pt x="550" y="675" on="1"/>
        <pt x="320" y="675" on="1"/>
        <pt x="320" y="437" on="1"/>
        <pt x="450" y="437" on="1"/>
        <pt x="450" y="397" on="1"/>
        <pt x="320" y="397" on="1"/>
        <pt x="320" y="0" on="1"/>
        <pt x="263" y="0" on="1"/>
        <pt x="263" y="397" on="1"/>
        <pt x="140" y="397" on="1"/>
        <pt x="140" y="437" on="1"/>
        <pt x="263" y="437" on="1"/>
        <pt x="263" y="675" on="1"/>
      </contour>
    </TTGlyph>
    <TTGlyph name="Tcaron" xMin="45" yMin="0" xMax="558" yMax="927">
      <contour>
        <pt x="152" y="927" on="1"/>
        <pt x="205" y="927" on="1"/>
        <pt x="296" y="841" on="1"/>
        <pt x="384" y="927" on="1"/>
        <pt x="437" y="927" on="1"/>
        <pt x="324" y="797" on="1"/>
        <pt x="270" y="797" on="1"/>
      </contour>
      <contour>
        <pt x="46" y="675" on="1"/>
        <pt x="46" y="732" on="1"/>
        <pt x="557" y="732" on="1"/>
        <pt x="557" y="675" on="1"/>
        <pt x="327" y="675" on="1"/>
        <pt x="327" y="0" on="1"/>
        <pt x="270" y="0" on="1"/>
        <pt x="270" y="675" on="1"/>
      </contour>
    </TTGlyph>
    <TTGlyph name="Tcommaaccent" xMin="45" yMin="-184" xMax="558" yMax="732">
      <contour>
        <pt x="322" y="-48" on="1"/>
        <pt x="322" y="-125" on="0"/>
        <pt x="281" y="-184" on="0"/>
        <pt x="221" y="-184" on="1"/>
        <pt x="177" y="-184" on="1"/>
        <pt x="177" y="-157" on="1"/>
        <pt x="223" y="-145" on="1"/>
        <pt x="251" y="-137" on="0"/>
        <pt x="273" y="-94" on="0"/>
        <pt x="272" y="-48" on="1"/>
      </contour>
      <contour>
        <pt x="46" y="675" on="1"/>
        <pt x="46" y="732" on="1"/>
        <pt x="557" y="732" on="1"/>
        <pt x="557" y="675" on="1"/>
        <pt x="327" y="675" on="1"/>
        <pt x="327" y="0" on="1"/>
        <pt x="270" y="0" on="1"/>
        <pt x="270" y="675" on="1"/>
      </contour>
    </TTGlyph>
    <TTGlyph name="Thorn" xMin="67" yMin="0" xMax="504" yMax="730">
      <contour>
        <pt x="67" y="0" on="1"/>
        <pt x="67" y="729" on="1"/>
        <pt x="124" y="729" on="1"/>
        <pt x="124" y="588" on="1"/>
        <pt x="328" y="588" on="1"/>
        <pt x="504" y="587" on="0"/>
        <pt x="504" y="375" on="1"/>
        <pt x="504" y="215" on="0"/>
        <pt x="421" y="170" on="1"/>
        <pt x="383" y="149" on="0"/>
        <pt x="328" y="149" on="1"/>
        <pt x="325" y="149" on="0"/>
        <pt x="289" y="149" on="0"/>
        <pt x="276" y="149" on="0"/>
        <pt x="241" y="150" on="0"/>
        <pt x="217" y="152" on="0"/>
        <pt x="199" y="154" on="1"/>
        <pt x="167" y="157" on="0"/>
        <pt x="124" y="165" on="1"/>
        <pt x="124" y="0" on="1"/>
      </contour>
      <contour>
        <pt x="124" y="206" on="1"/>
        <pt x="328" y="206" on="1"/>
        <pt x="329" y="206" on="0"/>
        <pt x="356" y="206" on="0"/>
        <pt x="395" y="220" on="0"/>
        <pt x="412" y="238" on="1"/>
        <pt x="446" y="275" on="0"/>
        <pt x="446" y="377" on="1"/>
        <pt x="445" y="487" on="0"/>
        <pt x="389" y="517" on="1"/>
        <pt x="363" y="530" on="0"/>
        <pt x="328" y="530" on="1"/>
        <pt x="124" y="530" on="1"/>
      </contour>
    </TTGlyph>
    <TTGlyph name="U" xMin="89" yMin="-6" xMax="617" yMax="732">
      <contour>
        <pt x="355" y="-5" on="1"/>
        <pt x="344" y="-5" on="1"/>
        <pt x="226" y="-5" on="0"/>
        <pt x="189" y="20" on="1"/>
        <pt x="172" y="32" on="0"/>
        <pt x="128" y="79" on="0"/>
        <pt x="117" y="113" on="1"/>
        <pt x="90" y="198" on="0"/>
        <pt x="90" y="320" on="1"/>
        <pt x="90" y="732" on="1"/>
        <pt x="147" y="732" on="1"/>
        <pt x="147" y="320" on="1"/>
        <pt x="147" y="151" on="0"/>
        <pt x="190" y="102" on="1"/>
        <pt x="206" y="83" on="0"/>
        <pt x="219" y="73" on="1"/>
        <pt x="242" y="55" on="0"/>
        <pt x="301" y="53" on="1"/>
        <pt x="317" y="52" on="0"/>
        <pt x="350" y="52" on="1"/>
        <pt x="355" y="52" on="1"/>
        <pt x="428" y="52" on="0"/>
        <pt x="469" y="68" on="0"/>
        <pt x="500" y="87" on="0"/>
        <pt x="519" y="114" on="0"/>
        <pt x="540" y="155" on="0"/>
        <pt x="546" y="181" on="1"/>
        <pt x="559" y="241" on="0"/>
        <pt x="559" y="320" on="1"/>
        <pt x="559" y="732" on="1"/>
        <pt x="616" y="732" on="1"/>
        <pt x="616" y="320" on="1"/>
        <pt x="616" y="124" on="0"/>
        <pt x="551" y="57" on="1"/>
        <pt x="528" y="33" on="0"/>
        <pt x="491" y="9" on="0"/>
        <pt x="459" y="3" on="1"/>
        <pt x="418" y="-5" on="0"/>
      </contour>
    </TTGlyph>
    <TTGlyph name="Uacute" xMin="89" yMin="-6" xMax="617" yMax="930">
      <contour>
        <pt x="328" y="797" on="1"/>
        <pt x="440" y="930" on="1"/>
        <pt x="511" y="930" on="1"/>
        <pt x="378" y="797" on="1"/>
      </contour>
      <contour>
        <pt x="355" y="-5" on="1"/>
        <pt x="344" y="-5" on="1"/>
        <pt x="226" y="-5" on="0"/>
        <pt x="189" y="20" on="1"/>
        <pt x="172" y="32" on="0"/>
        <pt x="128" y="79" on="0"/>
        <pt x="117" y="113" on="1"/>
        <pt x="90" y="198" on="0"/>
        <pt x="90" y="320" on="1"/>
        <pt x="90" y="732" on="1"/>
        <pt x="147" y="732" on="1"/>
        <pt x="147" y="320" on="1"/>
        <pt x="147" y="151" on="0"/>
        <pt x="190" y="102" on="1"/>
        <pt x="206" y="83" on="0"/>
        <pt x="219" y="73" on="1"/>
        <pt x="242" y="55" on="0"/>
        <pt x="301" y="53" on="1"/>
        <pt x="317" y="52" on="0"/>
        <pt x="350" y="52" on="1"/>
        <pt x="355" y="52" on="1"/>
        <pt x="428" y="52" on="0"/>
        <pt x="469" y="68" on="0"/>
        <pt x="500" y="87" on="0"/>
        <pt x="519" y="114" on="0"/>
        <pt x="540" y="155" on="0"/>
        <pt x="546" y="181" on="1"/>
        <pt x="559" y="241" on="0"/>
        <pt x="559" y="320" on="1"/>
        <pt x="559" y="732" on="1"/>
        <pt x="616" y="732" on="1"/>
        <pt x="616" y="320" on="1"/>
        <pt x="616" y="124" on="0"/>
        <pt x="551" y="57" on="1"/>
        <pt x="528" y="33" on="0"/>
        <pt x="491" y="9" on="0"/>
        <pt x="459" y="3" on="1"/>
        <pt x="418" y="-5" on="0"/>
      </contour>
    </TTGlyph>
    <TTGlyph name="Ubreve" xMin="89" yMin="-6" xMax="617" yMax="911">
      <contour>
        <pt x="238" y="911" on="1"/>
        <pt x="274" y="911" on="1"/>
        <pt x="274" y="878" on="0"/>
        <pt x="321" y="833" on="0"/>
        <pt x="351" y="833" on="1"/>
        <pt x="386" y="833" on="0"/>
        <pt x="432" y="876" on="0"/>
        <pt x="432" y="911" on="1"/>
        <pt x="468" y="911" on="1"/>
        <pt x="468" y="856" on="0"/>
        <pt x="430" y="825" on="1"/>
        <pt x="396" y="797" on="0"/>
        <pt x="308" y="797" on="0"/>
        <pt x="238" y="860" on="0"/>
      </contour>
      <contour>
        <pt x="355" y="-5" on="1"/>
        <pt x="344" y="-5" on="1"/>
        <pt x="226" y="-5" on="0"/>
        <pt x="189" y="20" on="1"/>
        <pt x="172" y="32" on="0"/>
        <pt x="128" y="79" on="0"/>
        <pt x="117" y="113" on="1"/>
        <pt x="90" y="198" on="0"/>
        <pt x="90" y="320" on="1"/>
        <pt x="90" y="732" on="1"/>
        <pt x="147" y="732" on="1"/>
        <pt x="147" y="320" on="1"/>
        <pt x="147" y="151" on="0"/>
        <pt x="190" y="102" on="1"/>
        <pt x="206" y="83" on="0"/>
        <pt x="219" y="73" on="1"/>
        <pt x="242" y="55" on="0"/>
        <pt x="301" y="53" on="1"/>
        <pt x="317" y="52" on="0"/>
        <pt x="350" y="52" on="1"/>
        <pt x="355" y="52" on="1"/>
        <pt x="428" y="52" on="0"/>
        <pt x="469" y="68" on="0"/>
        <pt x="500" y="87" on="0"/>
        <pt x="519" y="114" on="0"/>
        <pt x="540" y="155" on="0"/>
        <pt x="546" y="181" on="1"/>
        <pt x="559" y="241" on="0"/>
        <pt x="559" y="320" on="1"/>
        <pt x="559" y="732" on="1"/>
        <pt x="616" y="732" on="1"/>
        <pt x="616" y="320" on="1"/>
        <pt x="616" y="124" on="0"/>
        <pt x="551" y="57" on="1"/>
        <pt x="528" y="33" on="0"/>
        <pt x="491" y="9" on="0"/>
        <pt x="459" y="3" on="1"/>
        <pt x="418" y="-5" on="0"/>
      </contour>
    </TTGlyph>
    <TTGlyph name="Ucircumflex" xMin="89" yMin="-6" xMax="617" yMax="927">
      <contour>
        <pt x="210" y="797" on="1"/>
        <pt x="332" y="927" on="1"/>
        <pt x="386" y="927" on="1"/>
        <pt x="496" y="797" on="1"/>
        <pt x="443" y="797" on="1"/>
        <pt x="358" y="883" on="1"/>
        <pt x="264" y="797" on="1"/>
      </contour>
      <contour>
        <pt x="355" y="-5" on="1"/>
        <pt x="344" y="-5" on="1"/>
        <pt x="226" y="-5" on="0"/>
        <pt x="189" y="20" on="1"/>
        <pt x="172" y="32" on="0"/>
        <pt x="128" y="79" on="0"/>
        <pt x="117" y="113" on="1"/>
        <pt x="90" y="198" on="0"/>
        <pt x="90" y="320" on="1"/>
        <pt x="90" y="732" on="1"/>
        <pt x="147" y="732" on="1"/>
        <pt x="147" y="320" on="1"/>
        <pt x="147" y="151" on="0"/>
        <pt x="190" y="102" on="1"/>
        <pt x="206" y="83" on="0"/>
        <pt x="219" y="73" on="1"/>
        <pt x="242" y="55" on="0"/>
        <pt x="301" y="53" on="1"/>
        <pt x="317" y="52" on="0"/>
        <pt x="350" y="52" on="1"/>
        <pt x="355" y="52" on="1"/>
        <pt x="428" y="52" on="0"/>
        <pt x="469" y="68" on="0"/>
        <pt x="500" y="87" on="0"/>
        <pt x="519" y="114" on="0"/>
        <pt x="540" y="155" on="0"/>
        <pt x="546" y="181" on="1"/>
        <pt x="559" y="241" on="0"/>
        <pt x="559" y="320" on="1"/>
        <pt x="559" y="732" on="1"/>
        <pt x="616" y="732" on="1"/>
        <pt x="616" y="320" on="1"/>
        <pt x="616" y="124" on="0"/>
        <pt x="551" y="57" on="1"/>
        <pt x="528" y="33" on="0"/>
        <pt x="491" y="9" on="0"/>
        <pt x="459" y="3" on="1"/>
        <pt x="418" y="-5" on="0"/>
      </contour>
    </TTGlyph>
    <TTGlyph name="Udieresis" xMin="89" yMin="-6" xMax="617" yMax="876">
      <contour>
        <pt x="186" y="820" on="0"/>
        <pt x="186" y="853" on="0"/>
        <pt x="209" y="876" on="0"/>
        <pt x="242" y="876" on="0"/>
        <pt x="265" y="853" on="0"/>
        <pt x="265" y="820" on="0"/>
        <pt x="242" y="797" on="0"/>
        <pt x="209" y="797" on="0"/>
      </contour>
      <contour>
        <pt x="464" y="797" on="0"/>
        <pt x="441" y="820" on="0"/>
        <pt x="441" y="848" on="0"/>
        <pt x="446" y="856" on="1"/>
        <pt x="458" y="876" on="0"/>
        <pt x="497" y="876" on="0"/>
        <pt x="520" y="853" on="0"/>
        <pt x="520" y="820" on="0"/>
        <pt x="497" y="797" on="0"/>
      </contour>
      <contour>
        <pt x="355" y="-5" on="1"/>
        <pt x="344" y="-5" on="1"/>
        <pt x="226" y="-5" on="0"/>
        <pt x="189" y="20" on="1"/>
        <pt x="172" y="32" on="0"/>
        <pt x="128" y="79" on="0"/>
        <pt x="117" y="113" on="1"/>
        <pt x="90" y="198" on="0"/>
        <pt x="90" y="320" on="1"/>
        <pt x="90" y="732" on="1"/>
        <pt x="147" y="732" on="1"/>
        <pt x="147" y="320" on="1"/>
        <pt x="147" y="151" on="0"/>
        <pt x="190" y="102" on="1"/>
        <pt x="206" y="83" on="0"/>
        <pt x="219" y="73" on="1"/>
        <pt x="242" y="55" on="0"/>
        <pt x="301" y="53" on="1"/>
        <pt x="317" y="52" on="0"/>
        <pt x="350" y="52" on="1"/>
        <pt x="355" y="52" on="1"/>
        <pt x="428" y="52" on="0"/>
        <pt x="469" y="68" on="0"/>
        <pt x="500" y="87" on="0"/>
        <pt x="519" y="114" on="0"/>
        <pt x="540" y="155" on="0"/>
        <pt x="546" y="181" on="1"/>
        <pt x="559" y="241" on="0"/>
        <pt x="559" y="320" on="1"/>
        <pt x="559" y="732" on="1"/>
        <pt x="616" y="732" on="1"/>
        <pt x="616" y="320" on="1"/>
        <pt x="616" y="124" on="0"/>
        <pt x="551" y="57" on="1"/>
        <pt x="528" y="33" on="0"/>
        <pt x="491" y="9" on="0"/>
        <pt x="459" y="3" on="1"/>
        <pt x="418" y="-5" on="0"/>
      </contour>
    </TTGlyph>
    <TTGlyph name="Ugrave" xMin="89" yMin="-6" xMax="617" yMax="930">
      <contour>
        <pt x="195" y="930" on="1"/>
        <pt x="266" y="930" on="1"/>
        <pt x="378" y="797" on="1"/>
        <pt x="328" y="797" on="1"/>
      </contour>
      <contour>
        <pt x="355" y="-5" on="1"/>
        <pt x="344" y="-5" on="1"/>
        <pt x="226" y="-5" on="0"/>
        <pt x="189" y="20" on="1"/>
        <pt x="172" y="32" on="0"/>
        <pt x="128" y="79" on="0"/>
        <pt x="117" y="113" on="1"/>
        <pt x="90" y="198" on="0"/>
        <pt x="90" y="320" on="1"/>
        <pt x="90" y="732" on="1"/>
        <pt x="147" y="732" on="1"/>
        <pt x="147" y="320" on="1"/>
        <pt x="147" y="151" on="0"/>
        <pt x="190" y="102" on="1"/>
        <pt x="206" y="83" on="0"/>
        <pt x="219" y="73" on="1"/>
        <pt x="242" y="55" on="0"/>
        <pt x="301" y="53" on="1"/>
        <pt x="317" y="52" on="0"/>
        <pt x="350" y="52" on="1"/>
        <pt x="355" y="52" on="1"/>
        <pt x="428" y="52" on="0"/>
        <pt x="469" y="68" on="0"/>
        <pt x="500" y="87" on="0"/>
        <pt x="519" y="114" on="0"/>
        <pt x="540" y="155" on="0"/>
        <pt x="546" y="181" on="1"/>
        <pt x="559" y="241" on="0"/>
        <pt x="559" y="320" on="1"/>
        <pt x="559" y="732" on="1"/>
        <pt x="616" y="732" on="1"/>
        <pt x="616" y="320" on="1"/>
        <pt x="616" y="124" on="0"/>
        <pt x="551" y="57" on="1"/>
        <pt x="528" y="33" on="0"/>
        <pt x="491" y="9" on="0"/>
        <pt x="459" y="3" on="1"/>
        <pt x="418" y="-5" on="0"/>
      </contour>
    </TTGlyph>
    <TTGlyph name="Uhungarumlaut" xMin="89" yMin="-6" xMax="617" yMax="930">
      <contour>
        <pt x="260" y="797" on="1"/>
        <pt x="371" y="930" on="1"/>
        <pt x="443" y="930" on="1"/>
        <pt x="310" y="797" on="1"/>
      </contour>
      <contour>
        <pt x="396" y="797" on="1"/>
        <pt x="508" y="930" on="1"/>
        <pt x="579" y="930" on="1"/>
        <pt x="446" y="797" on="1"/>
      </contour>
      <contour>
        <pt x="355" y="-5" on="1"/>
        <pt x="344" y="-5" on="1"/>
        <pt x="226" y="-5" on="0"/>
        <pt x="189" y="20" on="1"/>
        <pt x="172" y="32" on="0"/>
        <pt x="128" y="79" on="0"/>
        <pt x="117" y="113" on="1"/>
        <pt x="90" y="198" on="0"/>
        <pt x="90" y="320" on="1"/>
        <pt x="90" y="732" on="1"/>
        <pt x="147" y="732" on="1"/>
        <pt x="147" y="320" on="1"/>
        <pt x="147" y="151" on="0"/>
        <pt x="190" y="102" on="1"/>
        <pt x="206" y="83" on="0"/>
        <pt x="219" y="73" on="1"/>
        <pt x="242" y="55" on="0"/>
        <pt x="301" y="53" on="1"/>
        <pt x="317" y="52" on="0"/>
        <pt x="350" y="52" on="1"/>
        <pt x="355" y="52" on="1"/>
        <pt x="428" y="52" on="0"/>
        <pt x="469" y="68" on="0"/>
        <pt x="500" y="87" on="0"/>
        <pt x="519" y="114" on="0"/>
        <pt x="540" y="155" on="0"/>
        <pt x="546" y="181" on="1"/>
        <pt x="559" y="241" on="0"/>
        <pt x="559" y="320" on="1"/>
        <pt x="559" y="732" on="1"/>
        <pt x="616" y="732" on="1"/>
        <pt x="616" y="320" on="1"/>
        <pt x="616" y="124" on="0"/>
        <pt x="551" y="57" on="1"/>
        <pt x="528" y="33" on="0"/>
        <pt x="491" y="9" on="0"/>
        <pt x="459" y="3" on="1"/>
        <pt x="418" y="-5" on="0"/>
      </contour>
    </TTGlyph>
    <TTGlyph name="Umacron" xMin="89" yMin="-6" xMax="617" yMax="844">
      <contour>
        <pt x="214" y="797" on="1"/>
        <pt x="214" y="844" on="1"/>
        <pt x="492" y="844" on="1"/>
        <pt x="492" y="797" on="1"/>
      </contour>
      <contour>
        <pt x="355" y="-5" on="1"/>
        <pt x="344" y="-5" on="1"/>
        <pt x="226" y="-5" on="0"/>
        <pt x="189" y="20" on="1"/>
        <pt x="172" y="32" on="0"/>
        <pt x="128" y="79" on="0"/>
        <pt x="117" y="113" on="1"/>
        <pt x="90" y="198" on="0"/>
        <pt x="90" y="320" on="1"/>
        <pt x="90" y="732" on="1"/>
        <pt x="147" y="732" on="1"/>
        <pt x="147" y="320" on="1"/>
        <pt x="147" y="151" on="0"/>
        <pt x="190" y="102" on="1"/>
        <pt x="206" y="83" on="0"/>
        <pt x="219" y="73" on="1"/>
        <pt x="242" y="55" on="0"/>
        <pt x="301" y="53" on="1"/>
        <pt x="317" y="52" on="0"/>
        <pt x="350" y="52" on="1"/>
        <pt x="355" y="52" on="1"/>
        <pt x="428" y="52" on="0"/>
        <pt x="469" y="68" on="0"/>
        <pt x="500" y="87" on="0"/>
        <pt x="519" y="114" on="0"/>
        <pt x="540" y="155" on="0"/>
        <pt x="546" y="181" on="1"/>
        <pt x="559" y="241" on="0"/>
        <pt x="559" y="320" on="1"/>
        <pt x="559" y="732" on="1"/>
        <pt x="616" y="732" on="1"/>
        <pt x="616" y="320" on="1"/>
        <pt x="616" y="124" on="0"/>
        <pt x="551" y="57" on="1"/>
        <pt x="528" y="33" on="0"/>
        <pt x="491" y="9" on="0"/>
        <pt x="459" y="3" on="1"/>
        <pt x="418" y="-5" on="0"/>
      </contour>
    </TTGlyph>
    <TTGlyph name="Uogonek" xMin="89" yMin="-187" xMax="617" yMax="732">
      <contour>
        <pt x="366" y="-4" on="1"/>
        <pt x="301" y="-47" on="0"/>
        <pt x="301" y="-91" on="1"/>
        <pt x="301" y="-107" on="0"/>
        <pt x="312" y="-119" on="1"/>
        <pt x="332" y="-140" on="0"/>
        <pt x="379" y="-141" on="1"/>
        <pt x="379" y="-185" on="1"/>
        <pt x="369" y="-186" on="0"/>
        <pt x="337" y="-186" on="0"/>
        <pt x="287" y="-168" on="0"/>
        <pt x="271" y="-147" on="1"/>
        <pt x="253" y="-121" on="0"/>
        <pt x="253" y="-73" on="0"/>
        <pt x="294" y="-22" on="0"/>
        <pt x="337" y="-4" on="1"/>
      </contour>
      <contour>
        <pt x="355" y="-5" on="1"/>
        <pt x="344" y="-5" on="1"/>
        <pt x="226" y="-5" on="0"/>
        <pt x="189" y="20" on="1"/>
        <pt x="172" y="32" on="0"/>
        <pt x="128" y="79" on="0"/>
        <pt x="117" y="113" on="1"/>
        <pt x="90" y="198" on="0"/>
        <pt x="90" y="320" on="1"/>
        <pt x="90" y="732" on="1"/>
        <pt x="147" y="732" on="1"/>
        <pt x="147" y="320" on="1"/>
        <pt x="147" y="151" on="0"/>
        <pt x="190" y="102" on="1"/>
        <pt x="206" y="83" on="0"/>
        <pt x="219" y="73" on="1"/>
        <pt x="242" y="55" on="0"/>
        <pt x="301" y="53" on="1"/>
        <pt x="317" y="52" on="0"/>
        <pt x="350" y="52" on="1"/>
        <pt x="355" y="52" on="1"/>
        <pt x="428" y="52" on="0"/>
        <pt x="469" y="68" on="0"/>
        <pt x="500" y="87" on="0"/>
        <pt x="519" y="114" on="0"/>
        <pt x="540" y="155" on="0"/>
        <pt x="546" y="181" on="1"/>
        <pt x="559" y="241" on="0"/>
        <pt x="559" y="320" on="1"/>
        <pt x="559" y="732" on="1"/>
        <pt x="616" y="732" on="1"/>
        <pt x="616" y="320" on="1"/>
        <pt x="616" y="124" on="0"/>
        <pt x="551" y="57" on="1"/>
        <pt x="528" y="33" on="0"/>
        <pt x="491" y="9" on="0"/>
        <pt x="459" y="3" on="1"/>
        <pt x="418" y="-5" on="0"/>
      </contour>
    </TTGlyph>
    <TTGlyph name="Uring" xMin="89" yMin="-6" xMax="617" yMax="1002">
      <contour>
        <pt x="252" y="871" on="0"/>
        <pt x="252" y="927" on="0"/>
        <pt x="279" y="974" on="0"/>
        <pt x="326" y="1002" on="0"/>
        <pt x="381" y="1002" on="0"/>
        <pt x="427" y="974" on="0"/>
        <pt x="454" y="927" on="0"/>
        <pt x="454" y="856" on="0"/>
        <pt x="396" y="797" on="0"/>
        <pt x="326" y="797" on="0"/>
        <pt x="279" y="824" on="0"/>
      </contour>
      <contour>
        <pt x="326" y="965" on="0"/>
        <pt x="287" y="926" on="0"/>
        <pt x="287" y="881" on="0"/>
        <pt x="296" y="866" on="1"/>
        <pt x="316" y="834" on="0"/>
        <pt x="381" y="834" on="0"/>
        <pt x="418" y="872" on="0"/>
        <pt x="418" y="926" on="0"/>
        <pt x="381" y="965" on="0"/>
      </contour>
      <contour>
        <pt x="355" y="-5" on="1"/>
        <pt x="344" y="-5" on="1"/>
        <pt x="226" y="-5" on="0"/>
        <pt x="189" y="20" on="1"/>
        <pt x="172" y="32" on="0"/>
        <pt x="128" y="79" on="0"/>
        <pt x="117" y="113" on="1"/>
        <pt x="90" y="198" on="0"/>
        <pt x="90" y="320" on="1"/>
        <pt x="90" y="732" on="1"/>
        <pt x="147" y="732" on="1"/>
        <pt x="147" y="320" on="1"/>
        <pt x="147" y="151" on="0"/>
        <pt x="190" y="102" on="1"/>
        <pt x="206" y="83" on="0"/>
        <pt x="219" y="73" on="1"/>
        <pt x="242" y="55" on="0"/>
        <pt x="301" y="53" on="1"/>
        <pt x="317" y="52" on="0"/>
        <pt x="350" y="52" on="1"/>
        <pt x="355" y="52" on="1"/>
        <pt x="428" y="52" on="0"/>
        <pt x="469" y="68" on="0"/>
        <pt x="500" y="87" on="0"/>
        <pt x="519" y="114" on="0"/>
        <pt x="540" y="155" on="0"/>
        <pt x="546" y="181" on="1"/>
        <pt x="559" y="241" on="0"/>
        <pt x="559" y="320" on="1"/>
        <pt x="559" y="732" on="1"/>
        <pt x="616" y="732" on="1"/>
        <pt x="616" y="320" on="1"/>
        <pt x="616" y="124" on="0"/>
        <pt x="551" y="57" on="1"/>
        <pt x="528" y="33" on="0"/>
        <pt x="491" y="9" on="0"/>
        <pt x="459" y="3" on="1"/>
        <pt x="418" y="-5" on="0"/>
      </contour>
    </TTGlyph>
    <TTGlyph name="Utilde" xMin="89" yMin="-6" xMax="617" yMax="893">
      <contour>
        <pt x="455" y="806" on="1"/>
        <pt x="407" y="779" on="0"/>
        <pt x="348" y="819" on="1"/>
        <pt x="313" y="842" on="0"/>
        <pt x="278" y="842" on="0"/>
        <pt x="248" y="831" on="0"/>
        <pt x="209" y="806" on="0"/>
        <pt x="199" y="802" on="1"/>
        <pt x="184" y="831" on="1"/>
        <pt x="209" y="852" on="0"/>
        <pt x="222" y="863" on="1"/>
        <pt x="263" y="893" on="0"/>
        <pt x="323" y="892" on="0"/>
        <pt x="398" y="846" on="0"/>
        <pt x="417" y="845" on="0"/>
        <pt x="430" y="847" on="0"/>
        <pt x="445" y="853" on="0"/>
        <pt x="456" y="858" on="0"/>
        <pt x="474" y="868" on="0"/>
        <pt x="483" y="873" on="0"/>
        <pt x="502" y="886" on="0"/>
        <pt x="505" y="887" on="1"/>
        <pt x="522" y="857" on="1"/>
        <pt x="518" y="854" on="0"/>
        <pt x="500" y="839" on="0"/>
        <pt x="492" y="832" on="0"/>
        <pt x="483" y="825" on="1"/>
        <pt x="471" y="815" on="0"/>
      </contour>
      <contour>
        <pt x="355" y="-5" on="1"/>
        <pt x="344" y="-5" on="1"/>
        <pt x="226" y="-5" on="0"/>
        <pt x="189" y="20" on="1"/>
        <pt x="172" y="32" on="0"/>
        <pt x="128" y="79" on="0"/>
        <pt x="117" y="113" on="1"/>
        <pt x="90" y="198" on="0"/>
        <pt x="90" y="320" on="1"/>
        <pt x="90" y="732" on="1"/>
        <pt x="147" y="732" on="1"/>
        <pt x="147" y="320" on="1"/>
        <pt x="147" y="151" on="0"/>
        <pt x="190" y="102" on="1"/>
        <pt x="206" y="83" on="0"/>
        <pt x="219" y="73" on="1"/>
        <pt x="242" y="55" on="0"/>
        <pt x="301" y="53" on="1"/>
        <pt x="317" y="52" on="0"/>
        <pt x="350" y="52" on="1"/>
        <pt x="355" y="52" on="1"/>
        <pt x="428" y="52" on="0"/>
        <pt x="469" y="68" on="0"/>
        <pt x="500" y="87" on="0"/>
        <pt x="519" y="114" on="0"/>
        <pt x="540" y="155" on="0"/>
        <pt x="546" y="181" on="1"/>
        <pt x="559" y="241" on="0"/>
        <pt x="559" y="320" on="1"/>
        <pt x="559" y="732" on="1"/>
        <pt x="616" y="732" on="1"/>
        <pt x="616" y="320" on="1"/>
        <pt x="616" y="124" on="0"/>
        <pt x="551" y="57" on="1"/>
        <pt x="528" y="33" on="0"/>
        <pt x="491" y="9" on="0"/>
        <pt x="459" y="3" on="1"/>
        <pt x="418" y="-5" on="0"/>
      </contour>
    </TTGlyph>
    <TTGlyph name="V" xMin="50" yMin="0" xMax="641" yMax="732">
      <contour>
        <pt x="50" y="732" on="1"/>
        <pt x="113" y="732" on="1"/>
        <pt x="340" y="86" on="1"/>
        <pt x="578" y="732" on="1"/>
        <pt x="640" y="732" on="1"/>
        <pt x="370" y="0" on="1"/>
        <pt x="309" y="0" on="1"/>
      </contour>
    </TTGlyph>
    <TTGlyph name="W" xMin="50" yMin="0" xMax="940" yMax="732">
      <contour>
        <pt x="50" y="732" on="1"/>
        <pt x="113" y="732" on="1"/>
        <pt x="339" y="93" on="1"/>
        <pt x="542" y="732" on="1"/>
        <pt x="606" y="732" on="1"/>
        <pt x="526" y="475" on="1"/>
        <pt x="670" y="89" on="1"/>
        <pt x="877" y="732" on="1"/>
        <pt x="939" y="732" on="1"/>
        <pt x="702" y="0" on="1"/>
        <pt x="641" y="0" on="1"/>
        <pt x="496" y="381" on="1"/>
        <pt x="370" y="0" on="1"/>
        <pt x="309" y="0" on="1"/>
      </contour>
    </TTGlyph>
    <TTGlyph name="Wacute" xMin="50" yMin="0" xMax="940" yMax="927">
      <contour>
        <pt x="477" y="794" on="1"/>
        <pt x="588" y="927" on="1"/>
        <pt x="660" y="927" on="1"/>
        <pt x="527" y="794" on="1"/>
      </contour>
      <contour>
        <pt x="50" y="732" on="1"/>
        <pt x="113" y="732" on="1"/>
        <pt x="339" y="93" on="1"/>
        <pt x="542" y="732" on="1"/>
        <pt x="606" y="732" on="1"/>
        <pt x="526" y="475" on="1"/>
        <pt x="670" y="89" on="1"/>
        <pt x="877" y="732" on="1"/>
        <pt x="939" y="732" on="1"/>
        <pt x="702" y="0" on="1"/>
        <pt x="641" y="0" on="1"/>
        <pt x="496" y="381" on="1"/>
        <pt x="370" y="0" on="1"/>
        <pt x="309" y="0" on="1"/>
      </contour>
    </TTGlyph>
    <TTGlyph name="Wcircumflex" xMin="50" yMin="0" xMax="940" yMax="924">
      <contour>
        <pt x="359" y="794" on="1"/>
        <pt x="481" y="924" on="1"/>
        <pt x="534" y="924" on="1"/>
        <pt x="644" y="794" on="1"/>
        <pt x="591" y="794" on="1"/>
        <pt x="506" y="880" on="1"/>
        <pt x="412" y="794" on="1"/>
      </contour>
      <contour>
        <pt x="50" y="732" on="1"/>
        <pt x="113" y="732" on="1"/>
        <pt x="339" y="93" on="1"/>
        <pt x="542" y="732" on="1"/>
        <pt x="606" y="732" on="1"/>
        <pt x="526" y="475" on="1"/>
        <pt x="670" y="89" on="1"/>
        <pt x="877" y="732" on="1"/>
        <pt x="939" y="732" on="1"/>
        <pt x="702" y="0" on="1"/>
        <pt x="641" y="0" on="1"/>
        <pt x="496" y="381" on="1"/>
        <pt x="370" y="0" on="1"/>
        <pt x="309" y="0" on="1"/>
      </contour>
    </TTGlyph>
    <TTGlyph name="Wdieresis" xMin="50" yMin="0" xMax="940" yMax="873">
      <contour>
        <pt x="341" y="811" on="0"/>
        <pt x="335" y="825" on="0"/>
        <pt x="335" y="850" on="0"/>
        <pt x="358" y="872" on="0"/>
        <pt x="391" y="872" on="0"/>
        <pt x="413" y="850" on="0"/>
        <pt x="413" y="817" on="0"/>
        <pt x="390" y="794" on="0"/>
        <pt x="366" y="794" on="0"/>
        <pt x="351" y="800" on="0"/>
      </contour>
      <contour>
        <pt x="600" y="804" on="0"/>
        <pt x="589" y="823" on="0"/>
        <pt x="589" y="850" on="0"/>
        <pt x="613" y="872" on="0"/>
        <pt x="646" y="872" on="0"/>
        <pt x="668" y="850" on="0"/>
        <pt x="668" y="817" on="0"/>
        <pt x="645" y="794" on="0"/>
        <pt x="618" y="794" on="0"/>
      </contour>
      <contour>
        <pt x="50" y="732" on="1"/>
        <pt x="113" y="732" on="1"/>
        <pt x="339" y="93" on="1"/>
        <pt x="542" y="732" on="1"/>
        <pt x="606" y="732" on="1"/>
        <pt x="526" y="475" on="1"/>
        <pt x="670" y="89" on="1"/>
        <pt x="877" y="732" on="1"/>
        <pt x="939" y="732" on="1"/>
        <pt x="702" y="0" on="1"/>
        <pt x="641" y="0" on="1"/>
        <pt x="496" y="381" on="1"/>
        <pt x="370" y="0" on="1"/>
        <pt x="309" y="0" on="1"/>
      </contour>
    </TTGlyph>
    <TTGlyph name="Wgrave" xMin="50" yMin="0" xMax="940" yMax="927">
      <contour>
        <pt x="343" y="927" on="1"/>
        <pt x="414" y="927" on="1"/>
        <pt x="526" y="794" on="1"/>
        <pt x="476" y="794" on="1"/>
      </contour>
      <contour>
        <pt x="50" y="732" on="1"/>
        <pt x="113" y="732" on="1"/>
        <pt x="339" y="93" on="1"/>
        <pt x="542" y="732" on="1"/>
        <pt x="606" y="732" on="1"/>
        <pt x="526" y="475" on="1"/>
        <pt x="670" y="89" on="1"/>
        <pt x="877" y="732" on="1"/>
        <pt x="939" y="732" on="1"/>
        <pt x="702" y="0" on="1"/>
        <pt x="641" y="0" on="1"/>
        <pt x="496" y="381" on="1"/>
        <pt x="370" y="0" on="1"/>
        <pt x="309" y="0" on="1"/>
      </contour>
    </TTGlyph>
    <TTGlyph name="X" xMin="50" yMin="0" xMax="560" yMax="732">
      <contour>
        <pt x="50" y="732" on="1"/>
        <pt x="114" y="732" on="1"/>
        <pt x="303" y="412" on="1"/>
        <pt x="495" y="732" on="1"/>
        <pt x="559" y="732" on="1"/>
        <pt x="341" y="368" on="1"/>
        <pt x="554" y="0" on="1"/>
        <pt x="490" y="0" on="1"/>
        <pt x="303" y="318" on="1"/>
        <pt x="117" y="0" on="1"/>
        <pt x="53" y="0" on="1"/>
        <pt x="266" y="368" on="1"/>
      </contour>
    </TTGlyph>
    <TTGlyph name="X.salt" xMin="22" yMin="0" xMax="588" yMax="732">
      <contour>
        <pt x="212" y="302" on="1"/>
        <pt x="231" y="331" on="0"/>
        <pt x="235" y="365" on="0"/>
        <pt x="235" y="378" on="1"/>
        <pt x="235" y="409" on="0"/>
        <pt x="199" y="463" on="1"/>
        <pt x="22" y="732" on="1"/>
        <pt x="88" y="732" on="1"/>
        <pt x="250" y="487" on="1"/>
        <pt x="294" y="419" on="0"/>
        <pt x="294" y="320" on="0"/>
        <pt x="270" y="284" on="1"/>
        <pt x="88" y="0" on="1"/>
        <pt x="22" y="0" on="1"/>
      </contour>
      <contour>
        <pt x="340" y="284" on="1"/>
        <pt x="316" y="320" on="0"/>
        <pt x="316" y="419" on="0"/>
        <pt x="360" y="487" on="1"/>
        <pt x="522" y="732" on="1"/>
        <pt x="588" y="732" on="1"/>
        <pt x="411" y="463" on="1"/>
        <pt x="375" y="409" on="0"/>
        <pt x="375" y="372" on="1"/>
        <pt x="375" y="365" on="0"/>
        <pt x="379" y="331" on="0"/>
        <pt x="398" y="302" on="1"/>
        <pt x="588" y="0" on="1"/>
        <pt x="522" y="0" on="1"/>
      </contour>
    </TTGlyph>
    <TTGlyph name="Y" xMin="50" yMin="0" xMax="601" yMax="732">
      <contour>
        <pt x="344" y="0" on="1"/>
        <pt x="287" y="0" on="1"/>
        <pt x="287" y="260" on="1"/>
        <pt x="50" y="732" on="1"/>
        <pt x="113" y="732" on="1"/>
        <pt x="315" y="329" on="1"/>
        <pt x="538" y="732" on="1"/>
        <pt x="600" y="732" on="1"/>
        <pt x="344" y="260" on="1"/>
      </contour>
    </TTGlyph>
    <TTGlyph name="Yacute" xMin="50" yMin="0" xMax="601" yMax="930">
      <contour>
        <pt x="300" y="797" on="1"/>
        <pt x="412" y="930" on="1"/>
        <pt x="483" y="930" on="1"/>
        <pt x="350" y="797" on="1"/>
      </contour>
      <contour>
        <pt x="344" y="0" on="1"/>
        <pt x="287" y="0" on="1"/>
        <pt x="287" y="260" on="1"/>
        <pt x="50" y="732" on="1"/>
        <pt x="113" y="732" on="1"/>
        <pt x="315" y="329" on="1"/>
        <pt x="538" y="732" on="1"/>
        <pt x="600" y="732" on="1"/>
        <pt x="344" y="260" on="1"/>
      </contour>
    </TTGlyph>
    <TTGlyph name="Ycircumflex" xMin="50" yMin="0" xMax="601" yMax="924">
      <contour>
        <pt x="176" y="794" on="1"/>
        <pt x="298" y="924" on="1"/>
        <pt x="352" y="924" on="1"/>
        <pt x="461" y="794" on="1"/>
        <pt x="408" y="794" on="1"/>
        <pt x="323" y="880" on="1"/>
        <pt x="230" y="794" on="1"/>
      </contour>
      <contour>
        <pt x="344" y="0" on="1"/>
        <pt x="287" y="0" on="1"/>
        <pt x="287" y="260" on="1"/>
        <pt x="50" y="732" on="1"/>
        <pt x="113" y="732" on="1"/>
        <pt x="315" y="329" on="1"/>
        <pt x="538" y="732" on="1"/>
        <pt x="600" y="732" on="1"/>
        <pt x="344" y="260" on="1"/>
      </contour>
    </TTGlyph>
    <TTGlyph name="Ydieresis" xMin="50" yMin="0" xMax="601" yMax="876">
      <contour>
        <pt x="159" y="820" on="0"/>
        <pt x="159" y="853" on="0"/>
        <pt x="182" y="876" on="0"/>
        <pt x="215" y="876" on="0"/>
        <pt x="237" y="853" on="0"/>
        <pt x="237" y="820" on="0"/>
        <pt x="214" y="797" on="0"/>
        <pt x="182" y="797" on="0"/>
      </contour>
      <contour>
        <pt x="437" y="797" on="0"/>
        <pt x="413" y="820" on="0"/>
        <pt x="413" y="848" on="0"/>
        <pt x="419" y="856" on="1"/>
        <pt x="430" y="876" on="0"/>
        <pt x="470" y="876" on="0"/>
        <pt x="492" y="853" on="0"/>
        <pt x="492" y="820" on="0"/>
        <pt x="469" y="797" on="0"/>
      </contour>
      <contour>
        <pt x="344" y="0" on="1"/>
        <pt x="287" y="0" on="1"/>
        <pt x="287" y="260" on="1"/>
        <pt x="50" y="732" on="1"/>
        <pt x="113" y="732" on="1"/>
        <pt x="315" y="329" on="1"/>
        <pt x="538" y="732" on="1"/>
        <pt x="600" y="732" on="1"/>
        <pt x="344" y="260" on="1"/>
      </contour>
    </TTGlyph>
    <TTGlyph name="Ygrave" xMin="50" yMin="0" xMax="601" yMax="930">
      <contour>
        <pt x="167" y="930" on="1"/>
        <pt x="239" y="930" on="1"/>
        <pt x="350" y="797" on="1"/>
        <pt x="300" y="797" on="1"/>
      </contour>
      <contour>
        <pt x="344" y="0" on="1"/>
        <pt x="287" y="0" on="1"/>
        <pt x="287" y="260" on="1"/>
        <pt x="50" y="732" on="1"/>
        <pt x="113" y="732" on="1"/>
        <pt x="315" y="329" on="1"/>
        <pt x="538" y="732" on="1"/>
        <pt x="600" y="732" on="1"/>
        <pt x="344" y="260" on="1"/>
      </contour>
    </TTGlyph>
    <TTGlyph name="Z" xMin="39" yMin="0" xMax="522" yMax="732">
      <contour>
        <pt x="39" y="0" on="1"/>
        <pt x="39" y="57" on="1"/>
        <pt x="448" y="675" on="1"/>
        <pt x="39" y="675" on="1"/>
        <pt x="39" y="732" on="1"/>
        <pt x="522" y="732" on="1"/>
        <pt x="522" y="675" on="1"/>
        <pt x="113" y="57" on="1"/>
        <pt x="522" y="57" on="1"/>
        <pt x="522" y="0" on="1"/>
      </contour>
    </TTGlyph>
    <TTGlyph name="Zacute" xMin="39" yMin="0" xMax="522" yMax="930">
      <contour>
        <pt x="262" y="797" on="1"/>
        <pt x="374" y="930" on="1"/>
        <pt x="445" y="930" on="1"/>
        <pt x="312" y="797" on="1"/>
      </contour>
      <contour>
        <pt x="39" y="0" on="1"/>
        <pt x="39" y="57" on="1"/>
        <pt x="448" y="675" on="1"/>
        <pt x="39" y="675" on="1"/>
        <pt x="39" y="732" on="1"/>
        <pt x="522" y="732" on="1"/>
        <pt x="522" y="675" on="1"/>
        <pt x="113" y="57" on="1"/>
        <pt x="522" y="57" on="1"/>
        <pt x="522" y="0" on="1"/>
      </contour>
    </TTGlyph>
    <TTGlyph name="Zcaron" xMin="39" yMin="0" xMax="522" yMax="927">
      <contour>
        <pt x="138" y="927" on="1"/>
        <pt x="191" y="927" on="1"/>
        <pt x="282" y="841" on="1"/>
        <pt x="370" y="927" on="1"/>
        <pt x="423" y="927" on="1"/>
        <pt x="310" y="797" on="1"/>
        <pt x="255" y="797" on="1"/>
      </contour>
      <contour>
        <pt x="39" y="0" on="1"/>
        <pt x="39" y="57" on="1"/>
        <pt x="448" y="675" on="1"/>
        <pt x="39" y="675" on="1"/>
        <pt x="39" y="732" on="1"/>
        <pt x="522" y="732" on="1"/>
        <pt x="522" y="675" on="1"/>
        <pt x="113" y="57" on="1"/>
        <pt x="522" y="57" on="1"/>
        <pt x="522" y="0" on="1"/>
      </contour>
    </TTGlyph>
    <TTGlyph name="Zdotaccent" xMin="39" yMin="0" xMax="522" yMax="894">
      <contour>
        <pt x="243" y="816" on="1"/>
        <pt x="243" y="873" on="1"/>
        <pt x="243" y="894" on="0"/>
        <pt x="262" y="894" on="1"/>
        <pt x="299" y="894" on="1"/>
        <pt x="318" y="894" on="0"/>
        <pt x="318" y="873" on="1"/>
        <pt x="318" y="816" on="1"/>
        <pt x="318" y="797" on="0"/>
        <pt x="299" y="797" on="1"/>
        <pt x="262" y="797" on="1"/>
        <pt x="254" y="797" on="0"/>
        <pt x="243" y="808" on="0"/>
      </contour>
      <contour>
        <pt x="39" y="0" on="1"/>
        <pt x="39" y="57" on="1"/>
        <pt x="448" y="675" on="1"/>
        <pt x="39" y="675" on="1"/>
        <pt x="39" y="732" on="1"/>
        <pt x="522" y="732" on="1"/>
        <pt x="522" y="675" on="1"/>
        <pt x="113" y="57" on="1"/>
        <pt x="522" y="57" on="1"/>
        <pt x="522" y="0" on="1"/>
      </contour>
    </TTGlyph>
    <TTGlyph name="a" xMin="44" yMin="-6" xMax="464" yMax="542">
      <contour>
        <pt x="62" y="511" on="1"/>
        <pt x="174" y="541" on="0"/>
        <pt x="313" y="541" on="1"/>
        <pt x="379" y="541" on="0"/>
        <pt x="464" y="465" on="0"/>
        <pt x="464" y="387" on="1"/>
        <pt x="464" y="0" on="1"/>
        <pt x="422" y="0" on="1"/>
        <pt x="407" y="64" on="1"/>
        <pt x="406" y="64" on="0"/>
        <pt x="376" y="50" on="0"/>
        <pt x="327" y="29" on="0"/>
        <pt x="298" y="19" on="1"/>
        <pt x="230" y="-6" on="0"/>
        <pt x="121" y="-6" on="0"/>
        <pt x="45" y="64" on="0"/>
        <pt x="45" y="126" on="1"/>
        <pt x="45" y="187" on="1"/>
        <pt x="45" y="271" on="0"/>
        <pt x="107" y="304" on="1"/>
        <pt x="137" y="320" on="0"/>
        <pt x="178" y="320" on="1"/>
        <pt x="292" y="320" on="0"/>
        <pt x="407" y="320" on="0"/>
        <pt x="407" y="320" on="1"/>
        <pt x="407" y="353" on="0"/>
        <pt x="407" y="387" on="0"/>
        <pt x="407" y="387" on="1"/>
        <pt x="407" y="486" on="0"/>
        <pt x="304" y="486" on="1"/>
        <pt x="221" y="486" on="0"/>
        <pt x="62" y="470" on="1"/>
      </contour>
      <contour>
        <pt x="102" y="131" on="1"/>
        <pt x="102" y="89" on="0"/>
        <pt x="123" y="70" on="1"/>
        <pt x="145" y="51" on="0"/>
        <pt x="201" y="51" on="0"/>
        <pt x="264" y="62" on="0"/>
        <pt x="293" y="70" on="1"/>
        <pt x="354" y="86" on="0"/>
        <pt x="391" y="99" on="1"/>
        <pt x="407" y="105" on="1"/>
        <pt x="407" y="277" on="1"/>
        <pt x="178" y="263" on="1"/>
        <pt x="102" y="258" on="0"/>
        <pt x="102" y="183" on="1"/>
      </contour>
    </TTGlyph>
    <TTGlyph name="a.salt" xMin="56" yMin="0" xMax="482" yMax="538">
      <contour>
        <pt x="56" y="131" on="1"/>
        <pt x="56" y="195" on="1"/>
        <pt x="56" y="317" on="0"/>
        <pt x="193" y="317" on="1"/>
        <pt x="424" y="317" on="1"/>
        <pt x="424" y="424" on="0"/>
        <pt x="391" y="454" on="1"/>
        <pt x="373" y="470" on="0"/>
        <pt x="336" y="480" on="0"/>
        <pt x="320" y="480" on="1"/>
        <pt x="256" y="480" on="0"/>
        <pt x="67" y="469" on="1"/>
        <pt x="67" y="510" on="1"/>
        <pt x="78" y="512" on="0"/>
        <pt x="118" y="519" on="1"/>
        <pt x="223" y="537" on="0"/>
        <pt x="298" y="537" on="1"/>
        <pt x="409" y="537" on="0"/>
        <pt x="482" y="421" on="0"/>
        <pt x="482" y="265" on="1"/>
        <pt x="482" y="156" on="1"/>
        <pt x="482" y="77" on="0"/>
        <pt x="406" y="0" on="0"/>
        <pt x="327" y="0" on="1"/>
        <pt x="193" y="0" on="1"/>
        <pt x="56" y="0" on="0"/>
      </contour>
      <contour>
        <pt x="113" y="131" on="1"/>
        <pt x="113" y="94" on="0"/>
        <pt x="148" y="57" on="0"/>
        <pt x="193" y="57" on="1"/>
        <pt x="327" y="57" on="1"/>
        <pt x="385" y="57" on="0"/>
        <pt x="424" y="107" on="0"/>
        <pt x="424" y="156" on="1"/>
        <pt x="424" y="275" on="1"/>
        <pt x="193" y="261" on="1"/>
        <pt x="151" y="258" on="0"/>
        <pt x="113" y="229" on="0"/>
        <pt x="113" y="195" on="1"/>
      </contour>
    </TTGlyph>
    <TTGlyph name="a.smcp" xMin="39" yMin="0" xMax="550" yMax="570">
      <contour>
        <pt x="39" y="0" on="1"/>
        <pt x="275" y="570" on="1"/>
        <pt x="332" y="570" on="1"/>
        <pt x="550" y="0" on="1"/>
        <pt x="488" y="0" on="1"/>
        <pt x="424" y="162" on="1"/>
        <pt x="170" y="162" on="1"/>
        <pt x="101" y="0" on="1"/>
      </contour>
      <contour>
        <pt x="193" y="219" on="1"/>
        <pt x="404" y="219" on="1"/>
        <pt x="303" y="490" on="1"/>
      </contour>
    </TTGlyph>
    <TTGlyph name="a.superior" xMin="34" yMin="374" xMax="327" yMax="740">
      <contour>
        <pt x="47" y="719" on="1"/>
        <pt x="127" y="739" on="0"/>
        <pt x="215" y="739" on="1"/>
        <pt x="262" y="739" on="0"/>
        <pt x="327" y="688" on="0"/>
        <pt x="327" y="636" on="1"/>
        <pt x="327" y="378" on="1"/>
        <pt x="296" y="378" on="1"/>
        <pt x="280" y="430" on="1"/>
        <pt x="280" y="430" on="0"/>
        <pt x="261" y="419" on="0"/>
        <pt x="230" y="402" on="0"/>
        <pt x="212" y="394" on="1"/>
        <pt x="169" y="374" on="0"/>
        <pt x="93" y="374" on="0"/>
        <pt x="35" y="421" on="0"/>
        <pt x="35" y="463" on="1"/>
        <pt x="35" y="509" on="1"/>
        <pt x="35" y="565" on="0"/>
        <pt x="81" y="588" on="1"/>
        <pt x="104" y="599" on="0"/>
        <pt x="135" y="599" on="1"/>
        <pt x="280" y="599" on="0"/>
        <pt x="280" y="600" on="1"/>
        <pt x="280" y="630" on="0"/>
        <pt x="280" y="631" on="1"/>
        <pt x="280" y="695" on="0"/>
        <pt x="133" y="695" on="0"/>
        <pt x="47" y="688" on="1"/>
      </contour>
      <contour>
        <pt x="82" y="471" on="1"/>
        <pt x="82" y="421" on="0"/>
        <pt x="139" y="421" on="1"/>
        <pt x="165" y="421" on="0"/>
        <pt x="236" y="442" on="0"/>
        <pt x="258" y="453" on="1"/>
        <pt x="280" y="464" on="1"/>
        <pt x="280" y="568" on="1"/>
        <pt x="138" y="557" on="1"/>
        <pt x="82" y="553" on="0"/>
        <pt x="82" y="505" on="1"/>
      </contour>
    </TTGlyph>
    <TTGlyph name="aacute" xMin="44" yMin="-6" xMax="464" yMax="734">
      <contour>
        <pt x="238" y="601" on="1"/>
        <pt x="349" y="734" on="1"/>
        <pt x="421" y="734" on="1"/>
        <pt x="288" y="601" on="1"/>
      </contour>
      <contour>
        <pt x="62" y="511" on="1"/>
        <pt x="174" y="541" on="0"/>
        <pt x="313" y="541" on="1"/>
        <pt x="379" y="541" on="0"/>
        <pt x="464" y="465" on="0"/>
        <pt x="464" y="387" on="1"/>
        <pt x="464" y="0" on="1"/>
        <pt x="422" y="0" on="1"/>
        <pt x="407" y="64" on="1"/>
        <pt x="406" y="64" on="0"/>
        <pt x="376" y="50" on="0"/>
        <pt x="327" y="29" on="0"/>
        <pt x="298" y="19" on="1"/>
        <pt x="230" y="-6" on="0"/>
        <pt x="121" y="-6" on="0"/>
        <pt x="45" y="64" on="0"/>
        <pt x="45" y="126" on="1"/>
        <pt x="45" y="187" on="1"/>
        <pt x="45" y="271" on="0"/>
        <pt x="107" y="304" on="1"/>
        <pt x="137" y="320" on="0"/>
        <pt x="178" y="320" on="1"/>
        <pt x="292" y="320" on="0"/>
        <pt x="407" y="320" on="0"/>
        <pt x="407" y="320" on="1"/>
        <pt x="407" y="353" on="0"/>
        <pt x="407" y="387" on="0"/>
        <pt x="407" y="387" on="1"/>
        <pt x="407" y="486" on="0"/>
        <pt x="304" y="486" on="1"/>
        <pt x="221" y="486" on="0"/>
        <pt x="62" y="470" on="1"/>
      </contour>
      <contour>
        <pt x="102" y="131" on="1"/>
        <pt x="102" y="89" on="0"/>
        <pt x="123" y="70" on="1"/>
        <pt x="145" y="51" on="0"/>
        <pt x="201" y="51" on="0"/>
        <pt x="264" y="62" on="0"/>
        <pt x="293" y="70" on="1"/>
        <pt x="354" y="86" on="0"/>
        <pt x="391" y="99" on="1"/>
        <pt x="407" y="105" on="1"/>
        <pt x="407" y="277" on="1"/>
        <pt x="178" y="263" on="1"/>
        <pt x="102" y="258" on="0"/>
        <pt x="102" y="183" on="1"/>
      </contour>
    </TTGlyph>
    <TTGlyph name="aacute.salt" xMin="56" yMin="0" xMax="482" yMax="731">
      <contour>
        <pt x="249" y="597" on="1"/>
        <pt x="361" y="730" on="1"/>
        <pt x="432" y="730" on="1"/>
        <pt x="299" y="597" on="1"/>
      </contour>
      <contour>
        <pt x="56" y="131" on="1"/>
        <pt x="56" y="195" on="1"/>
        <pt x="56" y="317" on="0"/>
        <pt x="193" y="317" on="1"/>
        <pt x="424" y="317" on="1"/>
        <pt x="424" y="424" on="0"/>
        <pt x="391" y="454" on="1"/>
        <pt x="373" y="470" on="0"/>
        <pt x="336" y="480" on="0"/>
        <pt x="320" y="480" on="1"/>
        <pt x="256" y="480" on="0"/>
        <pt x="67" y="469" on="1"/>
        <pt x="67" y="510" on="1"/>
        <pt x="78" y="512" on="0"/>
        <pt x="118" y="519" on="1"/>
        <pt x="223" y="537" on="0"/>
        <pt x="298" y="537" on="1"/>
        <pt x="409" y="537" on="0"/>
        <pt x="482" y="421" on="0"/>
        <pt x="482" y="265" on="1"/>
        <pt x="482" y="156" on="1"/>
        <pt x="482" y="77" on="0"/>
        <pt x="406" y="0" on="0"/>
        <pt x="327" y="0" on="1"/>
        <pt x="193" y="0" on="1"/>
        <pt x="56" y="0" on="0"/>
      </contour>
      <contour>
        <pt x="113" y="131" on="1"/>
        <pt x="113" y="94" on="0"/>
        <pt x="148" y="57" on="0"/>
        <pt x="193" y="57" on="1"/>
        <pt x="327" y="57" on="1"/>
        <pt x="385" y="57" on="0"/>
        <pt x="424" y="107" on="0"/>
        <pt x="424" y="156" on="1"/>
        <pt x="424" y="275" on="1"/>
        <pt x="193" y="261" on="1"/>
        <pt x="151" y="258" on="0"/>
        <pt x="113" y="229" on="0"/>
        <pt x="113" y="195" on="1"/>
      </contour>
    </TTGlyph>
    <TTGlyph name="aacute.smcp" xMin="39" yMin="0" xMax="550" yMax="763">
      <contour>
        <pt x="279" y="630" on="1"/>
        <pt x="391" y="763" on="1"/>
        <pt x="462" y="763" on="1"/>
        <pt x="329" y="630" on="1"/>
      </contour>
      <contour>
        <pt x="39" y="0" on="1"/>
        <pt x="275" y="570" on="1"/>
        <pt x="332" y="570" on="1"/>
        <pt x="550" y="0" on="1"/>
        <pt x="488" y="0" on="1"/>
        <pt x="424" y="162" on="1"/>
        <pt x="170" y="162" on="1"/>
        <pt x="101" y="0" on="1"/>
      </contour>
      <contour>
        <pt x="193" y="219" on="1"/>
        <pt x="404" y="219" on="1"/>
        <pt x="303" y="490" on="1"/>
      </contour>
    </TTGlyph>
    <TTGlyph name="abreve" xMin="44" yMin="-6" xMax="464" yMax="716">
      <contour>
        <pt x="157" y="715" on="1"/>
        <pt x="193" y="715" on="1"/>
        <pt x="193" y="682" on="0"/>
        <pt x="240" y="637" on="0"/>
        <pt x="270" y="637" on="1"/>
        <pt x="305" y="637" on="0"/>
        <pt x="351" y="680" on="0"/>
        <pt x="351" y="715" on="1"/>
        <pt x="387" y="715" on="1"/>
        <pt x="387" y="662" on="0"/>
        <pt x="317" y="601" on="0"/>
        <pt x="227" y="601" on="0"/>
        <pt x="157" y="664" on="0"/>
      </contour>
      <contour>
        <pt x="62" y="511" on="1"/>
        <pt x="174" y="541" on="0"/>
        <pt x="313" y="541" on="1"/>
        <pt x="379" y="541" on="0"/>
        <pt x="464" y="465" on="0"/>
        <pt x="464" y="387" on="1"/>
        <pt x="464" y="0" on="1"/>
        <pt x="422" y="0" on="1"/>
        <pt x="407" y="64" on="1"/>
        <pt x="406" y="64" on="0"/>
        <pt x="376" y="50" on="0"/>
        <pt x="327" y="29" on="0"/>
        <pt x="298" y="19" on="1"/>
        <pt x="230" y="-6" on="0"/>
        <pt x="121" y="-6" on="0"/>
        <pt x="45" y="64" on="0"/>
        <pt x="45" y="126" on="1"/>
        <pt x="45" y="187" on="1"/>
        <pt x="45" y="271" on="0"/>
        <pt x="107" y="304" on="1"/>
        <pt x="137" y="320" on="0"/>
        <pt x="178" y="320" on="1"/>
        <pt x="292" y="320" on="0"/>
        <pt x="407" y="320" on="0"/>
        <pt x="407" y="320" on="1"/>
        <pt x="407" y="353" on="0"/>
        <pt x="407" y="387" on="0"/>
        <pt x="407" y="387" on="1"/>
        <pt x="407" y="486" on="0"/>
        <pt x="304" y="486" on="1"/>
        <pt x="221" y="486" on="0"/>
        <pt x="62" y="470" on="1"/>
      </contour>
      <contour>
        <pt x="102" y="131" on="1"/>
        <pt x="102" y="89" on="0"/>
        <pt x="123" y="70" on="1"/>
        <pt x="145" y="51" on="0"/>
        <pt x="201" y="51" on="0"/>
        <pt x="264" y="62" on="0"/>
        <pt x="293" y="70" on="1"/>
        <pt x="354" y="86" on="0"/>
        <pt x="391" y="99" on="1"/>
        <pt x="407" y="105" on="1"/>
        <pt x="407" y="277" on="1"/>
        <pt x="178" y="263" on="1"/>
        <pt x="102" y="258" on="0"/>
        <pt x="102" y="183" on="1"/>
      </contour>
    </TTGlyph>
    <TTGlyph name="abreve.salt" xMin="56" yMin="0" xMax="482" yMax="712">
      <contour>
        <pt x="158" y="711" on="1"/>
        <pt x="194" y="711" on="1"/>
        <pt x="194" y="678" on="0"/>
        <pt x="241" y="633" on="0"/>
        <pt x="271" y="633" on="1"/>
        <pt x="319" y="633" on="0"/>
        <pt x="342" y="670" on="1"/>
        <pt x="352" y="688" on="0"/>
        <pt x="352" y="711" on="1"/>
        <pt x="388" y="711" on="1"/>
        <pt x="388" y="658" on="0"/>
        <pt x="317" y="597" on="0"/>
        <pt x="272" y="597" on="1"/>
        <pt x="219" y="597" on="0"/>
        <pt x="185" y="636" on="1"/>
        <pt x="158" y="668" on="0"/>
      </contour>
      <contour>
        <pt x="56" y="131" on="1"/>
        <pt x="56" y="195" on="1"/>
        <pt x="56" y="317" on="0"/>
        <pt x="193" y="317" on="1"/>
        <pt x="424" y="317" on="1"/>
        <pt x="424" y="424" on="0"/>
        <pt x="391" y="454" on="1"/>
        <pt x="373" y="470" on="0"/>
        <pt x="336" y="480" on="0"/>
        <pt x="320" y="480" on="1"/>
        <pt x="256" y="480" on="0"/>
        <pt x="67" y="469" on="1"/>
        <pt x="67" y="510" on="1"/>
        <pt x="78" y="512" on="0"/>
        <pt x="118" y="519" on="1"/>
        <pt x="223" y="537" on="0"/>
        <pt x="298" y="537" on="1"/>
        <pt x="409" y="537" on="0"/>
        <pt x="482" y="421" on="0"/>
        <pt x="482" y="265" on="1"/>
        <pt x="482" y="156" on="1"/>
        <pt x="482" y="77" on="0"/>
        <pt x="406" y="0" on="0"/>
        <pt x="327" y="0" on="1"/>
        <pt x="193" y="0" on="1"/>
        <pt x="56" y="0" on="0"/>
      </contour>
      <contour>
        <pt x="113" y="131" on="1"/>
        <pt x="113" y="94" on="0"/>
        <pt x="148" y="57" on="0"/>
        <pt x="193" y="57" on="1"/>
        <pt x="327" y="57" on="1"/>
        <pt x="385" y="57" on="0"/>
        <pt x="424" y="107" on="0"/>
        <pt x="424" y="156" on="1"/>
        <pt x="424" y="275" on="1"/>
        <pt x="193" y="261" on="1"/>
        <pt x="151" y="258" on="0"/>
        <pt x="113" y="229" on="0"/>
        <pt x="113" y="195" on="1"/>
      </contour>
    </TTGlyph>
    <TTGlyph name="abreve.smcp" xMin="39" yMin="0" xMax="550" yMax="744">
      <contour>
        <pt x="189" y="744" on="1"/>
        <pt x="225" y="744" on="1"/>
        <pt x="225" y="722" on="0"/>
        <pt x="236" y="704" on="1"/>
        <pt x="259" y="666" on="0"/>
        <pt x="302" y="666" on="1"/>
        <pt x="350" y="666" on="0"/>
        <pt x="373" y="703" on="1"/>
        <pt x="383" y="721" on="0"/>
        <pt x="383" y="744" on="1"/>
        <pt x="419" y="744" on="1"/>
        <pt x="419" y="689" on="0"/>
        <pt x="382" y="658" on="1"/>
        <pt x="347" y="630" on="0"/>
        <pt x="303" y="630" on="1"/>
        <pt x="260" y="630" on="0"/>
        <pt x="225" y="660" on="1"/>
        <pt x="189" y="691" on="0"/>
      </contour>
      <contour>
        <pt x="39" y="0" on="1"/>
        <pt x="275" y="570" on="1"/>
        <pt x="332" y="570" on="1"/>
        <pt x="550" y="0" on="1"/>
        <pt x="488" y="0" on="1"/>
        <pt x="424" y="162" on="1"/>
        <pt x="170" y="162" on="1"/>
        <pt x="101" y="0" on="1"/>
      </contour>
      <contour>
        <pt x="193" y="219" on="1"/>
        <pt x="404" y="219" on="1"/>
        <pt x="303" y="490" on="1"/>
      </contour>
    </TTGlyph>
    <TTGlyph name="acircumflex" xMin="44" yMin="-6" xMax="464" yMax="731">
      <contour>
        <pt x="122" y="601" on="1"/>
        <pt x="245" y="731" on="1"/>
        <pt x="298" y="731" on="1"/>
        <pt x="408" y="601" on="1"/>
        <pt x="355" y="601" on="1"/>
        <pt x="270" y="687" on="1"/>
        <pt x="176" y="601" on="1"/>
      </contour>
      <contour>
        <pt x="62" y="511" on="1"/>
        <pt x="174" y="541" on="0"/>
        <pt x="313" y="541" on="1"/>
        <pt x="379" y="541" on="0"/>
        <pt x="464" y="465" on="0"/>
        <pt x="464" y="387" on="1"/>
        <pt x="464" y="0" on="1"/>
        <pt x="422" y="0" on="1"/>
        <pt x="407" y="64" on="1"/>
        <pt x="406" y="64" on="0"/>
        <pt x="376" y="50" on="0"/>
        <pt x="327" y="29" on="0"/>
        <pt x="298" y="19" on="1"/>
        <pt x="230" y="-6" on="0"/>
        <pt x="121" y="-6" on="0"/>
        <pt x="45" y="64" on="0"/>
        <pt x="45" y="126" on="1"/>
        <pt x="45" y="187" on="1"/>
        <pt x="45" y="271" on="0"/>
        <pt x="107" y="304" on="1"/>
        <pt x="137" y="320" on="0"/>
        <pt x="178" y="320" on="1"/>
        <pt x="292" y="320" on="0"/>
        <pt x="407" y="320" on="0"/>
        <pt x="407" y="320" on="1"/>
        <pt x="407" y="353" on="0"/>
        <pt x="407" y="387" on="0"/>
        <pt x="407" y="387" on="1"/>
        <pt x="407" y="486" on="0"/>
        <pt x="304" y="486" on="1"/>
        <pt x="221" y="486" on="0"/>
        <pt x="62" y="470" on="1"/>
      </contour>
      <contour>
        <pt x="102" y="131" on="1"/>
        <pt x="102" y="89" on="0"/>
        <pt x="123" y="70" on="1"/>
        <pt x="145" y="51" on="0"/>
        <pt x="201" y="51" on="0"/>
        <pt x="264" y="62" on="0"/>
        <pt x="293" y="70" on="1"/>
        <pt x="354" y="86" on="0"/>
        <pt x="391" y="99" on="1"/>
        <pt x="407" y="105" on="1"/>
        <pt x="407" y="277" on="1"/>
        <pt x="178" y="263" on="1"/>
        <pt x="102" y="258" on="0"/>
        <pt x="102" y="183" on="1"/>
      </contour>
    </TTGlyph>
    <TTGlyph name="acircumflex.salt" xMin="56" yMin="0" xMax="482" yMax="728">
      <contour>
        <pt x="132" y="597" on="1"/>
        <pt x="254" y="727" on="1"/>
        <pt x="308" y="727" on="1"/>
        <pt x="417" y="597" on="1"/>
        <pt x="364" y="597" on="1"/>
        <pt x="279" y="683" on="1"/>
        <pt x="185" y="597" on="1"/>
      </contour>
      <contour>
        <pt x="56" y="131" on="1"/>
        <pt x="56" y="195" on="1"/>
        <pt x="56" y="317" on="0"/>
        <pt x="193" y="317" on="1"/>
        <pt x="424" y="317" on="1"/>
        <pt x="424" y="424" on="0"/>
        <pt x="391" y="454" on="1"/>
        <pt x="373" y="470" on="0"/>
        <pt x="336" y="480" on="0"/>
        <pt x="320" y="480" on="1"/>
        <pt x="256" y="480" on="0"/>
        <pt x="67" y="469" on="1"/>
        <pt x="67" y="510" on="1"/>
        <pt x="78" y="512" on="0"/>
        <pt x="118" y="519" on="1"/>
        <pt x="223" y="537" on="0"/>
        <pt x="298" y="537" on="1"/>
        <pt x="409" y="537" on="0"/>
        <pt x="482" y="421" on="0"/>
        <pt x="482" y="265" on="1"/>
        <pt x="482" y="156" on="1"/>
        <pt x="482" y="77" on="0"/>
        <pt x="406" y="0" on="0"/>
        <pt x="327" y="0" on="1"/>
        <pt x="193" y="0" on="1"/>
        <pt x="56" y="0" on="0"/>
      </contour>
      <contour>
        <pt x="113" y="131" on="1"/>
        <pt x="113" y="94" on="0"/>
        <pt x="148" y="57" on="0"/>
        <pt x="193" y="57" on="1"/>
        <pt x="327" y="57" on="1"/>
        <pt x="385" y="57" on="0"/>
        <pt x="424" y="107" on="0"/>
        <pt x="424" y="156" on="1"/>
        <pt x="424" y="275" on="1"/>
        <pt x="193" y="261" on="1"/>
        <pt x="151" y="258" on="0"/>
        <pt x="113" y="229" on="0"/>
        <pt x="113" y="195" on="1"/>
      </contour>
    </TTGlyph>
    <TTGlyph name="acircumflex.smcp" xMin="39" yMin="0" xMax="550" yMax="760">
      <contour>
        <pt x="161" y="630" on="1"/>
        <pt x="283" y="760" on="1"/>
        <pt x="337" y="760" on="1"/>
        <pt x="447" y="630" on="1"/>
        <pt x="394" y="630" on="1"/>
        <pt x="309" y="716" on="1"/>
        <pt x="215" y="630" on="1"/>
      </contour>
      <contour>
        <pt x="39" y="0" on="1"/>
        <pt x="275" y="570" on="1"/>
        <pt x="332" y="570" on="1"/>
        <pt x="550" y="0" on="1"/>
        <pt x="488" y="0" on="1"/>
        <pt x="424" y="162" on="1"/>
        <pt x="170" y="162" on="1"/>
        <pt x="101" y="0" on="1"/>
      </contour>
      <contour>
        <pt x="193" y="219" on="1"/>
        <pt x="404" y="219" on="1"/>
        <pt x="303" y="490" on="1"/>
      </contour>
    </TTGlyph>
    <TTGlyph name="acute" xMin="22" yMin="531" xMax="206" yMax="664">
      <contour>
        <pt x="22" y="531" on="1"/>
        <pt x="134" y="664" on="1"/>
        <pt x="206" y="664" on="1"/>
        <pt x="73" y="531" on="1"/>
      </contour>
    </TTGlyph>
    <TTGlyph name="acute.smcp" xMin="22" yMin="531" xMax="206" yMax="664">
      <contour>
        <pt x="22" y="531" on="1"/>
        <pt x="134" y="664" on="1"/>
        <pt x="206" y="664" on="1"/>
        <pt x="73" y="531" on="1"/>
      </contour>
    </TTGlyph>
</ttFont>
